if (_typeface_js && _typeface_js.loadFace) _typeface_js.loadFace({"glyphs":{"ợ":{"x_min":64.0625,"x_max":704.328125,"ha":753,"o":"m 377 -138 b 302 -211 334 -138 302 -168 b 377 -286 302 -256 334 -286 b 452 -211 421 -286 452 -256 b 377 -138 452 -168 421 -138 m 376 77 b 182 335 261 77 182 181 b 376 596 182 491 261 596 b 571 335 493 596 571 491 b 376 77 571 181 493 77 m 589 810 b 609 752 601 792 609 773 b 507 661 609 700 572 673 b 376 691 466 681 422 691 b 64 335 211 691 64 561 b 376 -17 64 111 211 -17 b 689 335 541 -17 689 111 b 575 617 689 460 643 556 b 704 760 643 636 704 677 b 672 850 704 795 690 825 l 589 810 "},"Ẩ":{"x_min":4.171875,"x_max":751.390625,"ha":756,"o":"m 534 1047 b 663 1157 601 1058 663 1086 b 495 1258 663 1221 604 1254 l 484 1200 b 581 1146 552 1196 581 1182 b 520 1096 581 1117 554 1104 l 534 1047 m 372 1067 l 377 1067 l 465 980 l 554 980 l 425 1128 l 325 1128 l 197 980 l 284 980 l 372 1067 m 238 370 l 281 509 b 372 816 315 611 344 711 l 377 816 b 469 509 406 711 436 611 l 512 370 l 238 370 m 627 0 l 751 0 l 443 911 l 312 911 l 4 0 l 122 0 l 209 277 l 541 277 l 627 0 "},"₅":{"x_min":48.609375,"x_max":448.609375,"ha":510,"o":"m 48 -198 b 254 -305 91 -259 158 -305 b 448 -118 363 -305 448 -229 b 270 63 448 0 368 63 b 183 43 238 63 209 55 l 198 175 l 420 175 l 420 252 l 125 252 l 100 -8 l 143 -38 b 245 4 172 -15 202 4 b 359 -115 312 4 359 -40 b 248 -234 359 -183 312 -234 b 108 -154 186 -234 143 -202 l 48 -198 "},"Ổ":{"x_min":72.21875,"x_max":851.390625,"ha":922,"o":"m 461 -16 b 851 460 690 -16 851 167 b 461 928 851 750 690 928 b 72 460 231 928 72 751 b 461 -16 72 167 231 -16 m 461 85 b 191 460 298 85 191 232 b 461 826 191 686 298 826 b 730 460 623 826 730 686 b 461 85 730 232 623 85 m 620 1047 b 750 1157 687 1058 750 1086 b 581 1258 750 1221 690 1254 l 570 1200 b 668 1146 638 1196 668 1182 b 605 1096 668 1117 640 1104 l 620 1047 m 283 980 l 370 980 l 458 1067 l 463 1067 l 551 980 l 638 980 l 511 1128 l 411 1128 l 283 980 "},"ḫ":{"x_min":113.671875,"x_max":653.9375,"ha":756,"o":"m 113 0 l 227 0 l 227 488 b 412 593 295 556 342 593 b 540 412 501 593 540 538 l 540 0 l 653 0 l 653 427 b 448 691 653 600 590 691 b 223 580 355 691 287 641 l 227 719 l 227 988 l 113 988 l 113 0 m 395 -286 b 572 -109 515 -286 565 -191 l 501 -109 b 395 -215 492 -163 460 -215 b 291 -109 330 -215 298 -163 l 220 -109 b 395 -286 226 -191 276 -286 "},"◁":{"x_min":25,"x_max":713.890625,"ha":793,"o":"m 201 391 l 630 611 l 630 168 l 201 391 m 713 755 l 711 755 l 25 393 l 25 388 l 711 25 l 713 25 l 713 755 "},"Ừ":{"x_min":120.828125,"x_max":927.78125,"ha":915,"o":"m 518 980 l 395 1136 l 265 1136 l 422 980 l 518 980 m 813 1061 b 834 1004 826 1043 834 1025 b 709 911 834 940 786 918 l 663 911 l 663 373 b 448 84 663 154 569 84 b 236 373 329 84 236 154 l 236 911 l 120 911 l 120 376 b 448 -16 120 83 262 -16 b 775 376 634 -16 775 83 l 775 861 b 927 1011 856 879 927 919 b 895 1101 927 1045 915 1076 l 813 1061 "},"̂":{"x_min":-179,"x_max":179,"ha":0,"o":"m -179 795 l -95 795 l -2 922 l 2 922 l 95 795 l 179 795 l 47 991 l -47 991 l -179 795 "},"Á":{"x_min":4,"x_max":751,"ha":756,"o":"m 556 1136 l 426 1136 l 303 980 l 399 980 l 556 1136 m 238 370 l 281 509 b 371 816 315 611 344 711 l 377 816 b 469 509 406 711 435 611 l 512 370 l 238 370 m 627 0 l 751 0 l 442 911 l 312 911 l 4 0 l 122 0 l 209 277 l 541 277 l 627 0 "},"ĥ":{"x_min":-16.671875,"x_max":654.171875,"ha":756,"o":"m 113 0 l 227 0 l 227 488 b 412 593 295 556 343 593 b 540 412 501 593 540 538 l 540 0 l 654 0 l 654 427 b 448 691 654 600 590 691 b 223 580 355 691 287 641 l 227 719 l 227 988 l 113 988 l 113 0 m 76 1040 l 169 1134 l 175 1134 l 268 1040 l 359 1040 l 226 1194 l 116 1194 l -16 1040 l 76 1040 "},"»":{"x_min":75.125,"x_max":533.453125,"ha":596,"o":"m 75 130 l 123 92 l 314 307 l 314 393 l 123 609 l 75 567 l 239 350 l 75 130 m 294 130 l 344 92 l 533 307 l 533 393 l 344 609 l 294 567 l 458 350 l 294 130 "},"Ḻ":{"x_min":125,"x_max":638.890625,"ha":675,"o":"m 125 0 l 638 0 l 638 98 l 240 98 l 240 911 l 125 911 l 125 0 m 569 -156 l 227 -156 l 227 -237 l 569 -237 l 569 -156 "},"ˌ":{"x_min":30.5625,"x_max":127.78125,"ha":158,"o":"m 38 -98 l 30 -352 l 127 -352 l 119 -98 l 38 -98 "},"∆":{"x_min":41.9375,"x_max":782.21875,"ha":822,"o":"m 41 0 l 782 0 l 782 69 l 478 916 l 344 916 l 41 69 l 41 0 m 172 98 l 319 519 l 410 797 l 415 797 l 504 519 l 651 98 l 172 98 "},"ṟ":{"x_min":-4.171875,"x_max":486.109375,"ha":482,"o":"m 113 0 l 227 0 l 227 433 b 398 588 273 547 341 588 b 463 577 426 588 441 584 l 486 677 b 413 691 463 687 443 691 b 222 552 337 691 268 637 l 218 552 l 208 675 l 113 675 l 113 0 m 338 -156 l -4 -156 l -4 -237 l 338 -237 l 338 -156 "},"ỹ":{"x_min":16.21875,"x_max":632.390625,"ha":649,"o":"m 67 -186 l 45 -276 b 124 -290 67 -284 94 -290 b 377 -55 260 -290 330 -188 l 632 675 l 521 675 l 400 301 b 343 111 382 241 362 172 l 337 111 b 272 301 316 173 292 243 l 134 675 l 16 675 l 287 -1 l 271 -51 b 119 -195 244 -134 195 -195 b 67 -186 102 -195 81 -190 m 144 804 l 209 804 b 259 875 216 851 231 875 b 418 804 306 875 348 804 b 531 951 486 804 524 868 l 466 951 b 415 880 458 904 443 880 b 256 951 370 880 327 951 b 144 804 188 951 150 887 "},"ţ":{"x_min":32.875,"x_max":450.84375,"ha":469,"o":"m 338 -16 b 450 8 375 -14 417 -2 l 428 94 b 352 76 406 86 375 76 b 248 206 274 76 248 123 l 248 581 l 430 581 l 430 675 l 248 675 l 248 863 l 152 863 l 138 675 l 32 668 l 32 581 l 132 581 l 132 208 b 266 -9 132 95 167 12 l 217 -104 b 306 -172 274 -118 306 -136 b 182 -239 306 -209 255 -229 l 193 -296 b 393 -168 298 -286 393 -248 b 311 -69 393 -111 357 -84 l 338 -16 "},"«":{"x_min":63,"x_max":520.890625,"ha":596,"o":"m 251 92 l 301 130 l 138 350 l 301 567 l 251 609 l 63 393 l 63 307 l 251 92 m 472 92 l 520 130 l 357 350 l 520 567 l 472 609 l 282 393 l 282 307 l 472 92 "},"ử":{"x_min":104.171875,"x_max":768.0625,"ha":756,"o":"m 330 768 b 484 897 411 781 484 816 b 291 1009 484 968 413 1005 l 280 943 b 395 884 356 940 395 920 b 316 820 395 850 361 833 l 330 768 m 654 825 b 673 766 665 806 673 787 b 556 675 673 704 622 681 l 527 675 l 527 195 b 345 81 463 116 415 81 b 219 262 256 81 219 136 l 219 675 l 104 675 l 104 247 b 311 -16 104 75 168 -16 b 533 105 404 -16 470 31 l 537 105 l 547 0 l 641 0 l 641 631 b 768 775 704 650 768 690 b 736 865 768 809 754 840 l 654 825 "},"í":{"x_min":80.5625,"x_max":325,"ha":342,"o":"m 113 0 l 227 0 l 227 675 l 113 675 l 113 0 m 325 991 l 205 991 l 80 795 l 168 795 l 325 991 "},"ņ":{"x_min":113.890625,"x_max":654.171875,"ha":760,"o":"m 113 0 l 227 0 l 227 488 b 412 593 295 556 343 593 b 540 412 501 593 540 538 l 540 0 l 654 0 l 654 427 b 448 691 654 600 590 691 b 222 577 355 691 286 641 l 218 577 l 208 675 l 113 675 l 113 0 m 347 -66 l 322 -119 b 393 -180 361 -129 393 -144 b 269 -244 393 -216 343 -234 l 280 -300 b 481 -173 386 -291 481 -254 b 347 -66 481 -111 440 -80 "},"ǜ":{"x_min":104.328125,"x_max":641.828125,"ha":756,"o":"m 104 247 b 311 -16 104 75 168 -16 b 533 105 404 -16 471 31 l 537 105 l 547 0 l 641 0 l 641 675 l 527 675 l 527 195 b 346 81 464 116 415 81 b 219 262 257 81 219 136 l 219 675 l 104 675 l 104 247 m 337 1143 l 227 1143 l 371 1000 l 451 1000 l 337 1143 m 498 816 b 561 879 534 816 561 844 b 498 943 561 915 534 943 b 434 879 462 943 434 915 b 498 816 434 844 462 816 m 258 816 b 321 879 294 816 321 844 b 258 943 321 915 294 943 b 196 879 222 943 196 915 b 258 816 196 844 222 816 "},"µ":{"x_min":113.890625,"x_max":650,"ha":764,"o":"m 113 -277 l 227 -277 l 227 -76 l 220 48 b 348 -11 252 0 294 -11 b 543 105 426 -11 490 33 l 545 105 l 555 0 l 650 0 l 650 675 l 536 675 l 536 195 b 355 82 472 116 425 82 b 227 262 266 82 227 136 l 227 675 l 113 675 l 113 -277 "},"ỳ":{"x_min":17,"x_max":632,"ha":649,"o":"m 68 -186 l 46 -276 b 125 -290 68 -284 94 -290 b 377 -55 261 -290 330 -188 l 632 675 l 520 675 l 400 301 b 343 111 382 241 362 172 l 337 111 b 272 301 316 173 293 243 l 135 675 l 17 675 l 287 -1 l 272 -51 b 119 -195 244 -134 196 -195 b 68 -186 103 -195 82 -190 m 340 795 l 427 795 l 302 991 l 183 991 l 340 795 "},"M":{"x_min":125.03125,"x_max":884.75,"ha":1010,"o":"m 125 0 l 231 0 l 231 501 b 216 770 231 581 222 690 l 222 770 l 294 568 l 470 91 l 536 91 l 711 568 l 784 770 l 790 770 b 775 501 783 690 775 581 l 775 0 l 884 0 l 884 911 l 748 911 l 573 422 l 509 236 l 504 236 l 437 422 l 261 911 l 125 911 l 125 0 "},"Ḏ":{"x_min":125,"x_max":783.328125,"ha":854,"o":"m 125 0 l 358 0 b 783 459 633 0 783 169 b 352 911 783 748 633 911 l 125 911 l 125 0 m 240 94 l 240 816 l 344 816 b 663 459 556 816 663 688 b 344 94 663 229 556 94 l 240 94 m 593 -156 l 251 -156 l 251 -237 l 593 -237 l 593 -156 "},"ũ":{"x_min":103.4375,"x_max":641.4375,"ha":756,"o":"m 103 247 b 310 -16 103 75 167 -16 b 533 105 403 -16 470 31 l 537 105 l 546 0 l 641 0 l 641 675 l 527 675 l 527 195 b 345 81 463 116 414 81 b 218 262 256 81 218 136 l 218 675 l 103 675 l 103 247 m 184 804 l 249 804 b 299 875 256 851 273 875 b 457 804 346 875 388 804 b 572 951 527 804 563 868 l 506 951 b 455 880 498 904 483 880 b 298 951 410 880 367 951 b 184 804 228 951 192 887 "},"ŭ":{"x_min":103.390625,"x_max":641.5,"ha":756,"o":"m 103 247 b 310 -16 103 75 167 -16 b 533 105 403 -16 470 31 l 537 105 l 547 0 l 641 0 l 641 675 l 527 675 l 527 195 b 345 81 463 116 414 81 b 218 262 256 81 218 136 l 218 675 l 103 675 l 103 247 m 377 798 b 554 975 496 798 547 893 l 483 975 b 377 869 474 920 442 869 b 272 975 313 869 279 920 l 202 975 b 377 798 208 893 257 798 "},"₍":{"x_min":90.28125,"x_max":275,"ha":329,"o":"m 212 -397 l 275 -366 b 176 -18 204 -256 176 -141 b 275 329 176 105 204 220 l 212 361 b 90 -18 133 247 90 137 b 212 -397 90 -174 133 -284 "},"―":{"x_min":56.9375,"x_max":1054.171875,"ha":1111,"o":"m 56 309 l 1054 309 l 1054 388 l 56 388 l 56 309 "},"Ə":{"x_min":80.5625,"x_max":843.0625,"ha":915,"o":"m 725 397 b 455 79 706 200 602 79 b 198 397 311 79 209 198 l 725 397 m 229 741 b 451 831 283 794 361 831 b 727 486 622 831 719 700 l 83 486 b 80 451 81 473 80 461 b 455 -16 80 170 227 -16 b 843 458 683 -16 843 166 b 461 927 843 750 694 927 b 173 820 337 927 238 883 l 229 741 "},"{":{"x_min":47.21875,"x_max":379.171875,"ha":421,"o":"m 341 -145 b 247 -19 266 -145 247 -109 b 255 231 247 65 255 137 b 172 383 255 320 231 366 l 172 388 b 255 540 231 405 255 450 b 247 791 255 634 247 706 b 341 918 247 881 266 918 l 379 918 l 379 983 l 316 983 b 154 798 206 983 154 941 b 166 529 154 697 166 623 b 47 422 166 476 141 423 l 47 350 b 166 241 141 348 166 295 b 154 -26 166 148 154 75 b 316 -211 154 -169 206 -211 l 379 -211 l 379 -145 l 341 -145 "},"¼":{"x_min":88,"x_max":1040.78125,"ha":1085,"o":"m 294 369 l 294 911 l 221 911 b 88 855 183 883 149 866 l 88 797 l 206 797 l 206 369 l 294 369 m 753 927 l 250 -16 l 328 -16 l 831 927 l 753 927 m 725 208 l 811 344 l 881 456 l 886 456 l 879 305 l 879 208 l 725 208 m 1040 208 l 960 208 l 960 541 l 860 541 l 633 190 l 633 144 l 879 144 l 879 0 l 960 0 l 960 144 l 1040 144 l 1040 208 "},"Ê":{"x_min":125,"x_max":663.890625,"ha":732,"o":"m 125 0 l 663 0 l 663 98 l 240 98 l 240 429 l 586 429 l 586 527 l 240 527 l 240 813 l 650 813 l 650 911 l 125 911 l 125 0 m 298 980 l 391 1075 l 397 1075 l 490 980 l 583 980 l 450 1136 l 340 1136 l 206 980 l 298 980 "},")":{"x_min":52.78125,"x_max":306.9375,"ha":421,"o":"m 52 -210 l 123 -244 b 306 386 238 -57 306 142 b 123 1017 306 630 238 830 l 52 983 b 212 386 159 807 212 597 b 52 -210 212 175 159 -34 "},"ᶻ":{"x_min":29.125,"x_max":377.734375,"ha":403,"o":"m 29 369 l 377 369 l 377 440 l 138 440 l 370 768 l 370 816 l 56 816 l 56 747 l 262 747 l 29 416 l 29 369 "},"a":{"x_min":81.125,"x_max":610.296875,"ha":711,"o":"m 81 175 b 279 -16 81 54 165 -16 b 503 80 363 -16 438 27 l 506 80 l 515 0 l 610 0 l 610 413 b 375 691 610 581 540 691 b 110 604 267 691 172 644 l 156 525 b 357 597 208 561 278 597 b 496 427 467 597 496 513 b 81 175 208 395 81 322 m 193 183 b 496 352 193 269 270 325 l 496 165 b 311 75 431 106 376 75 b 193 183 245 75 193 106 "},"Ę":{"x_min":125,"x_max":686.109375,"ha":732,"o":"m 125 0 l 545 0 b 441 -173 494 -33 441 -97 b 575 -294 441 -252 501 -294 b 686 -255 611 -294 659 -276 l 654 -193 b 598 -212 637 -205 619 -212 b 531 -148 565 -212 531 -191 b 659 0 531 -75 595 -8 l 663 0 l 663 98 l 240 98 l 240 429 l 586 429 l 586 527 l 240 527 l 240 813 l 650 813 l 650 911 l 125 911 l 125 0 "},"Z":{"x_min":63.046875,"x_max":690.828125,"ha":749,"o":"m 63 0 l 690 0 l 690 98 l 206 98 l 686 843 l 686 911 l 106 911 l 106 813 l 542 813 l 63 69 l 63 0 "},"⁸":{"x_min":62.5,"x_max":444.4375,"ha":510,"o":"m 145 754 b 220 866 145 798 172 837 b 361 752 294 836 361 819 b 252 659 361 701 312 659 b 145 754 188 659 145 705 m 284 920 b 166 1025 219 941 166 969 b 252 1101 166 1069 205 1101 b 343 1023 302 1101 343 1070 b 284 920 343 987 325 951 m 62 745 b 252 594 62 663 138 594 b 444 750 362 594 444 662 b 343 890 444 815 405 858 l 343 895 b 426 1026 380 920 426 963 b 252 1169 426 1113 350 1169 b 84 1026 159 1169 84 1112 b 165 902 84 969 118 933 l 165 897 b 62 745 112 866 62 813 "},"k":{"x_min":113.890625,"x_max":675,"ha":688,"o":"m 113 0 l 226 0 l 226 177 l 352 325 l 550 0 l 675 0 l 418 404 l 644 675 l 518 675 l 230 319 l 226 319 l 226 988 l 113 988 l 113 0 "},"Ù":{"x_min":120.828125,"x_max":775,"ha":896,"o":"m 120 376 b 448 -16 120 83 262 -16 b 775 376 634 -16 775 83 l 775 911 l 663 911 l 663 373 b 448 84 663 154 569 84 b 236 373 329 84 236 154 l 236 911 l 120 911 l 120 376 m 423 980 l 519 980 l 397 1136 l 266 1136 l 423 980 "},"ᵗ":{"x_min":22.21875,"x_max":312.5,"ha":322,"o":"m 88 515 b 222 358 88 422 123 358 b 312 375 254 358 287 366 l 294 438 b 243 429 277 431 261 429 b 175 515 195 429 175 459 l 175 747 l 297 747 l 297 816 l 175 816 l 175 943 l 102 943 l 91 816 l 22 812 l 22 747 l 88 747 l 88 515 "},"Ů":{"x_min":120.828125,"x_max":775,"ha":896,"o":"m 120 376 b 448 -16 120 83 262 -16 b 775 376 634 -16 775 83 l 775 911 l 663 911 l 663 373 b 448 84 663 154 569 84 b 236 373 329 84 236 154 l 236 911 l 120 911 l 120 376 m 448 970 b 577 1093 522 970 577 1018 b 448 1215 577 1166 522 1215 b 318 1093 372 1215 318 1166 b 448 970 318 1018 372 970 m 448 1020 b 381 1093 411 1020 381 1047 b 448 1163 381 1136 411 1163 b 513 1093 483 1163 513 1136 b 448 1020 513 1047 483 1020 "},"¢":{"x_min":84.71875,"x_max":630.5625,"ha":690,"o":"m 363 197 b 198 430 259 220 198 306 b 363 662 198 552 262 638 l 363 197 m 580 256 b 436 191 543 223 494 195 l 436 669 b 562 611 484 666 525 644 l 618 683 b 436 763 575 723 516 759 l 436 906 l 363 906 l 363 759 b 84 430 206 737 84 622 b 363 98 84 234 198 118 l 363 -45 l 436 -45 l 436 97 b 630 184 508 102 576 136 l 580 256 "},"ē":{"x_min":63.890625,"x_max":636,"ha":689,"o":"m 63 336 b 387 -16 63 115 206 -16 b 609 52 479 -16 551 15 l 569 127 b 401 75 519 95 465 75 b 176 312 272 75 184 166 l 631 312 b 636 375 634 329 636 351 b 366 691 636 568 538 691 b 63 336 212 691 63 556 m 175 387 b 369 601 188 523 274 601 b 536 387 474 601 536 525 l 175 387 m 197 834 l 537 834 l 537 913 l 197 913 l 197 834 "},"Ẹ":{"x_min":125,"x_max":663.890625,"ha":732,"o":"m 125 0 l 663 0 l 663 98 l 240 98 l 240 429 l 586 429 l 586 527 l 240 527 l 240 813 l 650 813 l 650 911 l 125 911 l 125 0 m 411 -286 b 486 -211 454 -286 486 -255 b 411 -137 486 -168 454 -137 b 336 -211 368 -137 336 -168 b 411 -286 336 -255 368 -286 "},"≠":{"x_min":47.015625,"x_max":642.984375,"ha":690,"o":"m 84 90 l 167 90 l 273 266 l 642 266 l 642 352 l 323 352 l 449 563 l 642 563 l 642 650 l 499 650 l 605 826 l 522 826 l 416 650 l 47 650 l 47 563 l 366 563 l 240 352 l 47 352 l 47 266 l 190 266 l 84 90 "},"¥":{"x_min":31.9375,"x_max":658.328125,"ha":690,"o":"m 31 886 l 258 441 l 62 441 l 62 376 l 287 376 l 287 286 l 62 286 l 62 219 l 287 219 l 287 0 l 401 0 l 401 219 l 627 219 l 627 286 l 401 286 l 401 376 l 627 376 l 627 441 l 430 441 l 658 886 l 541 886 l 433 648 b 348 461 405 587 379 526 l 343 461 b 259 648 313 526 287 587 l 151 886 l 31 886 "},"ƀ":{"x_min":11.109375,"x_max":704.171875,"ha":756,"o":"m 227 476 b 408 568 291 536 351 568 b 586 333 536 568 586 473 b 393 79 586 175 504 79 b 227 150 348 79 287 98 l 227 476 m 227 691 l 227 793 l 480 793 l 480 859 l 227 859 l 227 988 l 113 988 l 113 859 l 11 852 l 11 793 l 113 793 l 113 0 l 205 0 l 215 66 l 219 66 b 412 -16 279 13 350 -16 b 704 334 566 -16 704 112 b 436 663 704 534 611 663 b 225 569 361 663 286 623 l 227 691 "},"Ĥ":{"x_min":125,"x_max":780.5625,"ha":906,"o":"m 125 0 l 240 0 l 240 429 l 663 429 l 663 0 l 780 0 l 780 911 l 663 911 l 663 529 l 240 529 l 240 911 l 125 911 l 125 0 m 356 980 l 448 1075 l 454 1075 l 547 980 l 640 980 l 506 1136 l 397 1136 l 263 980 l 356 980 "},"U":{"x_min":120.828125,"x_max":775,"ha":896,"o":"m 120 376 b 448 -16 120 83 262 -16 b 775 376 634 -16 775 83 l 775 911 l 663 911 l 663 373 b 448 84 663 154 569 84 b 236 373 329 84 236 154 l 236 911 l 120 911 l 120 376 "},"Ñ":{"x_min":125.21875,"x_max":774.4375,"ha":899,"o":"m 125 0 l 234 0 l 234 476 b 219 761 234 572 226 669 l 225 761 l 323 573 l 655 0 l 774 0 l 774 911 l 664 911 l 664 440 b 678 150 664 344 673 241 l 673 150 l 574 338 l 244 911 l 125 911 l 125 0 m 538 987 b 655 1137 603 987 646 1052 l 592 1137 b 535 1065 584 1091 563 1065 b 369 1137 483 1065 443 1137 b 253 987 304 1137 261 1073 l 315 987 b 372 1059 323 1034 344 1059 b 538 987 424 1059 464 987 "},"F":{"x_min":125,"x_max":650,"ha":686,"o":"m 125 0 l 240 0 l 240 408 l 587 408 l 587 505 l 240 505 l 240 813 l 650 813 l 650 911 l 125 911 l 125 0 "},"ả":{"x_min":81.125,"x_max":610.296875,"ha":711,"o":"m 81 175 b 279 -16 81 54 165 -16 b 503 80 363 -16 438 27 l 506 80 l 515 0 l 610 0 l 610 413 b 375 691 610 581 540 691 b 110 604 267 691 172 644 l 156 525 b 357 597 208 561 278 597 b 496 427 467 597 496 513 b 81 175 208 395 81 322 m 193 183 b 496 352 193 269 270 325 l 496 165 b 311 75 431 106 376 75 b 193 183 245 75 193 106 m 335 768 b 489 897 415 781 489 816 b 297 1009 489 968 418 1005 l 285 943 b 400 884 363 940 400 920 b 322 820 400 850 367 833 l 335 768 "},"∕":{"x_min":-231.5625,"x_max":349,"ha":119,"o":"m -153 -16 l 349 927 l 271 927 l -231 -16 l -153 -16 "},"ờ":{"x_min":64.0625,"x_max":704.328125,"ha":753,"o":"m 466 795 l 341 991 l 222 991 l 379 795 l 466 795 m 376 77 b 182 335 261 77 182 181 b 376 596 182 491 261 596 b 571 335 493 596 571 491 b 376 77 571 181 493 77 m 589 810 b 609 752 601 792 609 773 b 507 661 609 700 572 673 b 376 691 466 681 422 691 b 64 335 211 691 64 561 b 376 -17 64 111 211 -17 b 689 335 541 -17 689 111 b 575 617 689 460 643 556 b 704 760 643 636 704 677 b 672 850 704 795 690 825 l 589 810 "},"å":{"x_min":81.125,"x_max":610.296875,"ha":711,"o":"m 81 175 b 279 -16 81 54 165 -16 b 503 80 363 -16 438 27 l 506 80 l 515 0 l 610 0 l 610 413 b 375 691 610 581 540 691 b 110 604 267 691 172 644 l 156 525 b 357 597 208 561 278 597 b 496 427 467 597 496 513 b 81 175 208 395 81 322 m 193 183 b 496 352 193 269 270 325 l 496 165 b 311 75 431 106 376 75 b 193 183 245 75 193 106 m 374 752 b 504 881 450 752 504 804 b 374 1009 504 958 450 1009 b 245 881 299 1009 245 958 b 374 752 245 804 299 752 m 374 804 b 307 881 338 804 307 834 b 374 958 307 927 338 958 b 440 881 411 958 440 927 b 374 804 440 834 411 804 "},"0":{"x_min":61.109375,"x_max":629.171875,"ha":690,"o":"m 345 -16 b 629 445 522 -16 629 148 b 345 902 629 743 522 902 b 61 445 168 902 61 743 b 345 -16 61 148 168 -16 m 345 75 b 172 445 241 75 172 186 b 345 811 172 705 241 811 b 518 445 448 811 518 705 b 345 75 518 186 448 75 "},"ō":{"x_min":63.890625,"x_max":688.890625,"ha":753,"o":"m 63 336 b 376 -16 63 112 211 -16 b 688 336 541 -16 688 112 b 376 691 688 562 541 691 b 63 336 211 691 63 562 m 181 336 b 376 597 181 491 261 597 b 570 336 493 597 570 491 b 376 77 570 181 493 77 b 181 336 261 77 181 181 m 206 834 l 547 834 l 547 913 l 206 913 l 206 834 "},"”":{"x_min":87.5,"x_max":512.5,"ha":592,"o":"m 119 599 b 268 844 215 654 268 733 b 180 971 268 925 234 971 b 106 893 137 971 106 942 b 180 824 106 849 141 824 b 191 825 184 824 187 824 b 87 651 191 744 156 697 l 119 599 m 365 599 b 512 844 461 654 512 733 b 425 971 512 925 480 971 b 351 893 381 971 351 942 b 425 824 351 849 386 824 b 437 825 429 824 433 824 b 331 651 437 744 401 697 l 365 599 "},"ö":{"x_min":63.890625,"x_max":688.890625,"ha":753,"o":"m 63 336 b 376 -16 63 112 211 -16 b 688 336 541 -16 688 112 b 376 691 688 562 541 691 b 63 336 211 691 63 562 m 181 336 b 376 597 181 491 261 597 b 570 336 493 597 570 491 b 376 77 570 181 493 77 b 181 336 261 77 181 181 m 256 816 b 325 884 295 816 325 845 b 256 952 325 923 295 952 b 188 884 218 952 188 923 b 256 816 188 845 218 816 m 495 816 b 563 884 536 816 563 845 b 495 952 563 923 536 952 b 429 884 456 952 429 923 b 495 816 429 845 456 816 "},"ć":{"x_min":63.890625,"x_max":600,"ha":633,"o":"m 63 336 b 380 -16 63 112 201 -16 b 600 70 461 -16 538 16 l 548 145 b 390 77 508 109 454 77 b 181 336 266 77 181 181 b 393 597 181 491 270 597 b 529 537 447 597 488 572 l 586 611 b 388 691 540 654 477 691 b 63 336 215 691 63 562 m 540 991 l 422 991 l 295 795 l 384 795 l 540 991 "},"þ":{"x_min":113.890625,"x_max":704.171875,"ha":771,"o":"m 227 -57 l 226 58 b 412 -16 287 10 347 -16 b 704 347 566 -16 704 117 b 431 691 704 557 609 691 b 226 604 358 691 286 651 l 227 719 l 227 988 l 113 988 l 113 -284 l 227 -284 l 227 -57 m 227 149 l 227 504 b 408 596 294 564 351 596 b 586 347 536 596 586 495 b 393 78 586 180 504 78 b 227 149 348 78 288 98 "},"]":{"x_min":43.0625,"x_max":290.28125,"ha":421,"o":"m 43 -145 l 43 -211 l 290 -211 l 290 983 l 43 983 l 43 918 l 204 918 l 204 -145 l 43 -145 "},"ᵍ":{"x_min":41.578125,"x_max":461.03125,"ha":476,"o":"m 115 298 b 158 365 115 323 130 346 b 216 359 177 359 201 359 l 290 359 b 377 309 345 359 377 347 b 241 226 377 266 322 226 b 115 298 162 226 115 253 m 41 286 b 227 166 41 208 116 166 b 461 322 372 166 461 237 b 301 432 461 398 409 432 l 215 432 b 137 475 156 432 137 447 b 163 523 137 497 148 511 b 230 509 186 512 209 509 b 399 665 323 509 399 568 b 367 748 399 697 386 730 l 454 748 l 454 815 l 301 815 b 230 827 280 823 258 827 b 55 668 136 827 55 768 b 115 548 55 615 84 572 l 115 543 b 65 462 90 526 65 497 b 105 389 65 428 81 403 l 105 383 b 41 286 63 358 41 325 m 230 568 b 137 668 176 568 137 607 b 230 765 137 730 176 765 b 322 668 280 765 322 729 b 230 568 322 607 280 568 "},"′":{"x_min":113,"x_max":257,"ha":346,"o":"m 113 602 l 187 602 l 234 819 l 257 958 l 144 958 l 113 602 "},"Ǒ":{"x_min":72.21875,"x_max":851.390625,"ha":922,"o":"m 461 -16 b 851 459 690 -16 851 166 b 461 927 851 750 690 927 b 72 459 231 927 72 751 b 461 -16 72 166 231 -16 m 461 84 b 191 459 298 84 191 231 b 461 826 191 686 298 826 b 730 459 623 826 730 686 b 461 84 730 231 623 84 m 556 1136 l 463 1041 l 458 1041 l 365 1136 l 272 1136 l 405 980 l 516 980 l 650 1136 l 556 1136 "},"ẁ":{"x_min":33.265625,"x_max":964,"ha":997,"o":"m 220 0 l 354 0 l 448 361 b 495 556 466 425 480 488 l 501 556 b 547 362 517 488 530 426 l 644 0 l 783 0 l 964 675 l 855 675 l 756 284 b 715 97 743 220 730 159 l 709 97 b 662 284 694 159 679 220 l 556 675 l 445 675 l 341 284 b 295 97 324 222 311 159 l 290 97 b 249 284 277 159 265 220 l 149 675 l 33 675 l 220 0 m 502 795 l 590 795 l 465 991 l 345 991 l 502 795 "},"ệ":{"x_min":63.890625,"x_max":636,"ha":689,"o":"m 63 336 b 387 -16 63 115 206 -16 b 609 52 479 -16 551 15 l 569 127 b 401 75 519 95 465 75 b 176 312 272 75 184 166 l 631 312 b 636 375 634 329 636 351 b 366 691 636 568 538 691 b 63 336 212 691 63 556 m 175 387 b 369 601 188 523 274 601 b 536 387 474 601 536 525 l 175 387 m 188 795 l 270 795 l 363 922 l 369 922 l 462 795 l 545 795 l 413 991 l 320 991 l 188 795 m 363 -286 b 438 -211 406 -286 438 -255 b 363 -137 438 -168 406 -137 b 288 -211 320 -137 288 -168 b 363 -286 288 -255 320 -286 "},"ĭ":{"x_min":-4,"x_max":347.390625,"ha":342,"o":"m 114 0 l 227 0 l 227 675 l 114 675 l 114 0 m 172 798 b 347 975 291 798 341 893 l 276 975 b 172 869 269 920 237 869 b 66 975 107 869 75 920 l -4 975 b 172 798 2 893 52 798 "},"8":{"x_min":56.9375,"x_max":633.328125,"ha":690,"o":"m 159 237 b 283 430 159 318 212 383 b 523 223 411 379 523 337 b 350 68 523 131 452 68 b 159 237 241 68 159 138 m 409 483 b 205 675 302 525 205 569 b 348 818 205 761 266 818 b 502 661 445 818 502 748 b 409 483 502 595 469 536 m 56 226 b 347 -16 56 86 180 -16 b 633 219 519 -16 633 87 b 479 447 633 338 558 401 l 479 452 b 601 666 533 494 601 573 b 351 902 601 804 505 902 b 100 675 208 902 100 811 b 223 470 100 581 158 516 l 223 465 b 56 226 140 420 56 341 "},"₵":{"x_min":84.71875,"x_max":663.890625,"ha":690,"o":"m 387 79 b 202 446 269 103 202 240 b 387 804 202 641 268 775 l 387 79 m 597 173 b 459 78 556 121 513 87 l 459 810 b 583 729 511 804 550 773 l 651 794 b 459 903 605 851 537 897 l 459 1035 l 387 1035 l 387 898 b 84 441 202 871 84 701 b 387 -15 84 171 206 3 l 387 -152 l 459 -152 l 459 -13 b 663 112 544 -2 609 43 l 597 173 "},"Ữ":{"x_min":121,"x_max":927.953125,"ha":915,"o":"m 584 1137 b 529 1065 577 1091 555 1065 b 364 1137 477 1065 437 1137 b 246 987 297 1137 254 1073 l 309 987 b 366 1059 318 1034 339 1059 b 530 987 416 1059 458 987 b 648 1137 597 987 640 1052 l 584 1137 m 814 1061 b 834 1004 826 1043 834 1025 b 709 911 834 940 786 918 l 664 911 l 664 373 b 448 84 664 154 569 84 b 236 373 329 84 236 154 l 236 911 l 121 911 l 121 376 b 448 -16 121 83 262 -16 b 775 376 634 -16 775 83 l 775 861 b 927 1011 857 879 927 919 b 896 1101 927 1045 915 1076 l 814 1061 "},"R":{"x_min":125,"x_max":755.5625,"ha":807,"o":"m 240 818 l 393 818 b 613 655 534 818 613 774 b 393 479 613 537 534 479 l 240 479 l 240 818 m 755 0 l 525 397 b 729 655 648 427 729 513 b 409 911 729 844 595 911 l 125 911 l 125 0 l 240 0 l 240 384 l 405 384 l 625 0 l 755 0 "},"Ḇ":{"x_min":125,"x_max":761.109375,"ha":817,"o":"m 125 0 l 415 0 b 761 266 619 0 761 87 b 550 484 761 391 683 463 l 550 490 b 708 688 656 518 708 598 b 395 911 708 848 580 911 l 125 911 l 125 0 m 240 522 l 240 819 l 380 819 b 594 679 522 819 594 777 b 375 522 594 577 530 522 l 240 522 m 240 91 l 240 436 l 398 436 b 647 272 558 436 647 384 b 398 91 647 148 555 91 l 240 91 m 586 -156 l 244 -156 l 244 -237 l 586 -237 l 586 -156 "},"Ż":{"x_min":62.5,"x_max":690.28125,"ha":749,"o":"m 62 0 l 690 0 l 690 98 l 205 98 l 686 843 l 686 911 l 105 911 l 105 813 l 541 813 l 62 69 l 62 0 m 390 991 b 469 1066 434 991 469 1022 b 390 1140 469 1109 434 1140 b 311 1066 345 1140 311 1109 b 390 991 311 1022 345 991 "},"ħ":{"x_min":11.109375,"x_max":654.171875,"ha":756,"o":"m 227 691 l 227 793 l 480 793 l 480 859 l 227 859 l 227 988 l 113 988 l 113 859 l 11 852 l 11 793 l 113 793 l 113 0 l 227 0 l 227 461 b 412 565 295 529 343 565 b 540 384 501 565 540 511 l 540 0 l 654 0 l 654 400 b 448 663 654 572 590 663 b 223 552 355 663 287 613 l 227 691 "},"õ":{"x_min":63.5625,"x_max":689.4375,"ha":753,"o":"m 63 336 b 376 -16 63 112 210 -16 b 689 336 542 -16 689 112 b 376 691 689 562 542 691 b 63 336 210 691 63 562 m 181 336 b 376 597 181 491 260 597 b 571 336 493 597 571 491 b 376 77 571 181 493 77 b 181 336 260 77 181 181 m 183 804 l 248 804 b 298 875 255 851 270 875 b 457 804 345 875 387 804 b 570 951 525 804 563 868 l 505 951 b 454 880 497 904 482 880 b 295 951 409 880 366 951 b 183 804 227 951 189 887 "},"◉":{"x_min":56.9375,"x_max":559.71875,"ha":617,"o":"m 308 280 b 388 365 351 280 388 315 b 308 448 388 415 351 448 b 229 365 265 448 229 415 b 308 280 229 315 265 280 m 308 109 b 559 365 445 109 559 208 b 308 620 559 522 445 620 b 56 365 172 620 56 522 b 308 109 56 208 172 109 m 308 177 b 130 365 215 177 130 247 b 308 554 130 484 215 554 b 487 365 402 554 487 484 b 308 177 487 247 402 177 "},"ᶜ":{"x_min":41.671875,"x_max":402.78125,"ha":425,"o":"m 255 358 b 402 411 325 358 370 384 l 366 468 b 263 429 340 447 311 429 b 129 593 184 429 129 497 b 263 756 129 690 187 756 b 354 722 304 756 326 745 l 395 779 b 258 827 368 802 323 827 b 41 593 143 827 41 741 b 255 358 41 444 131 358 "},"ẫ":{"x_min":81.125,"x_max":609.171875,"ha":711,"o":"m 81 175 b 279 -16 81 54 165 -16 b 503 80 363 -16 437 27 l 505 80 l 515 0 l 609 0 l 609 413 b 375 691 609 581 540 691 b 110 604 267 691 172 644 l 156 525 b 357 597 209 561 278 597 b 496 427 467 597 496 513 b 81 175 208 395 81 322 m 193 183 b 496 352 193 269 270 325 l 496 165 b 311 75 431 106 376 75 b 193 183 245 75 193 106 m 202 793 l 282 793 l 371 883 l 376 883 l 465 793 l 547 793 l 426 937 l 322 937 l 202 793 m 250 987 b 304 1047 257 1027 278 1047 b 446 987 350 1047 376 987 b 555 1113 509 987 548 1040 l 497 1113 b 443 1054 490 1073 471 1054 b 302 1113 399 1054 371 1113 b 193 987 238 1113 200 1061 l 250 987 "},"Ṡ":{"x_min":57.84375,"x_max":687.015625,"ha":742,"o":"m 57 118 b 377 -16 137 36 249 -16 b 687 243 568 -16 687 98 b 499 486 687 377 605 440 l 370 541 b 218 693 298 572 218 605 b 388 826 218 775 287 826 b 595 740 473 826 539 793 l 657 815 b 388 927 592 881 496 927 b 102 686 223 927 102 825 b 287 451 102 552 200 487 l 417 394 b 568 233 503 355 568 326 b 378 84 568 144 498 84 b 127 198 284 84 192 130 l 57 118 m 387 991 b 466 1066 431 991 466 1022 b 387 1140 466 1109 431 1140 b 307 1066 342 1140 307 1109 b 387 991 307 1022 342 991 "},"˙":{"x_min":301.390625,"x_max":451.390625,"ha":753,"o":"m 376 813 b 451 888 419 813 451 844 b 376 963 451 931 419 963 b 301 888 333 963 301 931 b 376 813 301 844 333 813 "},"ê":{"x_min":63.890625,"x_max":636,"ha":689,"o":"m 63 336 b 387 -16 63 115 206 -16 b 609 52 479 -16 551 15 l 569 127 b 401 75 519 95 465 75 b 176 312 272 75 184 166 l 631 312 b 636 375 634 329 636 351 b 366 691 636 568 538 691 b 63 336 212 691 63 556 m 175 387 b 369 601 188 523 274 601 b 536 387 474 601 536 525 l 175 387 m 188 795 l 270 795 l 363 922 l 369 922 l 462 795 l 545 795 l 413 991 l 320 991 l 188 795 "},"″":{"x_min":113,"x_max":502,"ha":592,"o":"m 113 602 l 188 602 l 235 819 l 257 958 l 144 958 l 113 602 m 357 602 l 432 602 l 481 819 l 502 958 l 389 958 l 357 602 "},"„":{"x_min":87.5,"x_max":512.5,"ha":592,"o":"m 119 -201 b 268 44 215 -145 268 -64 b 180 171 268 125 234 171 b 106 93 137 171 106 142 b 180 24 106 49 141 24 b 191 25 184 24 187 24 b 87 -148 191 -55 156 -101 l 119 -201 m 365 -201 b 512 44 461 -145 512 -64 b 425 171 512 125 480 171 b 351 93 381 171 351 142 b 425 24 351 49 386 24 b 437 25 429 24 433 24 b 331 -148 437 -55 401 -101 l 365 -201 "},"Â":{"x_min":4,"x_max":751,"ha":756,"o":"m 371 1075 l 377 1075 l 470 980 l 563 980 l 430 1136 l 320 1136 l 187 980 l 278 980 l 371 1075 m 238 370 l 281 509 b 371 816 315 611 344 711 l 377 816 b 469 509 406 711 435 611 l 512 370 l 238 370 m 627 0 l 751 0 l 442 911 l 312 911 l 4 0 l 122 0 l 209 277 l 541 277 l 627 0 "},"Į":{"x_min":59.640625,"x_max":304.09375,"ha":365,"o":"m 124 0 l 152 0 b 59 -173 108 -40 59 -94 b 192 -294 59 -252 119 -294 b 304 -255 229 -294 276 -276 l 272 -193 b 215 -212 255 -205 237 -212 b 149 -148 183 -212 149 -191 b 240 0 149 -91 183 -44 l 240 911 l 124 911 l 124 0 "},"Ţ":{"x_min":39.0625,"x_max":704.984375,"ha":744,"o":"m 429 0 l 429 813 l 704 813 l 704 911 l 39 911 l 39 813 l 314 813 l 314 0 l 337 0 l 284 -104 b 373 -172 341 -118 373 -136 b 250 -239 373 -209 322 -229 l 261 -296 b 460 -168 365 -286 460 -248 b 378 -69 460 -111 424 -84 l 413 0 l 429 0 "},"₎":{"x_min":54.171875,"x_max":238.890625,"ha":329,"o":"m 54 -366 l 119 -397 b 238 -18 195 -284 238 -174 b 119 361 238 137 195 247 l 54 329 b 152 -18 125 220 152 105 b 54 -366 152 -141 125 -256 "},"₄":{"x_min":58.328125,"x_max":466.671875,"ha":510,"o":"m 151 -80 l 236 55 l 305 168 l 311 168 l 305 18 l 305 -80 l 151 -80 m 466 -80 l 386 -80 l 386 252 l 286 252 l 58 -98 l 58 -144 l 305 -144 l 305 -288 l 386 -288 l 386 -144 l 466 -144 l 466 -80 "},"´":{"x_min":286,"x_max":530,"ha":753,"o":"m 530 991 l 410 991 l 286 795 l 373 795 l 530 991 "},"ỏ":{"x_min":63.890625,"x_max":688.890625,"ha":753,"o":"m 63 336 b 376 -16 63 112 211 -16 b 688 336 541 -16 688 112 b 376 691 688 562 541 691 b 63 336 211 691 63 562 m 181 336 b 376 597 181 491 261 597 b 570 336 493 597 570 491 b 376 77 570 181 493 77 b 181 336 261 77 181 181 m 337 768 b 491 897 418 781 491 816 b 300 1009 491 968 420 1005 l 287 943 b 402 884 365 940 402 920 b 325 820 402 850 369 833 l 337 768 "},"Ĉ":{"x_min":72.21875,"x_max":748.609375,"ha":793,"o":"m 72 455 b 470 -16 72 158 241 -16 b 748 115 587 -16 676 31 l 683 186 b 473 84 625 120 561 84 b 191 458 301 84 191 229 b 479 826 191 684 305 826 b 661 741 555 826 613 793 l 726 815 b 477 927 673 875 587 927 b 72 455 244 927 72 748 m 362 980 l 455 1075 l 461 1075 l 554 980 l 647 980 l 513 1136 l 404 1136 l 270 980 l 362 980 "},"Ờ":{"x_min":75.265625,"x_max":854.4375,"ha":922,"o":"m 532 979 l 409 1135 l 279 1135 l 436 979 l 532 979 m 465 84 b 194 459 301 84 194 231 b 465 825 194 685 301 825 b 734 459 628 825 734 685 b 465 84 734 231 628 84 m 739 1032 b 758 975 750 1014 758 996 b 646 882 758 924 722 896 b 465 927 593 911 532 927 b 75 459 236 927 75 750 b 465 -17 75 166 236 -17 b 854 459 693 -17 854 166 b 711 836 854 625 800 756 b 853 982 797 857 853 903 b 821 1073 853 1017 839 1048 l 739 1032 "},"Ö":{"x_min":72.21875,"x_max":851.390625,"ha":922,"o":"m 461 -16 b 851 459 690 -16 851 166 b 461 927 851 750 690 927 b 72 459 231 927 72 751 b 461 -16 72 166 231 -16 m 461 84 b 191 459 298 84 191 231 b 461 826 191 686 298 826 b 730 459 623 826 730 686 b 461 84 730 231 623 84 m 341 993 b 409 1061 380 993 409 1022 b 341 1129 409 1101 380 1129 b 273 1061 301 1129 273 1101 b 341 993 273 1022 301 993 m 580 993 b 648 1061 620 993 648 1022 b 580 1129 648 1101 620 1129 b 512 1061 541 1129 512 1101 b 580 993 512 1022 541 993 "},"☑":{"x_min":102.78125,"x_max":1118.0625,"ha":1110,"o":"m 902 45 l 162 45 l 162 829 l 819 829 b 537 238 698 650 597 441 l 531 238 b 368 581 494 355 436 475 l 290 529 b 484 144 369 411 434 286 l 604 158 b 902 786 670 397 777 611 l 902 45 m 1044 1104 b 893 931 993 1052 941 995 l 187 931 l 102 861 l 102 -13 l 933 -13 l 1006 70 l 1006 919 b 1118 1034 1043 961 1080 1000 l 1044 1104 "},"ḏ":{"x_min":65.28125,"x_max":656.953125,"ha":771,"o":"m 65 336 b 344 -16 65 111 175 -16 b 548 79 423 -16 495 27 l 552 79 l 562 0 l 656 0 l 656 988 l 541 988 l 541 729 l 547 614 b 358 691 487 662 436 691 b 65 336 204 691 65 555 m 183 337 b 377 596 183 491 269 596 b 541 525 433 596 484 576 l 541 172 b 369 79 486 109 431 79 b 183 337 251 79 183 176 m 588 -156 l 247 -156 l 247 -237 l 588 -237 l 588 -156 "},"z":{"x_min":42.96875,"x_max":554.078125,"ha":590,"o":"m 42 0 l 554 0 l 554 93 l 187 93 l 542 613 l 542 675 l 81 675 l 81 581 l 398 581 l 42 61 l 42 0 "},"™":{"x_min":4.171875,"x_max":844.453125,"ha":885,"o":"m 430 508 l 511 508 l 511 698 l 501 844 l 506 844 l 606 575 l 669 575 l 768 844 l 773 844 l 765 698 l 765 508 l 844 508 l 844 938 l 741 938 l 679 783 l 641 673 l 636 673 l 598 783 l 534 938 l 430 938 l 430 508 m 141 508 l 225 508 l 225 863 l 363 863 l 363 938 l 4 938 l 4 863 l 141 863 l 141 508 "},"ặ":{"x_min":81.125,"x_max":609.71875,"ha":711,"o":"m 81 175 b 279 -16 81 54 165 -16 b 502 80 362 -16 437 27 l 505 80 l 515 0 l 609 0 l 609 413 b 375 691 609 581 540 691 b 110 604 267 691 172 644 l 156 525 b 357 597 208 561 278 597 b 495 427 466 597 495 513 b 81 175 208 395 81 322 m 193 183 b 495 352 193 269 269 325 l 495 165 b 311 75 430 106 376 75 b 193 183 244 75 193 106 m 373 798 b 550 975 493 798 543 893 l 477 975 b 373 869 470 920 439 869 b 269 975 308 869 276 920 l 199 975 b 373 798 204 893 254 798 m 351 -286 b 426 -211 394 -286 426 -255 b 351 -137 426 -168 394 -137 b 276 -211 308 -137 276 -168 b 351 -286 276 -255 308 -286 "},"Ř":{"x_min":124.78125,"x_max":755.328125,"ha":807,"o":"m 463 980 l 597 1136 l 503 1136 l 410 1041 l 405 1041 l 312 1136 l 219 1136 l 352 980 l 463 980 m 240 818 l 392 818 b 613 655 534 818 613 774 b 392 479 613 537 534 479 l 240 479 l 240 818 m 755 0 l 524 397 b 728 655 648 427 728 513 b 409 911 728 844 595 911 l 124 911 l 124 0 l 240 0 l 240 384 l 405 384 l 624 0 l 755 0 "},"Ň":{"x_min":125,"x_max":773.609375,"ha":899,"o":"m 125 0 l 234 0 l 234 476 b 219 761 234 572 226 669 l 225 761 l 323 573 l 654 0 l 773 0 l 773 911 l 663 911 l 663 440 b 677 150 663 344 672 241 l 672 150 l 573 338 l 244 911 l 125 911 l 125 0 m 548 1136 l 456 1041 l 451 1041 l 358 1136 l 265 1136 l 398 980 l 508 980 l 641 1136 l 548 1136 "},"ừ":{"x_min":103.734375,"x_max":767.625,"ha":756,"o":"m 459 795 l 332 991 l 214 991 l 371 795 l 459 795 m 653 825 b 673 766 664 806 673 787 b 556 675 673 704 621 681 l 527 675 l 527 195 b 345 81 463 116 414 81 b 219 262 256 81 219 136 l 219 675 l 103 675 l 103 247 b 310 -16 103 75 167 -16 b 532 105 403 -16 470 31 l 537 105 l 546 0 l 641 0 l 641 631 b 767 775 703 650 767 690 b 735 865 767 809 753 840 l 653 825 "},"Ợ":{"x_min":75.265625,"x_max":854.4375,"ha":922,"o":"m 461 -138 b 386 -211 418 -138 386 -168 b 461 -286 386 -256 418 -286 b 536 -211 504 -286 536 -256 b 461 -138 536 -168 504 -138 m 465 84 b 194 459 301 84 194 231 b 465 825 194 685 301 825 b 734 459 628 825 734 685 b 465 84 734 231 628 84 m 739 1032 b 758 975 750 1014 758 996 b 646 882 758 924 722 896 b 465 927 593 911 532 927 b 75 459 236 927 75 750 b 465 -17 75 166 236 -17 b 854 459 693 -17 854 166 b 711 836 854 625 800 756 b 853 982 797 857 853 903 b 821 1073 853 1017 839 1048 l 739 1032 "},"É":{"x_min":125,"x_max":663.890625,"ha":732,"o":"m 125 0 l 663 0 l 663 98 l 240 98 l 240 429 l 586 429 l 586 527 l 240 527 l 240 813 l 650 813 l 650 911 l 125 911 l 125 0 m 576 1136 l 445 1136 l 323 980 l 419 980 l 576 1136 "},"ṅ":{"x_min":113.890625,"x_max":654.171875,"ha":760,"o":"m 113 0 l 227 0 l 227 488 b 412 593 295 556 343 593 b 540 412 501 593 540 538 l 540 0 l 654 0 l 654 427 b 448 691 654 600 590 691 b 222 577 355 691 286 641 l 218 577 l 208 675 l 113 675 l 113 0 m 405 813 b 480 888 448 813 480 844 b 405 963 480 931 448 963 b 330 888 362 963 330 931 b 405 813 330 844 362 813 "},"³":{"x_min":48.609375,"x_max":443.0625,"ha":510,"o":"m 48 700 b 250 594 90 638 162 594 b 443 756 355 594 443 656 b 326 890 443 829 387 875 b 420 1023 381 916 420 959 b 248 1169 420 1115 341 1169 b 70 1080 173 1169 118 1134 l 125 1033 b 234 1098 155 1070 194 1098 b 333 1012 294 1098 333 1063 b 186 915 333 956 279 915 l 186 858 b 354 762 291 858 354 825 b 245 665 354 700 304 665 b 108 745 188 665 141 695 l 48 700 "},"[":{"x_min":130.5625,"x_max":379.171875,"ha":421,"o":"m 130 -211 l 379 -211 l 379 -145 l 216 -145 l 216 918 l 379 918 l 379 983 l 130 983 l 130 -211 "},"‖":{"x_min":127.78125,"x_max":413.890625,"ha":542,"o":"m 127 -347 l 208 -347 l 208 1041 l 127 1041 l 127 -347 m 333 -347 l 413 -347 l 413 1041 l 333 1041 l 333 -347 "},"Ḗ":{"x_min":125.4375,"x_max":664.328125,"ha":732,"o":"m 125 0 l 664 0 l 664 98 l 240 98 l 240 429 l 586 429 l 586 527 l 240 527 l 240 813 l 650 813 l 650 911 l 125 911 l 125 0 m 321 1165 l 415 1165 l 571 1319 l 446 1319 l 321 1165 m 219 1012 l 564 1012 l 564 1091 l 219 1091 l 219 1012 "},"∏":{"x_min":123.609375,"x_max":812.5,"ha":935,"o":"m 123 -166 l 238 -166 l 238 784 l 694 784 l 694 -166 l 812 -166 l 812 886 l 123 886 l 123 -166 "},"Ḥ":{"x_min":125,"x_max":780.5625,"ha":906,"o":"m 125 0 l 240 0 l 240 429 l 663 429 l 663 0 l 780 0 l 780 911 l 663 911 l 663 529 l 240 529 l 240 911 l 125 911 l 125 0 m 451 -286 b 527 -211 495 -286 527 -255 b 451 -137 527 -168 495 -137 b 376 -211 408 -137 376 -168 b 451 -286 376 -255 408 -286 "},"ḥ":{"x_min":113.890625,"x_max":654.171875,"ha":756,"o":"m 113 0 l 227 0 l 227 488 b 412 593 295 556 343 593 b 540 412 501 593 540 538 l 540 0 l 654 0 l 654 427 b 448 691 654 600 590 691 b 223 580 355 691 287 641 l 227 719 l 227 988 l 113 988 l 113 0 m 397 -286 b 472 -211 440 -286 472 -255 b 397 -137 472 -168 440 -137 b 322 -211 354 -137 322 -168 b 397 -286 322 -255 354 -286 "},"ˋ":{"x_min":-0.4375,"x_max":244,"ha":313,"o":"m 156 795 l 244 795 l 119 991 l 0 991 l 156 795 "},"ğ":{"x_min":62.5625,"x_max":683.53125,"ha":700,"o":"m 162 -113 b 232 0 162 -75 183 -34 b 319 -11 261 -8 293 -11 l 436 -11 b 572 -94 523 -11 572 -31 b 358 -231 572 -165 487 -231 b 162 -113 236 -231 162 -186 m 62 -129 b 342 -311 62 -245 176 -311 b 683 -77 551 -311 683 -202 b 447 83 683 34 604 83 l 316 83 b 197 156 225 83 197 113 b 240 237 197 194 216 216 b 342 213 271 222 308 213 b 589 448 479 213 589 304 b 533 587 589 505 565 556 l 672 587 l 672 675 l 438 675 b 342 691 413 684 379 691 b 87 451 204 691 87 598 b 175 269 87 370 130 305 l 175 263 b 101 138 140 240 101 195 b 161 29 101 86 127 50 l 161 23 b 62 -129 100 -18 62 -72 m 342 290 b 198 451 264 290 198 352 b 342 608 198 549 262 608 b 485 451 421 608 485 549 b 342 290 485 352 419 290 m 333 798 b 509 975 451 798 502 893 l 438 975 b 333 869 431 920 397 869 b 227 975 268 869 236 920 l 157 975 b 333 798 163 893 214 798 "},"Ở":{"x_min":75.265625,"x_max":854.4375,"ha":922,"o":"m 422 968 b 576 1098 503 982 576 1017 b 384 1210 576 1168 505 1206 l 372 1143 b 487 1085 450 1141 487 1121 b 409 1021 487 1050 454 1034 l 422 968 m 465 84 b 194 459 301 84 194 231 b 465 825 194 685 301 825 b 734 459 628 825 734 685 b 465 84 734 231 628 84 m 739 1032 b 758 975 750 1014 758 996 b 646 882 758 924 722 896 b 465 927 593 911 532 927 b 75 459 236 927 75 750 b 465 -17 75 166 236 -17 b 854 459 693 -17 854 166 b 711 836 854 625 800 756 b 853 982 797 857 853 903 b 821 1073 853 1017 839 1048 l 739 1032 "},"ª":{"x_min":51.046875,"x_max":413.546875,"ha":479,"o":"m 188 358 b 328 420 245 358 291 387 l 334 420 l 344 369 l 413 369 l 413 641 b 253 827 413 759 364 827 b 69 768 181 827 114 797 l 101 709 b 241 756 138 733 192 756 b 327 654 306 756 326 713 b 51 490 135 636 51 587 b 188 358 51 411 106 358 m 213 427 b 135 497 166 427 135 448 b 327 601 135 548 184 584 l 327 483 b 213 427 287 445 251 427 "},"ﬀ":{"x_min":41.671875,"x_max":837.5,"ha":797,"o":"m 837 983 b 725 1005 806 995 766 1005 b 527 781 590 1005 527 919 l 527 675 l 247 675 l 247 761 b 352 898 247 850 286 898 b 443 880 386 898 413 893 l 466 966 b 343 991 433 981 387 991 b 133 763 202 991 133 904 l 133 675 l 41 668 l 41 581 l 133 581 l 133 0 l 247 0 l 247 581 l 527 581 l 527 0 l 641 0 l 641 581 l 784 581 l 784 675 l 641 675 l 641 781 b 737 912 641 868 673 912 b 813 895 761 912 787 906 l 837 983 "},"T":{"x_min":38.890625,"x_max":705.5625,"ha":744,"o":"m 313 0 l 430 0 l 430 813 l 705 813 l 705 911 l 38 911 l 38 813 l 313 813 l 313 0 "},"ᵖ":{"x_min":72.21875,"x_max":473.609375,"ha":519,"o":"m 72 178 l 158 178 l 158 323 l 152 409 b 279 358 190 377 238 358 b 473 601 381 358 473 447 b 293 827 473 738 409 827 b 154 765 238 827 190 797 l 150 765 l 140 816 l 72 816 l 72 178 m 158 473 l 158 697 b 272 755 197 735 236 755 b 384 601 350 755 384 697 b 266 428 384 491 333 428 b 158 473 234 428 194 441 "},"š":{"x_min":39.265625,"x_max":537.9375,"ha":582,"o":"m 39 76 b 290 -16 103 23 194 -16 b 537 184 450 -16 537 75 b 332 388 537 312 429 352 b 182 505 255 418 182 441 b 305 602 182 556 221 602 b 460 543 365 602 414 577 l 514 615 b 304 691 462 656 389 691 b 72 500 158 691 72 608 b 273 305 72 386 178 340 b 428 177 347 277 428 247 b 294 72 428 119 383 72 b 96 152 214 72 154 105 l 39 76 m 258 795 l 353 795 l 483 991 l 401 991 l 308 863 l 303 863 l 210 991 l 126 991 l 258 795 "},"Þ":{"x_min":125,"x_max":740.28125,"ha":810,"o":"m 125 0 l 240 0 l 240 208 l 404 208 b 740 490 604 208 740 297 b 404 758 740 688 605 758 l 240 758 l 240 911 l 125 911 l 125 0 m 240 302 l 240 663 l 390 663 b 625 490 547 663 625 620 b 390 302 625 359 548 302 l 240 302 "},"✓":{"x_min":0,"x_max":856,"ha":850,"o":"m 329 -13 b 856 880 434 361 636 676 l 780 950 b 266 66 562 736 365 395 l 261 66 b 77 434 218 190 154 319 l 0 381 b 209 -27 87 255 154 125 l 329 -13 "},"j":{"x_min":-55.5625,"x_max":251.390625,"ha":343,"o":"m 115 -76 b 31 -208 115 -158 98 -208 b -31 -197 8 -208 -15 -202 l -55 -283 b 44 -301 -31 -293 2 -301 b 229 -76 179 -301 229 -213 l 229 675 l 115 675 l 115 -76 m 173 813 b 251 887 216 813 251 844 b 173 961 251 931 216 961 b 94 887 129 961 94 931 b 173 813 94 844 129 813 "},"1":{"x_min":109.71875,"x_max":609.71875,"ha":690,"o":"m 109 0 l 609 0 l 609 94 l 426 94 l 426 886 l 338 886 b 151 820 290 856 231 834 l 151 747 l 312 747 l 312 94 l 109 94 l 109 0 "},"ℓ":{"x_min":29.171875,"x_max":558.328125,"ha":568,"o":"m 261 718 b 354 912 261 852 304 912 b 434 784 400 912 434 876 b 261 426 434 655 369 536 l 261 718 m 512 141 b 384 80 479 109 441 80 b 261 258 316 80 261 129 l 261 306 b 531 784 430 450 531 611 b 351 1000 531 923 456 1000 b 148 698 236 1000 148 913 l 148 327 b 29 243 111 298 70 270 l 75 170 b 148 220 100 187 125 204 b 369 -16 156 63 254 -16 b 558 70 450 -16 511 27 l 512 141 "},"ᵈ":{"x_min":45.828125,"x_max":447.21875,"ha":519,"o":"m 236 358 b 363 418 287 358 327 386 l 368 418 l 377 369 l 447 369 l 447 1020 l 361 1020 l 361 854 l 365 777 b 240 827 327 808 288 827 b 45 601 140 827 45 740 b 236 358 45 447 118 358 m 255 429 b 134 601 173 429 134 491 b 254 757 134 694 188 757 b 361 712 287 757 323 744 l 361 487 b 255 429 323 450 291 429 "},"Ǜ":{"x_min":120.546875,"x_max":774.71875,"ha":896,"o":"m 120 376 b 448 -16 120 83 262 -16 b 774 376 634 -16 774 83 l 774 911 l 663 911 l 663 373 b 448 84 663 154 569 84 b 235 373 328 84 235 154 l 235 911 l 120 911 l 120 376 m 394 1319 l 269 1319 l 424 1165 l 519 1165 l 394 1319 m 567 993 b 630 1056 603 993 630 1019 b 567 1119 630 1093 603 1119 b 505 1056 531 1119 505 1093 b 567 993 505 1019 531 993 m 327 993 b 391 1056 364 993 391 1019 b 327 1119 391 1093 364 1119 b 264 1056 291 1119 264 1093 b 327 993 264 1019 291 993 "},"ǒ":{"x_min":63.890625,"x_max":688.890625,"ha":753,"o":"m 63 336 b 376 -16 63 112 211 -16 b 688 336 541 -16 688 112 b 376 691 688 562 541 691 b 63 336 211 691 63 562 m 181 336 b 376 597 181 491 261 597 b 570 336 493 597 570 491 b 376 77 570 181 493 77 b 181 336 261 77 181 181 m 329 795 l 423 795 l 555 991 l 472 991 l 379 863 l 373 863 l 280 991 l 198 991 l 329 795 "},"ĉ":{"x_min":63.890625,"x_max":600,"ha":633,"o":"m 63 336 b 380 -16 63 112 201 -16 b 600 70 461 -16 538 16 l 548 145 b 390 77 508 109 454 77 b 181 336 266 77 181 181 b 393 597 181 491 270 597 b 529 537 447 597 488 572 l 586 611 b 388 691 540 654 477 691 b 63 336 215 691 63 562 m 208 795 l 291 795 l 384 922 l 390 922 l 483 795 l 565 795 l 433 991 l 340 991 l 208 795 "},"ᵇ":{"x_min":72.21875,"x_max":473.609375,"ha":519,"o":"m 72 369 l 138 369 l 147 415 l 152 415 b 279 358 190 378 237 358 b 473 601 381 358 473 447 b 293 828 473 739 409 828 b 154 765 241 828 195 800 l 158 846 l 158 1021 l 72 1021 l 72 369 m 158 474 l 158 697 b 272 755 197 736 236 755 b 384 601 350 755 384 697 b 266 429 384 492 333 429 b 158 474 234 429 194 442 "},"ī":{"x_min":1.390625,"x_max":341.671875,"ha":342,"o":"m 113 0 l 227 0 l 227 675 l 113 675 l 113 0 m 1 834 l 341 834 l 341 913 l 1 913 l 1 834 "},"Ď":{"x_min":124.71875,"x_max":783.046875,"ha":854,"o":"m 124 0 l 358 0 b 783 459 633 0 783 169 b 352 911 783 748 633 911 l 124 911 l 124 0 m 240 94 l 240 816 l 344 816 b 663 459 556 816 663 688 b 344 94 663 229 556 94 l 240 94 m 523 1136 l 430 1041 l 424 1041 l 331 1136 l 238 1136 l 371 980 l 483 980 l 616 1136 l 523 1136 "},"&":{"x_min":44.78125,"x_max":824.859375,"ha":846,"o":"m 155 243 b 269 419 155 313 205 368 b 508 148 333 322 419 226 b 334 75 455 102 397 75 b 155 243 234 75 155 141 m 262 713 b 375 845 262 788 307 845 b 461 745 436 845 461 798 b 305 554 461 665 388 609 b 262 713 279 609 262 663 m 824 77 b 654 165 774 91 716 122 b 813 491 726 261 777 372 l 706 491 b 579 222 679 387 634 297 b 348 477 493 294 408 384 b 554 747 449 551 554 627 b 375 927 554 854 487 927 b 164 712 248 927 164 833 b 223 498 164 645 186 573 b 44 236 130 434 44 358 b 322 -16 44 88 157 -16 b 584 87 429 -16 515 25 b 794 -16 658 36 730 1 l 824 77 "},"G":{"x_min":72.28125,"x_max":763.953125,"ha":857,"o":"m 72 455 b 482 -16 72 158 243 -16 b 763 88 604 -16 704 27 l 763 472 l 465 472 l 465 376 l 658 376 l 658 138 b 494 84 622 105 559 84 b 191 458 300 84 191 229 b 493 826 191 684 309 826 b 687 741 584 826 641 790 l 752 815 b 491 927 700 870 616 927 b 72 455 248 927 72 748 "},"ʲ":{"x_min":-36.109375,"x_max":177.78125,"ha":235,"o":"m 31 169 b 161 329 125 169 161 229 l 161 816 l 75 816 l 75 323 b 20 240 75 269 63 240 b -18 247 2 240 -6 243 l -36 180 b 31 169 -15 172 1 169 m 119 902 b 177 956 152 902 177 926 b 119 1011 177 988 152 1011 b 61 956 86 1011 61 988 b 119 902 61 926 86 902 "},"`":{"x_min":221.5625,"x_max":466,"ha":753,"o":"m 378 795 l 466 795 l 341 991 l 221 991 l 378 795 "},"ỗ":{"x_min":64.0625,"x_max":688.5625,"ha":753,"o":"m 64 336 b 376 -16 64 112 211 -16 b 688 336 541 -16 688 112 b 376 691 688 562 541 691 b 64 336 211 691 64 562 m 182 336 b 376 597 182 491 261 597 b 570 336 492 597 570 491 b 376 77 570 181 492 77 b 182 336 261 77 182 181 m 204 793 l 284 793 l 373 883 l 379 883 l 467 793 l 549 793 l 429 937 l 325 937 l 204 793 m 252 987 b 306 1047 259 1027 280 1047 b 448 987 352 1047 379 987 b 558 1113 512 987 551 1040 l 499 1113 b 445 1054 492 1073 473 1054 b 304 1113 401 1054 373 1113 b 196 987 240 1113 202 1061 l 252 987 "},"Ễ":{"x_min":124.78125,"x_max":663.109375,"ha":732,"o":"m 124 0 l 663 0 l 663 98 l 240 98 l 240 429 l 585 429 l 585 527 l 240 527 l 240 813 l 649 813 l 649 911 l 124 911 l 124 0 m 216 980 l 303 980 l 391 1066 l 396 1066 l 484 980 l 572 980 l 443 1127 l 344 1127 l 216 980 m 270 1175 b 324 1237 276 1215 296 1237 b 467 1175 369 1237 400 1175 b 577 1304 531 1175 570 1231 l 518 1304 b 463 1241 511 1265 491 1241 b 320 1304 418 1241 387 1304 b 210 1175 256 1304 217 1248 l 270 1175 "},"ˣ":{"x_min":11,"x_max":414,"ha":426,"o":"m 11 369 l 102 369 l 159 466 l 205 543 l 211 543 l 259 466 l 319 369 l 414 369 l 268 594 l 404 816 l 312 816 l 261 725 l 223 654 l 218 654 l 174 725 l 118 816 l 23 816 l 161 604 l 11 369 "},"ằ":{"x_min":81.125,"x_max":609.9375,"ha":711,"o":"m 81 175 b 279 -16 81 54 165 -16 b 503 80 362 -16 437 27 l 505 80 l 515 0 l 609 0 l 609 413 b 375 691 609 581 540 691 b 110 604 267 691 172 644 l 156 525 b 357 597 208 561 278 597 b 496 427 466 597 496 513 b 81 175 208 395 81 322 m 193 183 b 496 352 193 269 269 325 l 496 165 b 311 75 430 106 376 75 b 193 183 244 75 193 106 m 332 1095 l 236 1095 l 358 940 l 426 940 l 332 1095 m 373 798 b 550 975 493 798 543 893 l 489 975 b 373 863 480 918 444 863 b 260 975 303 863 268 918 l 199 975 b 373 798 204 893 254 798 "},"ŏ":{"x_min":63.890625,"x_max":688.890625,"ha":753,"o":"m 63 336 b 376 -16 63 112 211 -16 b 688 336 541 -16 688 112 b 376 691 688 562 541 691 b 63 336 211 691 63 562 m 181 336 b 376 597 181 491 261 597 b 570 336 493 597 570 491 b 376 77 570 181 493 77 b 181 336 261 77 181 181 m 376 798 b 551 975 495 798 545 893 l 480 975 b 376 869 473 920 441 869 b 272 975 311 869 279 920 l 201 975 b 376 798 206 893 256 798 "},"Ả":{"x_min":4.171875,"x_max":751.390625,"ha":756,"o":"m 336 969 b 490 1098 416 983 490 1018 b 298 1211 490 1169 419 1206 l 286 1144 b 401 1086 363 1141 401 1122 b 323 1022 401 1051 368 1034 l 336 969 m 238 370 l 281 509 b 372 816 315 611 344 711 l 377 816 b 469 509 406 711 436 611 l 512 370 l 238 370 m 627 0 l 751 0 l 443 911 l 312 911 l 4 0 l 122 0 l 209 277 l 541 277 l 627 0 "},"ý":{"x_min":17,"x_max":632,"ha":649,"o":"m 68 -186 l 46 -276 b 125 -290 68 -284 94 -290 b 377 -55 261 -290 330 -188 l 632 675 l 520 675 l 400 301 b 343 111 382 241 362 172 l 337 111 b 272 301 316 173 293 243 l 135 675 l 17 675 l 287 -1 l 272 -51 b 119 -195 244 -134 196 -195 b 68 -186 103 -195 82 -190 m 491 991 l 372 991 l 247 795 l 334 795 l 491 991 "},"º":{"x_min":41.671875,"x_max":463.890625,"ha":507,"o":"m 252 358 b 463 593 366 358 463 445 b 252 827 463 741 366 827 b 41 593 137 827 41 741 b 252 358 41 445 137 358 m 252 429 b 129 593 176 429 129 495 b 252 756 129 691 176 756 b 375 593 329 756 375 691 b 252 429 375 495 329 429 "},"❒":{"x_min":75,"x_max":447.21875,"ha":522,"o":"m 127 219 l 127 448 l 347 448 l 347 219 l 127 219 m 75 169 l 379 169 l 447 250 l 447 548 l 156 548 l 75 480 l 75 169 "},"∞":{"x_min":55.5625,"x_max":1030.5625,"ha":1086,"o":"m 265 230 b 505 373 380 230 456 318 l 511 373 b 791 204 594 269 673 204 b 1030 466 929 204 1030 308 b 793 709 1030 608 930 709 b 523 541 675 709 588 629 l 518 541 b 281 687 468 608 394 687 b 55 450 152 687 55 597 b 265 230 55 329 150 230 m 565 472 b 781 620 633 568 702 620 b 940 462 881 620 940 555 b 793 312 940 381 886 312 b 565 472 706 312 643 369 m 276 318 b 144 454 202 318 144 376 b 273 577 144 531 198 577 b 462 445 344 577 404 525 b 276 318 415 375 352 318 "},"ź":{"x_min":42.96875,"x_max":554.015625,"ha":590,"o":"m 42 0 l 554 0 l 554 93 l 187 93 l 542 613 l 542 675 l 81 675 l 81 581 l 398 581 l 42 61 l 42 0 m 472 991 l 352 991 l 226 795 l 315 795 l 472 991 "},"Ư":{"x_min":120.828125,"x_max":927.78125,"ha":915,"o":"m 813 1061 b 834 1004 826 1043 834 1025 b 709 911 834 940 786 918 l 663 911 l 663 373 b 448 84 663 154 569 84 b 236 373 329 84 236 154 l 236 911 l 120 911 l 120 376 b 448 -16 120 83 262 -16 b 775 376 634 -16 775 83 l 775 861 b 927 1011 856 879 927 919 b 895 1101 927 1045 915 1076 l 813 1061 "},"ń":{"x_min":113.640625,"x_max":653.90625,"ha":760,"o":"m 113 0 l 227 0 l 227 488 b 412 593 295 556 342 593 b 540 412 501 593 540 538 l 540 0 l 653 0 l 653 427 b 448 691 653 600 590 691 b 221 577 355 691 285 641 l 217 577 l 208 675 l 113 675 l 113 0 m 559 991 l 440 991 l 315 795 l 402 795 l 559 991 "},"Ḵ":{"x_min":124.8125,"x_max":798.421875,"ha":804,"o":"m 124 0 l 240 0 l 240 288 l 397 473 l 669 0 l 798 0 l 469 563 l 753 911 l 623 911 l 244 454 l 240 454 l 240 911 l 124 911 l 124 0 m 622 -156 l 278 -156 l 278 -237 l 622 -237 l 622 -156 "},"ḹ":{"x_min":-0.109375,"x_max":340.171875,"ha":354,"o":"m 113 136 b 234 -16 113 37 148 -16 b 299 -5 265 -16 284 -12 l 284 80 b 259 77 272 77 266 77 b 227 127 242 77 227 91 l 227 988 l 113 988 l 113 136 m 0 1140 l 340 1140 l 340 1220 l 0 1220 l 0 1140 m 236 -286 b 311 -211 279 -286 311 -255 b 236 -137 311 -168 279 -137 b 161 -211 192 -137 161 -168 b 236 -286 161 -255 192 -286 "},"¤":{"x_min":36.3125,"x_max":654.671875,"ha":690,"o":"m 97 143 l 191 238 b 346 186 235 204 289 186 b 499 238 400 186 455 204 l 593 143 l 654 205 l 564 295 b 615 457 596 338 615 393 b 564 619 615 520 596 576 l 654 711 l 593 773 l 499 676 b 346 727 455 709 400 727 b 191 676 289 727 235 709 l 97 773 l 36 711 l 125 619 b 75 457 93 576 75 520 b 125 295 75 393 93 338 l 36 205 l 97 143 m 180 457 b 346 643 180 568 255 643 b 510 457 435 643 510 568 b 346 270 510 345 435 270 b 180 457 255 270 180 345 "},"Ĝ":{"x_min":71.984375,"x_max":763.953125,"ha":857,"o":"m 71 455 b 481 -16 71 158 242 -16 b 763 88 604 -16 704 27 l 763 472 l 465 472 l 465 376 l 658 376 l 658 138 b 494 84 621 105 559 84 b 191 458 299 84 191 229 b 492 826 191 684 309 826 b 687 741 584 826 641 790 l 752 815 b 491 927 700 870 616 927 b 71 455 248 927 71 748 m 395 980 l 488 1075 l 494 1075 l 587 980 l 678 980 l 545 1136 l 435 1136 l 302 980 l 395 980 "},"p":{"x_min":113.890625,"x_max":704.171875,"ha":771,"o":"m 225 60 b 412 -16 287 12 350 -16 b 704 347 566 -16 704 117 b 437 691 704 556 611 691 b 222 597 358 691 283 648 l 218 597 l 208 675 l 113 675 l 113 -284 l 227 -284 l 227 -57 l 225 60 m 227 149 l 227 504 b 408 595 294 563 351 595 b 586 347 536 595 586 495 b 393 78 586 180 504 78 b 227 149 348 78 288 98 "},"S":{"x_min":57.84375,"x_max":687.015625,"ha":742,"o":"m 57 118 b 377 -16 137 36 249 -16 b 687 243 568 -16 687 98 b 499 486 687 377 605 440 l 370 541 b 218 693 298 572 218 605 b 388 826 218 775 287 826 b 595 740 473 826 539 793 l 657 815 b 388 927 592 881 496 927 b 102 686 223 927 102 825 b 287 451 102 552 200 487 l 417 394 b 568 233 503 355 568 326 b 378 84 568 144 498 84 b 127 198 284 84 192 130 l 57 118 "},"ễ":{"x_min":63.890625,"x_max":636,"ha":689,"o":"m 63 336 b 387 -16 63 115 206 -16 b 609 52 479 -16 551 15 l 569 127 b 401 75 519 95 465 75 b 176 312 272 75 184 166 l 631 312 b 636 375 634 329 636 351 b 366 691 636 568 538 691 b 63 336 212 691 63 556 m 175 387 b 369 601 188 523 274 601 b 536 387 474 601 536 525 l 175 387 m 194 793 l 274 793 l 363 883 l 369 883 l 459 793 l 540 793 l 419 937 l 315 937 l 194 793 m 244 987 b 298 1047 249 1027 270 1047 b 440 987 342 1047 369 987 b 548 1113 503 987 541 1040 l 490 1113 b 435 1054 484 1073 463 1054 b 294 1113 391 1054 363 1113 b 186 987 230 1113 192 1061 l 244 987 "},"/":{"x_min":14,"x_max":468,"ha":486,"o":"m 14 -222 l 97 -222 l 468 986 l 384 986 l 14 -222 "},"ₔ":{"x_min":34.84375,"x_max":426.5,"ha":467,"o":"m 222 358 b 426 593 336 358 426 450 b 216 827 426 741 344 827 b 66 779 157 827 108 805 l 98 723 b 211 759 132 744 166 759 b 341 618 294 759 337 702 l 40 618 b 34 569 36 597 34 588 b 222 358 34 476 80 358 m 220 427 b 111 562 141 427 111 487 l 341 562 b 220 427 336 472 289 427 "},"Ọ":{"x_min":72.21875,"x_max":851.390625,"ha":922,"o":"m 461 -16 b 851 459 690 -16 851 166 b 461 927 851 750 690 927 b 72 459 231 927 72 751 b 461 -16 72 166 231 -16 m 461 84 b 191 459 298 84 191 231 b 461 826 191 686 298 826 b 730 459 623 826 730 686 b 461 84 730 231 623 84 m 461 -286 b 536 -211 504 -286 536 -255 b 461 -137 536 -168 504 -137 b 386 -211 418 -137 386 -168 b 461 -286 386 -255 418 -286 "},"̨":{"x_min":-91.671875,"x_max":143.0625,"ha":0,"o":"m -91 -168 b 33 -286 -91 -245 -36 -286 b 143 -248 68 -286 116 -269 l 112 -191 b 56 -209 97 -202 79 -209 b -6 -145 23 -209 -6 -188 b 87 4 -6 -91 27 -40 l 6 4 b -91 -168 -38 -30 -91 -93 "},"̋":{"x_min":-136,"x_max":267,"ha":0,"o":"m -136 793 l -59 793 l 62 991 l -38 991 l -136 793 m 68 793 l 144 793 l 267 991 l 166 991 l 68 793 "},"y":{"x_min":17,"x_max":632,"ha":649,"o":"m 68 -186 l 46 -276 b 125 -290 68 -284 94 -290 b 377 -55 261 -290 330 -188 l 632 675 l 520 675 l 400 301 b 343 111 382 241 362 172 l 337 111 b 272 301 316 173 293 243 l 135 675 l 17 675 l 287 -1 l 272 -51 b 119 -195 244 -134 196 -195 b 68 -186 103 -195 82 -190 "},"ˊ":{"x_min":64,"x_max":308,"ha":313,"o":"m 308 991 l 188 991 l 64 795 l 151 795 l 308 991 "},"–":{"x_min":56.9375,"x_max":609.71875,"ha":667,"o":"m 56 309 l 609 309 l 609 388 l 56 388 l 56 309 "},"ë":{"x_min":63.890625,"x_max":636,"ha":689,"o":"m 63 336 b 387 -16 63 115 206 -16 b 609 52 479 -16 551 15 l 569 127 b 401 75 519 95 465 75 b 176 312 272 75 184 166 l 631 312 b 636 375 634 329 636 351 b 366 691 636 568 538 691 b 63 336 212 691 63 556 m 175 387 b 369 601 188 523 274 601 b 536 387 474 601 536 525 l 175 387 m 247 816 b 315 884 286 816 315 845 b 247 952 315 923 286 952 b 179 884 208 952 179 923 b 247 816 179 845 208 816 m 487 816 b 555 884 526 816 555 845 b 487 952 555 923 526 952 b 419 884 447 952 419 923 b 487 816 419 845 447 816 "},"ƒ":{"x_min":25.0625,"x_max":641.734375,"ha":690,"o":"m 641 902 b 533 927 615 915 573 927 b 300 644 384 927 320 829 l 291 566 l 257 566 l 161 561 l 161 479 l 282 479 l 248 175 b 115 -41 233 33 201 -41 b 45 -27 90 -41 68 -37 l 25 -113 b 126 -134 47 -126 83 -134 b 355 150 280 -134 336 -19 l 391 479 l 576 479 l 576 566 l 401 566 l 411 654 b 538 834 422 748 455 834 b 616 815 573 834 597 823 l 641 902 "},"⁽":{"x_min":90.28125,"x_max":275,"ha":329,"o":"m 212 501 l 275 531 b 176 881 204 642 176 757 b 275 1228 176 1003 204 1120 l 212 1259 b 90 881 133 1146 90 1036 b 212 501 90 724 133 613 "},"Ẏ":{"x_min":-1.390625,"x_max":662.5,"ha":661,"o":"m 272 0 l 388 0 l 388 352 l 662 911 l 541 911 l 425 654 b 333 455 397 587 365 523 l 327 455 b 240 654 297 523 269 587 l 122 911 l -1 911 l 272 352 l 272 0 m 330 991 b 409 1066 375 991 409 1022 b 330 1140 409 1109 375 1140 b 251 1066 286 1140 251 1109 b 330 991 251 1022 286 991 "},"J":{"x_min":43.0625,"x_max":545.828125,"ha":667,"o":"m 43 129 b 294 -16 95 33 179 -16 b 545 268 472 -16 545 111 l 545 911 l 429 911 l 429 279 b 283 84 429 140 380 84 b 126 187 218 84 166 115 l 43 129 "},"ŷ":{"x_min":17,"x_max":632,"ha":649,"o":"m 68 -186 l 46 -276 b 125 -290 68 -284 94 -290 b 377 -55 261 -290 330 -188 l 632 675 l 520 675 l 400 301 b 343 111 382 241 362 172 l 337 111 b 272 301 316 173 293 243 l 135 675 l 17 675 l 287 -1 l 272 -51 b 119 -195 244 -134 196 -195 b 68 -186 103 -195 82 -190 m 159 795 l 241 795 l 334 922 l 340 922 l 433 795 l 516 795 l 384 991 l 290 991 l 159 795 "},"ŕ":{"x_min":114.09375,"x_max":486.3125,"ha":482,"o":"m 114 0 l 227 0 l 227 433 b 398 588 273 547 341 588 b 464 577 426 588 441 584 l 486 677 b 414 691 464 687 443 691 b 222 552 337 691 268 637 l 218 552 l 208 675 l 114 675 l 114 0 m 455 991 l 337 991 l 211 795 l 300 795 l 455 991 "},"ṝ":{"x_min":94.4375,"x_max":486.109375,"ha":482,"o":"m 113 0 l 227 0 l 227 433 b 398 588 273 547 341 588 b 463 577 426 588 441 584 l 486 677 b 413 691 463 687 443 691 b 222 552 337 691 268 637 l 218 552 l 208 675 l 113 675 l 113 0 m 131 834 l 472 834 l 472 913 l 131 913 l 131 834 m 169 -286 b 244 -211 212 -286 244 -255 b 169 -137 244 -168 212 -137 b 94 -211 126 -137 94 -168 b 169 -286 94 -255 126 -286 "},"˘":{"x_min":201.390625,"x_max":551.390625,"ha":753,"o":"m 376 798 b 551 975 495 798 545 893 l 480 975 b 376 869 473 920 441 869 b 272 975 311 869 279 920 l 201 975 b 376 798 206 893 256 798 "},"↑":{"x_min":58.328125,"x_max":801.390625,"ha":860,"o":"m 426 731 l 58 354 l 122 295 l 381 574 l 381 -34 l 476 -34 l 476 574 l 736 295 l 801 354 l 431 731 l 426 731 "},"ʸ":{"x_min":11,"x_max":432,"ha":443,"o":"m 51 261 l 33 191 b 90 183 49 186 67 183 b 266 344 184 183 233 251 l 432 816 l 347 816 l 275 581 b 234 452 261 538 247 497 l 229 452 b 186 581 215 498 199 541 l 98 816 l 11 816 l 193 372 l 183 344 b 84 254 166 291 133 254 b 51 261 73 254 63 255 "},"D":{"x_min":125,"x_max":783.328125,"ha":854,"o":"m 125 0 l 358 0 b 783 459 633 0 783 169 b 352 911 783 748 633 911 l 125 911 l 125 0 m 240 94 l 240 816 l 344 816 b 663 459 556 816 663 688 b 344 94 663 229 556 94 l 240 94 "},"ĺ":{"x_min":94.4375,"x_max":347.21875,"ha":354,"o":"m 113 136 b 234 -16 113 37 148 -16 b 300 -5 265 -16 284 -12 l 284 80 b 259 77 272 77 266 77 b 227 127 243 77 227 91 l 227 988 l 113 988 l 113 136 m 347 1208 l 216 1208 l 94 1054 l 190 1054 l 347 1208 "},"ł":{"x_min":31.9375,"x_max":331.9375,"ha":364,"o":"m 331 581 l 331 679 l 234 616 l 234 988 l 119 988 l 119 556 l 31 501 l 31 404 l 119 459 l 119 135 b 240 -16 119 37 155 -16 b 306 -5 270 -16 290 -12 l 291 80 b 266 77 277 77 272 77 b 234 127 250 77 234 91 l 234 519 l 331 581 "},"$":{"x_min":72.1875,"x_max":606.921875,"ha":690,"o":"m 588 795 b 391 901 538 848 480 891 l 391 1038 l 308 1038 l 308 900 b 106 668 187 880 106 791 b 494 220 106 397 494 445 b 340 77 494 134 443 77 b 124 170 255 77 184 119 l 72 91 b 308 -15 130 37 219 -6 l 308 -152 l 391 -152 l 391 -12 b 606 229 523 5 606 97 b 219 673 606 527 219 472 b 358 806 219 754 273 806 b 527 727 433 806 476 777 l 588 795 "},"w":{"x_min":33.4375,"x_max":964,"ha":997,"o":"m 220 0 l 354 0 l 448 361 b 495 556 466 425 480 488 l 501 556 b 547 362 518 488 530 426 l 644 0 l 783 0 l 964 675 l 855 675 l 757 284 b 715 97 743 220 730 159 l 709 97 b 662 284 694 159 679 220 l 557 675 l 445 675 l 341 284 b 295 97 325 222 311 159 l 290 97 b 250 284 277 159 265 220 l 150 675 l 33 675 l 220 0 "},"Ç":{"x_min":72.28125,"x_max":748.671875,"ha":793,"o":"m 683 185 b 473 84 625 120 561 84 b 191 458 301 84 191 229 b 479 826 191 684 305 826 b 661 741 555 826 613 792 l 726 815 b 477 927 673 874 587 927 b 72 455 244 927 72 748 b 440 -15 72 172 226 0 l 394 -104 b 482 -172 451 -118 482 -136 b 358 -239 482 -209 432 -229 l 370 -296 b 570 -168 475 -286 570 -248 b 488 -69 570 -111 534 -84 l 515 -14 b 748 115 609 -2 686 42 l 683 185 "},"Ŝ":{"x_min":57.875,"x_max":687.015625,"ha":742,"o":"m 57 118 b 377 -16 137 36 249 -16 b 687 243 568 -16 687 98 b 499 486 687 377 605 440 l 370 541 b 219 693 298 572 219 605 b 388 826 219 775 287 826 b 595 740 473 826 539 793 l 657 815 b 388 927 592 881 496 927 b 102 686 223 927 102 825 b 287 451 102 552 200 487 l 417 394 b 569 233 503 355 569 326 b 378 84 569 144 498 84 b 127 198 284 84 192 130 l 57 118 m 291 980 l 384 1075 l 389 1075 l 482 980 l 575 980 l 442 1136 l 331 1136 l 198 980 l 291 980 "},"C":{"x_min":72.21875,"x_max":748.609375,"ha":793,"o":"m 72 455 b 470 -16 72 158 241 -16 b 748 115 587 -16 676 31 l 683 186 b 473 84 625 120 561 84 b 191 458 301 84 191 229 b 479 826 191 684 305 826 b 661 741 555 826 613 793 l 726 815 b 477 927 673 875 587 927 b 72 455 244 927 72 748 "},"̉":{"x_min":-88.890625,"x_max":115.28125,"ha":0,"o":"m -38 768 b 115 897 41 781 115 816 b -76 1009 115 968 44 1005 l -88 943 b 26 884 -12 940 26 920 b -51 820 26 850 -6 833 l -38 768 "},"Ĵ":{"x_min":43.0625,"x_max":670.828125,"ha":667,"o":"m 43 129 b 294 -16 95 33 179 -16 b 545 268 472 -16 545 111 l 545 911 l 429 911 l 429 279 b 283 84 429 140 380 84 b 126 187 218 84 166 115 l 43 129 m 387 980 l 480 1075 l 486 1075 l 579 980 l 670 980 l 537 1136 l 427 1136 l 294 980 l 387 980 "},"Ẻ":{"x_min":125,"x_max":663.890625,"ha":732,"o":"m 125 0 l 663 0 l 663 98 l 240 98 l 240 429 l 586 429 l 586 527 l 240 527 l 240 813 l 650 813 l 650 911 l 125 911 l 125 0 m 355 969 b 509 1098 436 983 509 1018 b 318 1211 509 1169 438 1206 l 305 1144 b 420 1086 383 1141 420 1122 b 343 1022 420 1051 387 1034 l 355 969 "},"È":{"x_min":125,"x_max":663.890625,"ha":732,"o":"m 125 0 l 663 0 l 663 98 l 240 98 l 240 429 l 586 429 l 586 527 l 240 527 l 240 813 l 650 813 l 650 911 l 125 911 l 125 0 m 369 980 l 465 980 l 343 1136 l 212 1136 l 369 980 "},"ﬁ":{"x_min":41.671875,"x_max":680.5625,"ha":772,"o":"m 133 675 l 41 668 l 41 581 l 133 581 l 133 0 l 247 0 l 247 581 l 390 581 l 390 675 l 247 675 l 247 781 b 341 912 247 868 277 912 b 418 895 366 912 393 906 l 443 983 b 330 1005 412 995 372 1005 b 133 781 195 1005 133 919 l 133 675 m 544 0 l 658 0 l 658 675 l 544 675 l 544 0 m 602 961 b 523 887 558 961 523 931 b 602 813 523 844 558 813 b 680 887 647 813 680 844 b 602 961 680 931 647 961 "},"X":{"x_min":21,"x_max":692,"ha":713,"o":"m 21 0 l 143 0 l 275 245 b 347 391 297 290 321 336 l 353 391 b 430 245 382 336 407 290 l 564 0 l 692 0 l 426 465 l 675 911 l 553 911 l 432 677 b 366 545 409 636 391 598 l 361 545 b 290 677 333 598 314 636 l 166 911 l 39 911 l 286 470 l 21 0 "},"ô":{"x_min":63.890625,"x_max":688.890625,"ha":753,"o":"m 63 336 b 376 -16 63 112 211 -16 b 688 336 541 -16 688 112 b 376 691 688 562 541 691 b 63 336 211 691 63 562 m 181 336 b 376 597 181 491 261 597 b 570 336 493 597 570 491 b 376 77 570 181 493 77 b 181 336 261 77 181 181 m 198 795 l 280 795 l 373 922 l 379 922 l 472 795 l 555 795 l 423 991 l 329 991 l 198 795 "},"Ė":{"x_min":125,"x_max":663.890625,"ha":732,"o":"m 125 0 l 663 0 l 663 98 l 240 98 l 240 429 l 586 429 l 586 527 l 240 527 l 240 813 l 650 813 l 650 911 l 125 911 l 125 0 m 394 991 b 473 1066 438 991 473 1022 b 394 1140 473 1109 438 1140 b 315 1066 350 1140 315 1109 b 394 991 315 1022 350 991 "},"℠":{"x_min":37.640625,"x_max":844.578125,"ha":885,"o":"m 194 491 b 345 618 287 491 345 552 b 258 739 345 682 312 715 l 194 770 b 136 830 158 787 136 802 b 201 883 136 858 158 883 b 297 841 233 883 268 864 l 337 895 b 205 948 305 925 257 948 b 59 826 119 948 59 898 b 143 707 59 761 101 727 l 208 675 b 268 611 248 655 268 647 b 200 557 268 577 243 557 b 83 609 154 557 116 577 l 37 558 b 194 491 79 516 133 491 m 430 508 l 511 508 l 511 698 l 501 844 l 507 844 l 607 575 l 669 575 l 768 844 l 773 844 l 765 698 l 765 508 l 844 508 l 844 939 l 741 939 l 679 783 l 641 673 l 636 673 l 598 783 l 534 939 l 430 939 l 430 508 "},"ấ":{"x_min":81.125,"x_max":696.03125,"ha":711,"o":"m 81 175 b 279 -16 81 54 165 -16 b 502 80 362 -16 437 27 l 505 80 l 515 0 l 609 0 l 609 413 b 375 691 609 581 540 691 b 110 604 267 691 172 644 l 156 525 b 357 597 208 561 278 597 b 496 427 466 597 496 513 b 81 175 208 395 81 322 m 193 183 b 496 352 193 269 269 325 l 496 165 b 311 75 430 106 376 75 b 193 183 244 75 193 106 m 212 795 l 290 795 l 371 897 l 376 897 l 458 795 l 536 795 l 421 961 l 326 961 l 212 795 m 497 888 l 568 888 l 696 1047 l 600 1047 l 497 888 "},"Ŀ":{"x_min":125,"x_max":638.890625,"ha":675,"o":"m 125 0 l 638 0 l 638 98 l 240 98 l 240 911 l 125 911 l 125 0 m 440 451 b 523 365 440 400 477 365 b 605 451 569 365 605 400 b 523 538 605 504 569 538 b 440 451 477 538 440 504 "},"Ỵ":{"x_min":-1.390625,"x_max":662.5,"ha":661,"o":"m 272 0 l 388 0 l 388 352 l 662 911 l 541 911 l 425 654 b 333 455 397 587 365 523 l 327 455 b 240 654 297 523 269 587 l 122 911 l -1 911 l 272 352 l 272 0 m 333 -286 b 408 -211 376 -286 408 -255 b 333 -137 408 -168 376 -137 b 258 -211 290 -137 258 -168 b 333 -286 258 -255 290 -286 "},"ṇ":{"x_min":113.890625,"x_max":654.171875,"ha":760,"o":"m 113 0 l 227 0 l 227 488 b 412 593 295 556 343 593 b 540 412 501 593 540 538 l 540 0 l 654 0 l 654 427 b 448 691 654 600 590 691 b 222 577 355 691 286 641 l 218 577 l 208 675 l 113 675 l 113 0 m 388 -286 b 463 -211 431 -286 463 -255 b 388 -137 463 -168 431 -137 b 312 -211 344 -137 312 -168 b 388 -286 312 -255 344 -286 "},"ü":{"x_min":104.171875,"x_max":641.671875,"ha":756,"o":"m 104 247 b 311 -16 104 75 168 -16 b 533 105 404 -16 470 31 l 537 105 l 547 0 l 641 0 l 641 675 l 527 675 l 527 195 b 345 81 463 116 415 81 b 219 262 256 81 219 136 l 219 675 l 104 675 l 104 247 m 258 816 b 326 884 297 816 326 845 b 258 952 326 923 297 952 b 190 884 219 952 190 923 b 258 816 190 845 219 816 m 498 816 b 566 884 537 816 566 845 b 498 952 566 923 537 952 b 430 884 458 952 430 923 b 498 816 430 845 458 816 "},"⸥":{"x_min":43.0625,"x_max":290.28125,"ha":421,"o":"m 290 386 l 204 386 l 204 -145 l 43 -145 l 43 -211 l 290 -211 l 290 386 "},"Ÿ":{"x_min":-1.390625,"x_max":662.5,"ha":661,"o":"m 272 0 l 388 0 l 388 352 l 662 911 l 541 911 l 425 654 b 333 455 397 587 365 523 l 327 455 b 240 654 297 523 269 587 l 122 911 l -1 911 l 272 352 l 272 0 m 211 993 b 277 1061 250 993 277 1022 b 211 1129 277 1101 250 1129 b 143 1061 170 1129 143 1101 b 211 993 143 1022 170 993 m 450 993 b 518 1061 488 993 518 1022 b 450 1129 518 1101 488 1129 b 381 1061 411 1129 381 1101 b 450 993 381 1022 411 993 "},"€":{"x_min":32.453125,"x_max":682.453125,"ha":690,"o":"m 614 173 b 450 75 567 109 518 75 b 239 326 336 75 263 169 l 535 326 l 535 393 l 232 393 b 231 445 231 409 231 427 b 232 486 231 459 231 473 l 590 486 l 590 554 l 238 554 b 458 811 260 713 336 811 b 601 729 517 811 563 777 l 669 794 b 463 902 621 855 546 902 b 121 554 281 902 153 772 l 32 547 l 32 486 l 114 486 b 113 441 113 472 113 456 b 114 391 113 425 113 408 l 32 386 l 32 326 l 121 326 b 443 -16 153 109 276 -16 b 682 112 544 -16 621 31 l 614 173 "},"ß":{"x_min":113.890625,"x_max":759.71875,"ha":800,"o":"m 113 0 l 227 0 l 227 694 b 384 909 227 837 286 909 b 500 788 461 909 500 858 b 377 505 500 672 377 630 b 651 183 377 312 651 344 b 534 72 651 125 611 72 b 387 131 481 72 436 91 l 341 51 b 537 -16 398 9 461 -16 b 759 190 675 -16 759 73 b 486 519 759 415 486 384 b 612 800 486 615 612 661 b 386 1002 612 909 531 1002 b 113 715 212 1002 113 888 l 113 0 "},"ᵐ":{"x_min":72.21875,"x_max":709.71875,"ha":776,"o":"m 72 369 l 158 369 l 158 688 b 265 754 201 734 233 754 b 347 640 329 754 347 711 l 347 369 l 433 369 l 433 688 b 541 754 476 734 508 754 b 623 640 605 754 623 711 l 623 369 l 709 369 l 709 652 b 569 827 709 756 669 827 b 419 744 509 827 461 788 b 294 827 398 800 355 827 b 154 752 233 827 191 794 l 148 752 l 141 816 l 72 816 l 72 369 "},"Ể":{"x_min":124.78125,"x_max":683.125,"ha":732,"o":"m 124 0 l 663 0 l 663 98 l 240 98 l 240 429 l 585 429 l 585 527 l 240 527 l 240 813 l 649 813 l 649 911 l 124 911 l 124 0 m 553 1047 b 683 1157 620 1058 683 1086 b 515 1258 683 1221 623 1254 l 503 1200 b 601 1146 572 1196 601 1182 b 540 1096 601 1117 573 1104 l 553 1047 m 216 980 l 303 980 l 391 1067 l 397 1067 l 484 980 l 573 980 l 444 1128 l 344 1128 l 216 980 "},"ẳ":{"x_min":81.125,"x_max":609.9375,"ha":711,"o":"m 81 175 b 279 -16 81 54 165 -16 b 503 80 362 -16 437 27 l 505 80 l 515 0 l 609 0 l 609 413 b 375 691 609 581 540 691 b 110 604 267 691 172 644 l 156 525 b 357 597 208 561 278 597 b 496 427 466 597 496 513 b 81 175 208 395 81 322 m 193 183 b 496 352 193 269 269 325 l 496 165 b 311 75 430 106 376 75 b 193 183 244 75 193 106 m 373 798 b 550 975 493 798 543 893 l 489 975 b 373 863 480 918 444 863 b 260 975 303 863 268 918 l 199 975 b 373 798 204 893 254 798 m 337 948 b 466 1063 403 963 466 990 b 297 1165 466 1130 405 1162 l 287 1108 b 383 1051 355 1105 383 1087 b 325 997 383 1022 360 1006 l 337 948 "},"Ű":{"x_min":120.890625,"x_max":775.0625,"ha":896,"o":"m 120 376 b 448 -16 120 83 262 -16 b 775 376 634 -16 775 83 l 775 911 l 663 911 l 663 373 b 448 84 663 154 569 84 b 236 373 329 84 236 154 l 236 911 l 120 911 l 120 376 m 380 980 l 495 1136 l 388 1136 l 297 980 l 380 980 m 516 980 l 598 980 l 713 1136 l 607 1136 l 516 980 "},"c":{"x_min":63.890625,"x_max":600,"ha":633,"o":"m 63 336 b 380 -16 63 112 201 -16 b 600 70 461 -16 538 16 l 548 145 b 390 77 508 109 454 77 b 181 336 266 77 181 181 b 393 597 181 491 270 597 b 529 537 447 597 488 572 l 586 611 b 388 691 540 654 477 691 b 63 336 215 691 63 562 "},"¶":{"x_min":56.9375,"x_max":644.4375,"ha":778,"o":"m 527 -111 l 644 -111 l 644 911 l 527 911 l 527 -111 m 406 313 l 452 313 l 452 911 l 391 911 b 56 615 200 911 56 833 b 406 313 56 405 205 313 "},"Ụ":{"x_min":120.828125,"x_max":775,"ha":896,"o":"m 120 376 b 448 -16 120 83 262 -16 b 775 376 634 -16 775 83 l 775 911 l 663 911 l 663 373 b 448 84 663 154 569 84 b 236 373 329 84 236 154 l 236 911 l 120 911 l 120 376 m 448 -286 b 523 -211 491 -286 523 -255 b 448 -137 523 -168 491 -137 b 373 -211 404 -137 373 -168 b 448 -286 373 -255 404 -286 "},"­":{"x_min":56.9375,"x_max":376.390625,"ha":432,"o":"m 56 304 l 376 304 l 376 391 l 56 391 l 56 304 "},"Ẓ":{"x_min":62.5,"x_max":690.28125,"ha":749,"o":"m 62 0 l 690 0 l 690 98 l 205 98 l 686 843 l 686 911 l 105 911 l 105 813 l 541 813 l 62 69 l 62 0 m 390 -286 b 465 -211 434 -286 465 -255 b 390 -137 465 -168 434 -137 b 315 -211 347 -137 315 -168 b 390 -286 315 -255 347 -286 "},"ᵏ":{"x_min":72.21875,"x_max":461.109375,"ha":468,"o":"m 72 369 l 158 369 l 158 483 l 236 574 l 365 369 l 461 369 l 286 633 l 441 816 l 345 816 l 163 592 l 158 592 l 158 1020 l 72 1020 l 72 369 "},":":{"x_min":90.28125,"x_max":255.5625,"ha":346,"o":"m 90 570 b 173 484 90 519 127 484 b 255 570 218 484 255 519 b 173 658 255 623 218 658 b 90 570 127 658 90 623 m 90 69 b 173 -16 90 19 127 -16 b 255 69 218 -16 255 19 b 173 158 255 122 218 158 b 90 69 127 158 90 122 "},"ˢ":{"x_min":26.171875,"x_max":365.0625,"ha":393,"o":"m 26 419 b 199 358 70 386 133 358 b 365 495 301 358 365 416 b 230 629 365 579 294 604 b 130 704 178 650 130 662 b 205 761 130 733 155 761 b 308 722 247 761 274 745 l 351 777 b 202 827 313 804 266 827 b 48 700 105 827 48 768 b 180 566 48 623 117 591 b 281 488 231 547 281 530 b 201 425 281 452 252 425 b 67 476 151 425 108 445 l 26 419 "},"₫":{"x_min":94.4375,"x_max":672.21875,"ha":690,"o":"m 109 0 l 608 0 l 608 68 l 109 68 l 109 0 m 466 308 b 331 235 422 257 379 235 b 195 417 245 235 195 303 b 337 580 195 510 259 580 b 466 523 388 580 420 564 l 466 308 m 563 830 l 563 923 l 466 923 l 466 830 l 263 830 l 263 762 l 466 762 l 466 715 l 472 600 b 320 664 426 640 388 664 b 94 415 204 664 94 568 b 312 153 94 246 179 153 b 470 226 377 153 430 185 l 475 226 l 483 167 l 563 167 l 563 762 l 672 769 l 672 830 l 563 830 "},"ś":{"x_min":39.203125,"x_max":537.9375,"ha":582,"o":"m 39 76 b 290 -16 103 23 194 -16 b 537 184 450 -16 537 75 b 332 388 537 312 429 352 b 182 505 255 418 182 441 b 305 602 182 556 221 602 b 460 543 365 602 414 577 l 514 615 b 304 691 462 656 389 691 b 72 500 158 691 72 608 b 273 305 72 386 178 340 b 428 177 347 277 428 247 b 294 72 428 119 383 72 b 96 152 214 72 154 105 l 39 76 m 460 991 l 340 991 l 215 795 l 303 795 l 460 991 "}," ":{"x_min":0,"x_max":0,"ha":281},"ʾ":{"x_min":41.671875,"x_max":195.828125,"ha":208,"o":"m 41 752 b 195 881 141 750 195 801 b 41 1009 195 961 141 1012 l 41 959 b 130 881 105 959 130 927 b 41 802 130 834 105 802 l 41 752 "},"¾":{"x_min":47.21875,"x_max":1061.109375,"ha":1106,"o":"m 122 791 b 233 857 154 830 193 857 b 330 771 293 857 330 823 b 183 673 330 715 276 673 l 183 616 b 351 521 290 616 351 583 b 243 423 351 459 302 423 b 105 504 187 423 138 454 l 47 459 b 248 352 88 398 159 352 b 440 515 354 352 440 415 b 325 650 440 587 386 633 b 419 782 380 675 419 718 b 245 927 419 873 340 927 b 69 839 170 927 115 893 l 122 791 m 805 927 l 302 -16 l 379 -16 l 881 927 l 805 927 m 745 208 l 831 344 l 901 457 l 906 457 l 900 305 l 900 208 l 745 208 m 1061 208 l 980 208 l 980 541 l 880 541 l 652 190 l 652 144 l 900 144 l 900 0 l 980 0 l 980 144 l 1061 144 l 1061 208 "},"ŉ":{"x_min":87.5,"x_max":962.5,"ha":1076,"o":"m 119 598 b 268 844 215 654 268 733 b 180 971 268 925 234 971 b 106 893 137 971 106 942 b 180 824 106 849 141 824 b 191 825 184 824 187 824 b 87 651 191 744 156 697 l 119 598 m 526 577 l 516 675 l 422 675 l 422 0 l 537 0 l 537 488 b 720 593 604 556 652 593 b 848 412 811 593 848 538 l 848 0 l 962 0 l 962 427 b 756 691 962 600 898 691 b 530 577 663 691 594 641 l 526 577 "},"⁶":{"x_min":61.796875,"x_max":452.078125,"ha":510,"o":"m 270 665 b 146 826 203 665 154 719 b 264 886 188 870 224 886 b 368 776 332 886 368 840 b 270 665 368 711 328 665 m 429 1127 b 297 1169 399 1149 360 1169 b 61 868 164 1169 61 1072 b 271 594 61 697 143 594 b 452 777 374 594 452 673 b 282 951 452 880 390 951 b 146 895 231 951 185 931 b 300 1098 156 1033 220 1098 b 393 1065 338 1098 367 1083 l 429 1127 "},"⟦":{"x_min":130.5625,"x_max":481.9375,"ha":525,"o":"m 130 -211 l 481 -211 l 481 -145 l 329 -145 l 329 918 l 481 918 l 481 983 l 130 983 l 130 -211 m 201 918 l 263 918 l 263 -145 l 201 -145 l 201 918 "},"⅓":{"x_min":87.5,"x_max":1050,"ha":1117,"o":"m 205 369 l 294 369 l 294 911 l 220 911 b 87 855 183 883 148 866 l 87 797 l 205 797 l 205 369 m 291 -16 l 794 927 l 716 927 l 213 -16 l 291 -16 m 656 88 b 858 -16 697 27 769 -16 b 1050 145 962 -16 1050 45 b 933 279 1050 218 994 263 b 1029 412 988 305 1029 348 b 855 558 1029 504 948 558 b 679 469 780 558 725 523 l 731 422 b 841 487 762 459 801 487 b 940 401 901 487 940 452 b 793 304 940 345 886 304 l 793 247 b 961 151 898 247 961 213 b 852 54 961 88 911 54 b 715 134 797 54 748 84 l 656 88 "},"Ģ":{"x_min":72.28125,"x_max":763.953125,"ha":857,"o":"m 72 455 b 482 -16 72 158 243 -16 b 763 88 604 -16 704 27 l 763 472 l 465 472 l 465 376 l 658 376 l 658 138 b 494 84 622 105 559 84 b 191 458 300 84 191 229 b 493 826 191 684 309 826 b 687 741 584 826 641 790 l 752 815 b 491 927 700 870 616 927 b 72 455 248 927 72 748 m 443 -66 l 418 -119 b 490 -180 458 -129 490 -144 b 366 -244 490 -216 438 -234 l 377 -300 b 577 -173 482 -291 577 -254 b 443 -66 577 -111 537 -80 "},"m":{"x_min":113.890625,"x_max":1045.828125,"ha":1151,"o":"m 113 0 l 227 0 l 227 488 b 397 593 290 558 347 593 b 523 412 483 593 523 538 l 523 0 l 637 0 l 637 488 b 806 593 700 558 754 593 b 931 412 891 593 931 538 l 931 0 l 1045 0 l 1045 427 b 840 691 1045 600 979 691 b 618 562 758 691 688 638 b 431 691 590 643 534 691 b 222 577 351 691 280 641 l 218 577 l 208 675 l 113 675 l 113 0 "},"Ị":{"x_min":108.328125,"x_max":258.328125,"ha":365,"o":"m 125 0 l 240 0 l 240 911 l 125 911 l 125 0 m 183 -286 b 258 -211 226 -286 258 -255 b 183 -137 258 -168 226 -137 b 108 -211 140 -137 108 -168 b 183 -286 108 -255 140 -286 "},"ž":{"x_min":42.96875,"x_max":554,"ha":590,"o":"m 42 0 l 554 0 l 554 93 l 187 93 l 542 613 l 542 675 l 81 675 l 81 581 l 398 581 l 42 61 l 42 0 m 270 795 l 363 795 l 495 991 l 413 991 l 320 863 l 315 863 l 222 991 l 138 991 l 270 795 "},"⁵":{"x_min":48.609375,"x_max":448.609375,"ha":510,"o":"m 48 700 b 254 594 91 638 158 594 b 448 781 363 594 448 670 b 270 963 448 898 368 963 b 183 943 238 963 209 954 l 198 1075 l 420 1075 l 420 1152 l 125 1152 l 100 891 l 143 859 b 245 904 172 884 202 904 b 359 784 312 904 359 858 b 248 665 359 715 312 665 b 108 745 186 665 143 695 l 48 700 "},"ớ":{"x_min":64.0625,"x_max":704.328125,"ha":753,"o":"m 530 991 l 411 991 l 286 795 l 373 795 l 530 991 m 376 77 b 182 335 261 77 182 181 b 376 596 182 491 261 596 b 571 335 493 596 571 491 b 376 77 571 181 493 77 m 589 810 b 609 752 601 792 609 773 b 507 661 609 700 572 673 b 376 691 466 681 422 691 b 64 335 211 691 64 561 b 376 -17 64 111 211 -17 b 689 335 541 -17 689 111 b 575 617 689 460 643 556 b 704 760 643 636 704 677 b 672 850 704 795 690 825 l 589 810 "},"á":{"x_min":81.125,"x_max":609.90625,"ha":711,"o":"m 81 175 b 279 -16 81 54 165 -16 b 502 80 362 -16 437 27 l 505 80 l 515 0 l 609 0 l 609 413 b 375 691 609 581 540 691 b 110 604 267 691 172 644 l 156 525 b 357 597 208 561 278 597 b 496 427 466 597 496 513 b 81 175 208 395 81 322 m 193 183 b 496 352 193 269 269 325 l 496 165 b 311 75 430 106 376 75 b 193 183 244 75 193 106 m 527 991 l 408 991 l 283 795 l 371 795 l 527 991 "},"×":{"x_min":69,"x_max":620,"ha":690,"o":"m 130 175 l 345 397 l 558 175 l 620 237 l 404 458 l 620 677 l 558 740 l 345 519 l 130 740 l 69 677 l 284 458 l 69 237 l 130 175 "},"ḍ":{"x_min":65.28125,"x_max":656.953125,"ha":771,"o":"m 65 336 b 344 -16 65 111 175 -16 b 548 79 423 -16 495 27 l 552 79 l 562 0 l 656 0 l 656 988 l 541 988 l 541 729 l 547 614 b 358 691 487 662 436 691 b 65 336 204 691 65 555 m 183 337 b 377 596 183 491 269 596 b 541 525 433 596 484 576 l 541 172 b 369 79 486 109 431 79 b 183 337 251 79 183 176 m 419 -285 b 494 -210 462 -285 494 -255 b 419 -137 494 -167 462 -137 b 344 -210 376 -137 344 -167 b 419 -285 344 -255 376 -285 "},"K":{"x_min":125,"x_max":798.609375,"ha":804,"o":"m 125 0 l 240 0 l 240 288 l 397 473 l 669 0 l 798 0 l 469 563 l 754 911 l 623 911 l 244 454 l 240 454 l 240 911 l 125 911 l 125 0 "},"7":{"x_min":61.109375,"x_max":631.9375,"ha":690,"o":"m 245 0 l 363 0 b 631 815 379 345 422 547 l 631 886 l 61 886 l 61 787 l 502 787 b 245 0 327 544 261 333 "},"̈":{"x_min":-187.5,"x_max":187.5,"ha":0,"o":"m -119 816 b -51 884 -80 816 -51 845 b -119 952 -51 923 -80 952 b -187 884 -159 952 -187 923 b -119 816 -187 845 -159 816 m 119 816 b 187 884 159 816 187 845 b 119 952 187 923 159 952 b 51 884 80 952 51 923 b 119 816 51 845 80 816 "},"¨":{"x_min":188.890625,"x_max":563.890625,"ha":753,"o":"m 256 816 b 325 884 295 816 325 845 b 256 952 325 923 295 952 b 188 884 218 952 188 923 b 256 816 188 845 218 816 m 495 816 b 563 884 536 816 563 845 b 495 952 563 923 536 952 b 429 884 456 952 429 923 b 495 816 429 845 456 816 "},"Y":{"x_min":-1.390625,"x_max":662.5,"ha":661,"o":"m 272 0 l 388 0 l 388 352 l 662 911 l 541 911 l 425 654 b 333 455 397 587 365 523 l 327 455 b 240 654 297 523 269 587 l 122 911 l -1 911 l 272 352 l 272 0 "},"E":{"x_min":125,"x_max":663.890625,"ha":732,"o":"m 125 0 l 663 0 l 663 98 l 240 98 l 240 429 l 586 429 l 586 527 l 240 527 l 240 813 l 650 813 l 650 911 l 125 911 l 125 0 "},"Ô":{"x_min":72.21875,"x_max":851.390625,"ha":922,"o":"m 461 -16 b 851 459 690 -16 851 166 b 461 927 851 750 690 927 b 72 459 231 927 72 751 b 461 -16 72 166 231 -16 m 461 84 b 191 459 298 84 191 231 b 461 826 191 686 298 826 b 730 459 623 826 730 686 b 461 84 730 231 623 84 m 365 980 l 458 1075 l 463 1075 l 556 980 l 650 980 l 516 1136 l 405 1136 l 272 980 l 365 980 "},"ổ":{"x_min":63.890625,"x_max":688.890625,"ha":753,"o":"m 63 336 b 376 -16 63 112 211 -16 b 688 336 541 -16 688 112 b 376 691 688 562 541 691 b 63 336 211 691 63 562 m 181 336 b 376 597 181 491 261 597 b 570 336 493 597 570 491 b 376 77 570 181 493 77 b 181 336 261 77 181 181 m 215 795 l 293 795 l 373 897 l 379 897 l 461 795 l 538 795 l 423 961 l 329 961 l 215 795 m 537 872 b 666 987 602 887 666 912 b 498 1088 666 1052 605 1084 l 487 1031 b 584 975 556 1027 584 1011 b 525 920 584 945 559 930 l 537 872 "},"Ï":{"x_min":-5.5625,"x_max":370.828125,"ha":365,"o":"m 125 0 l 240 0 l 240 911 l 125 911 l 125 0 m 62 993 b 130 1061 101 993 130 1022 b 62 1129 130 1101 101 1129 b -5 1061 23 1129 -5 1101 b 62 993 -5 1022 23 993 m 302 993 b 370 1061 341 993 370 1022 b 302 1129 370 1101 341 1129 b 234 1061 262 1129 234 1101 b 302 993 234 1022 262 993 "},"ġ":{"x_min":62.703125,"x_max":683.53125,"ha":700,"o":"m 162 -113 b 232 0 162 -75 183 -34 b 319 -11 261 -8 293 -11 l 436 -11 b 572 -94 523 -11 572 -31 b 358 -231 572 -165 487 -231 b 162 -113 236 -231 162 -186 m 62 -129 b 341 -311 62 -245 176 -311 b 683 -77 551 -311 683 -202 b 447 83 683 34 604 83 l 316 83 b 197 156 225 83 197 113 b 240 237 197 194 216 216 b 341 213 271 222 308 213 b 589 448 479 213 589 304 b 533 587 589 505 565 556 l 672 587 l 672 675 l 437 675 b 341 691 412 684 379 691 b 87 451 204 691 87 598 b 175 269 87 370 130 305 l 175 263 b 101 138 140 240 101 195 b 161 29 101 86 127 50 l 161 23 b 62 -129 100 -18 62 -72 m 341 290 b 198 451 264 290 198 352 b 341 608 198 549 262 608 b 484 451 421 608 484 549 b 341 290 484 352 419 290 m 333 813 b 408 888 376 813 408 844 b 333 963 408 931 376 963 b 257 888 289 963 257 931 b 333 813 257 844 289 813 "},"Ẳ":{"x_min":4.171875,"x_max":751.390625,"ha":756,"o":"m 344 1111 b 472 1220 409 1122 472 1150 b 304 1322 472 1286 412 1318 l 293 1263 b 390 1209 361 1259 390 1245 b 329 1159 390 1180 363 1168 l 344 1111 m 483 1131 b 375 1043 472 1084 443 1043 b 268 1131 308 1043 279 1084 l 206 1131 b 375 983 215 1055 268 983 b 544 1131 483 983 534 1055 l 483 1131 m 238 370 l 281 509 b 372 816 315 611 344 711 l 377 816 b 469 509 406 711 436 611 l 512 370 l 238 370 m 627 0 l 751 0 l 443 911 l 312 911 l 4 0 l 122 0 l 209 277 l 541 277 l 627 0 "},"ứ":{"x_min":104.171875,"x_max":768.0625,"ha":756,"o":"m 523 991 l 404 991 l 277 795 l 366 795 l 523 991 m 654 825 b 673 766 665 806 673 787 b 556 675 673 704 622 681 l 527 675 l 527 195 b 345 81 463 116 415 81 b 219 262 256 81 219 136 l 219 675 l 104 675 l 104 247 b 311 -16 104 75 168 -16 b 533 105 404 -16 470 31 l 537 105 l 547 0 l 641 0 l 641 631 b 768 775 704 650 768 690 b 736 865 768 809 754 840 l 654 825 "},"Ấ":{"x_min":4,"x_max":751,"ha":756,"o":"m 699 1223 l 599 1223 l 502 1069 l 573 1069 l 699 1223 m 371 1066 l 377 1066 l 464 980 l 553 980 l 424 1127 l 324 1127 l 197 980 l 284 980 l 371 1066 m 238 370 l 281 509 b 371 816 315 611 344 711 l 377 816 b 469 509 406 711 435 611 l 512 370 l 238 370 m 627 0 l 751 0 l 442 911 l 312 911 l 4 0 l 122 0 l 209 277 l 541 277 l 627 0 "},"ể":{"x_min":63.890625,"x_max":656.828125,"ha":689,"o":"m 63 336 b 387 -16 63 115 206 -16 b 609 52 479 -16 551 15 l 569 127 b 401 75 519 95 465 75 b 176 312 272 75 184 166 l 631 312 b 636 375 634 329 636 351 b 366 691 636 568 538 691 b 63 336 212 691 63 556 m 175 387 b 369 601 188 523 274 601 b 536 387 474 601 536 525 l 175 387 m 205 795 l 283 795 l 363 897 l 369 897 l 451 795 l 529 795 l 413 961 l 320 961 l 205 795 m 527 872 b 656 987 592 887 656 912 b 488 1088 656 1052 597 1084 l 479 1031 b 574 975 547 1027 574 1011 b 515 920 574 945 549 930 l 527 872 "},"b":{"x_min":113.890625,"x_max":704.171875,"ha":771,"o":"m 113 0 l 205 0 l 215 66 l 219 66 b 412 -16 279 14 350 -16 b 704 348 566 -16 704 118 b 436 691 704 557 611 691 b 225 597 361 691 286 651 l 227 719 l 227 988 l 113 988 l 113 0 m 227 150 l 227 504 b 408 596 291 564 351 596 b 586 347 536 596 586 496 b 393 79 586 180 504 79 b 227 150 348 79 287 98 "},"̃":{"x_min":-193,"x_max":193,"ha":0,"o":"m -193 804 l -129 804 b -77 875 -120 851 -105 875 b 80 804 -30 875 9 804 b 193 951 148 804 186 868 l 129 951 b 77 880 120 904 105 880 b -80 951 33 880 -9 951 b -193 804 -148 951 -186 887 "},"ﬂ":{"x_min":41.671875,"x_max":705.5625,"ha":760,"o":"m 133 675 l 41 668 l 41 581 l 133 581 l 133 0 l 247 0 l 247 581 l 390 581 l 390 675 l 247 675 l 247 781 b 341 912 247 868 277 912 b 418 895 366 912 393 906 l 443 983 b 330 1005 412 995 372 1005 b 133 781 195 1005 133 919 l 133 675 m 690 80 b 665 77 677 77 672 77 b 633 127 648 77 633 91 l 633 988 l 519 988 l 519 136 b 640 -16 519 37 554 -16 b 705 -5 669 -16 688 -12 l 690 80 "},"Ḡ":{"x_min":72.28125,"x_max":763.953125,"ha":857,"o":"m 72 455 b 482 -16 72 158 243 -16 b 763 88 604 -16 704 27 l 763 472 l 465 472 l 465 376 l 658 376 l 658 138 b 494 84 622 105 559 84 b 191 458 300 84 191 229 b 493 826 191 684 309 826 b 687 741 584 826 641 790 l 752 815 b 491 927 700 870 616 927 b 72 455 248 927 72 748 m 319 1012 l 663 1012 l 663 1091 l 319 1091 l 319 1012 "},"Ǔ":{"x_min":120.828125,"x_max":775,"ha":896,"o":"m 120 376 b 448 -16 120 83 262 -16 b 775 376 634 -16 775 83 l 775 911 l 663 911 l 663 373 b 448 84 663 154 569 84 b 236 373 329 84 236 154 l 236 911 l 120 911 l 120 376 m 544 1136 l 451 1041 l 445 1041 l 352 1136 l 259 1136 l 393 980 l 502 980 l 636 1136 l 544 1136 "},"Ũ":{"x_min":120.609375,"x_max":774.78125,"ha":896,"o":"m 120 376 b 448 -16 120 83 262 -16 b 774 376 634 -16 774 83 l 774 911 l 663 911 l 663 373 b 448 84 663 154 569 84 b 235 373 328 84 235 154 l 235 911 l 120 911 l 120 376 m 531 987 b 648 1137 598 987 641 1052 l 585 1137 b 528 1065 577 1091 556 1065 b 365 1137 477 1065 437 1137 b 247 987 298 1137 255 1073 l 310 987 b 366 1059 317 1034 338 1059 b 531 987 417 1059 458 987 "},"L":{"x_min":125,"x_max":638.890625,"ha":675,"o":"m 125 0 l 638 0 l 638 98 l 240 98 l 240 911 l 125 911 l 125 0 "},"ᵉ":{"x_min":38.671875,"x_max":430.078125,"ha":467,"o":"m 257 358 b 414 408 319 358 371 380 l 381 462 b 267 427 349 441 310 427 b 123 573 184 427 128 481 l 424 573 b 430 622 428 594 430 602 b 246 827 430 711 385 827 b 38 593 134 827 38 737 b 257 358 38 443 135 358 m 122 630 b 246 759 133 711 180 759 b 353 630 327 759 353 691 l 122 630 "},"ď":{"x_min":65.28125,"x_max":812.5,"ha":796,"o":"m 65 336 b 344 -16 65 111 175 -16 b 548 79 423 -16 495 27 l 552 79 l 562 0 l 656 0 l 656 988 l 541 988 l 541 729 l 547 614 b 358 691 487 662 436 691 b 65 336 204 691 65 555 m 183 337 b 377 596 183 491 269 596 b 541 525 433 596 484 576 l 541 172 b 369 79 486 109 431 79 b 183 337 251 79 183 176 m 791 761 l 811 976 l 812 1055 l 730 1055 l 736 761 l 791 761 "},"ṯ":{"x_min":33.65625,"x_max":467,"ha":469,"o":"m 133 208 b 326 -16 133 75 182 -16 b 451 8 368 -16 414 -4 l 429 94 b 353 76 407 86 376 76 b 248 206 275 76 248 123 l 248 581 l 430 581 l 430 675 l 248 675 l 248 863 l 153 863 l 139 675 l 33 668 l 33 581 l 133 581 l 133 208 m 467 -156 l 123 -156 l 123 -237 l 467 -237 l 467 -156 "},"Ĭ":{"x_min":11.109375,"x_max":352.78125,"ha":365,"o":"m 125 0 l 240 0 l 240 911 l 125 911 l 125 0 m 181 983 b 352 1136 293 983 344 1058 l 283 1136 b 181 1048 275 1091 245 1048 b 81 1136 119 1048 90 1091 l 11 1136 b 181 983 20 1058 72 983 "},"♪":{"x_min":40.28125,"x_max":668.0625,"ha":699,"o":"m 40 72 b 180 -33 40 3 105 -33 b 419 198 308 -33 419 46 l 419 764 b 593 555 530 729 593 643 b 575 428 593 505 588 472 l 623 410 b 668 591 644 453 668 519 b 509 864 668 697 634 775 b 412 964 440 914 426 926 l 343 964 l 343 218 b 259 235 330 226 295 235 b 40 72 130 235 40 157 "},"À":{"x_min":4,"x_max":751,"ha":756,"o":"m 445 980 l 323 1136 l 192 1136 l 349 980 l 445 980 m 238 370 l 281 509 b 371 816 315 611 344 711 l 377 816 b 469 509 406 711 435 611 l 512 370 l 238 370 m 627 0 l 751 0 l 442 911 l 312 911 l 4 0 l 122 0 l 209 277 l 541 277 l 627 0 "},"̊":{"x_min":-129.171875,"x_max":129.171875,"ha":0,"o":"m 0 752 b 129 881 75 752 129 804 b 0 1009 129 958 75 1009 b -129 881 -75 1009 -129 958 b 0 752 -129 804 -75 752 m 0 804 b -66 881 -37 804 -66 834 b 0 958 -66 927 -37 958 b 66 881 37 958 66 927 b 0 804 66 834 37 804 "},"½":{"x_min":87.5,"x_max":1056.953125,"ha":1122,"o":"m 205 369 l 294 369 l 294 911 l 220 911 b 87 855 183 883 148 866 l 87 797 l 205 797 l 205 369 m 300 -16 l 802 927 l 725 927 l 222 -16 l 300 -16 m 684 0 l 1056 0 l 1056 76 l 827 76 b 1029 383 943 194 1029 279 b 848 558 1029 497 956 558 b 668 452 775 558 709 515 l 720 404 b 837 483 751 448 791 483 b 941 369 901 483 941 440 b 684 51 941 287 852 202 l 684 0 "},"'":{"x_min":111.109375,"x_max":233.328125,"ha":346,"o":"m 137 598 l 206 598 l 229 830 l 233 958 l 111 958 l 115 830 l 137 598 "},"Ḷ":{"x_min":125,"x_max":638.890625,"ha":675,"o":"m 125 0 l 638 0 l 638 98 l 240 98 l 240 911 l 125 911 l 125 0 m 400 -286 b 475 -211 443 -286 475 -255 b 400 -137 475 -168 443 -137 b 325 -211 356 -137 325 -168 b 400 -286 325 -255 356 -286 "},"˛":{"x_min":284.71875,"x_max":519.4375,"ha":753,"o":"m 284 -168 b 409 -286 284 -245 340 -286 b 519 -248 445 -286 493 -269 l 490 -191 b 433 -209 473 -202 455 -209 b 369 -145 400 -209 369 -188 b 463 4 369 -91 404 -40 l 383 4 b 284 -168 337 -30 284 -93 "},"⁷":{"x_min":69.4375,"x_max":448.609375,"ha":510,"o":"m 181 611 l 275 611 b 448 1102 286 800 316 934 l 448 1152 l 69 1152 l 69 1076 l 348 1076 b 181 611 237 925 193 798 "},"ǔ":{"x_min":104.40625,"x_max":641.90625,"ha":756,"o":"m 104 247 b 311 -16 104 75 168 -16 b 533 105 404 -16 471 31 l 537 105 l 547 0 l 641 0 l 641 675 l 528 675 l 528 195 b 346 81 464 116 415 81 b 219 262 257 81 219 136 l 219 675 l 104 675 l 104 247 m 330 795 l 425 795 l 557 991 l 473 991 l 380 863 l 375 863 l 282 991 l 200 991 l 330 795 "},"Ć":{"x_min":72.21875,"x_max":748.609375,"ha":793,"o":"m 72 455 b 470 -16 72 158 241 -16 b 748 115 587 -16 676 31 l 683 186 b 473 84 625 120 561 84 b 191 458 301 84 191 229 b 479 826 191 684 305 826 b 661 741 555 826 613 793 l 726 815 b 477 927 673 875 587 927 b 72 455 244 927 72 748 m 640 1136 l 509 1136 l 387 980 l 483 980 l 640 1136 "},"ẓ":{"x_min":43.0625,"x_max":554.171875,"ha":590,"o":"m 43 0 l 554 0 l 554 93 l 187 93 l 543 613 l 543 675 l 81 675 l 81 581 l 398 581 l 43 61 l 43 0 m 316 -286 b 391 -211 359 -286 391 -255 b 316 -137 391 -168 359 -137 b 241 -211 273 -137 241 -168 b 316 -286 241 -255 273 -286 "},"£":{"x_min":73.609375,"x_max":629.15625,"ha":690,"o":"m 238 98 l 238 104 b 324 318 294 161 324 220 b 318 395 324 345 322 370 l 520 395 l 520 473 l 300 473 b 266 644 283 531 266 586 b 420 806 266 740 320 806 b 561 733 483 806 526 776 l 627 798 b 412 902 579 858 511 902 b 154 647 258 902 154 804 b 191 473 154 588 173 531 l 166 473 l 73 468 l 73 395 l 212 395 b 222 319 218 370 222 345 b 75 69 222 215 169 120 l 75 0 l 629 0 l 629 98 l 238 98 "},"ẹ":{"x_min":63.890625,"x_max":636,"ha":689,"o":"m 63 336 b 387 -16 63 115 206 -16 b 609 52 479 -16 551 15 l 569 127 b 401 75 519 95 465 75 b 176 312 272 75 184 166 l 631 312 b 636 375 634 329 636 351 b 366 691 636 568 538 691 b 63 336 212 691 63 556 m 175 387 b 369 601 188 523 274 601 b 536 387 474 601 536 525 l 175 387 m 365 -286 b 440 -211 408 -286 440 -255 b 365 -137 440 -168 408 -137 b 288 -211 320 -137 288 -168 b 365 -286 288 -255 320 -286 "},"ů":{"x_min":104.171875,"x_max":641.671875,"ha":756,"o":"m 104 247 b 311 -16 104 75 168 -16 b 533 105 404 -16 470 31 l 537 105 l 547 0 l 641 0 l 641 675 l 527 675 l 527 195 b 345 81 463 116 415 81 b 219 262 256 81 219 136 l 219 675 l 104 675 l 104 247 m 377 752 b 508 881 454 752 508 804 b 377 1009 508 958 454 1009 b 248 881 302 1009 248 958 b 377 752 248 804 302 752 m 377 804 b 311 881 341 804 311 834 b 377 958 311 927 341 958 b 444 881 415 958 444 927 b 377 804 444 834 415 804 "},"ɡ":{"x_min":69.140625,"x_max":659.421875,"ha":776,"o":"m 159 -146 l 117 -226 b 359 -300 188 -273 276 -300 b 659 -33 551 -300 659 -200 l 659 675 l 563 675 l 553 612 l 551 612 b 362 691 494 663 438 691 b 69 347 209 691 69 558 b 346 6 69 134 177 6 b 546 96 426 6 495 46 l 545 -30 b 359 -208 541 -139 483 -208 b 159 -146 295 -208 226 -190 m 371 101 b 185 348 253 101 185 196 b 380 595 185 492 271 595 b 545 524 435 595 487 576 l 545 194 b 371 101 487 131 434 101 "},"Ō":{"x_min":72.21875,"x_max":851.390625,"ha":922,"o":"m 461 -16 b 851 459 690 -16 851 166 b 461 927 851 750 690 927 b 72 459 231 927 72 751 b 461 -16 72 166 231 -16 m 461 84 b 191 459 298 84 191 231 b 461 826 191 686 298 826 b 730 459 623 826 730 686 b 461 84 730 231 623 84 m 288 1012 l 633 1012 l 633 1091 l 288 1091 l 288 1012 "},"Ğ":{"x_min":71.90625,"x_max":763.953125,"ha":857,"o":"m 71 455 b 481 -16 71 158 242 -16 b 763 88 604 -16 704 27 l 763 472 l 464 472 l 464 376 l 658 376 l 658 138 b 494 84 621 105 559 84 b 191 458 299 84 191 229 b 492 826 191 684 309 826 b 687 741 584 826 641 790 l 752 815 b 491 927 699 870 616 927 b 71 455 248 927 71 748 m 491 983 b 662 1136 602 983 652 1058 l 591 1136 b 491 1048 583 1091 553 1048 b 389 1136 428 1048 398 1091 l 320 1136 b 491 983 328 1058 380 983 "},"v":{"x_min":16.71875,"x_max":632,"ha":649,"o":"m 259 0 l 393 0 l 632 675 l 519 675 l 391 291 b 330 93 372 225 350 156 l 325 93 b 262 291 304 156 282 225 l 134 675 l 16 675 l 259 0 "},"û":{"x_min":103.78125,"x_max":641.90625,"ha":756,"o":"m 103 247 b 310 -16 103 75 167 -16 b 533 105 404 -16 470 31 l 537 105 l 547 0 l 641 0 l 641 675 l 527 675 l 527 195 b 345 81 463 116 415 81 b 219 262 256 81 219 136 l 219 675 l 103 675 l 103 247 m 199 795 l 281 795 l 374 922 l 380 922 l 473 795 l 557 795 l 425 991 l 330 991 l 199 795 "},"Ź":{"x_min":63.046875,"x_max":690.96875,"ha":749,"o":"m 63 0 l 690 0 l 690 98 l 206 98 l 686 843 l 686 911 l 106 911 l 106 813 l 542 813 l 63 69 l 63 0 m 572 1136 l 442 1136 l 320 980 l 415 980 l 572 1136 "},"ʻ":{"x_min":79.171875,"x_max":259.71875,"ha":346,"o":"m 226 966 b 79 718 130 910 79 829 b 166 593 79 638 111 593 b 240 670 209 593 240 622 b 166 741 240 716 204 741 b 154 739 162 741 158 741 b 259 911 154 818 188 866 l 226 966 "},"ˉ":{"x_min":22.21875,"x_max":362.5,"ha":385,"o":"m 22 834 l 362 834 l 362 913 l 22 913 l 22 834 "},"ḻ":{"x_min":63.96875,"x_max":407.015625,"ha":354,"o":"m 113 136 b 234 -16 113 37 148 -16 b 300 -5 265 -16 284 -12 l 284 80 b 259 77 272 77 266 77 b 227 127 243 77 227 91 l 227 988 l 113 988 l 113 136 m 407 -156 l 63 -156 l 63 -237 l 407 -237 l 407 -156 "},"Ĺ":{"x_min":115.28125,"x_max":638.890625,"ha":675,"o":"m 125 0 l 638 0 l 638 98 l 240 98 l 240 911 l 125 911 l 125 0 m 368 1136 l 237 1136 l 115 980 l 211 980 l 368 1136 "},"ỵ":{"x_min":16.671875,"x_max":631.9375,"ha":649,"o":"m 68 -186 l 45 -276 b 125 -290 68 -284 94 -290 b 377 -55 261 -290 330 -188 l 631 675 l 520 675 l 400 301 b 343 111 381 241 362 172 l 337 111 b 272 301 316 173 293 243 l 134 675 l 16 675 l 287 -1 l 272 -51 b 119 -195 244 -134 195 -195 b 68 -186 102 -195 81 -190 m 544 -282 b 619 -205 587 -282 619 -250 b 544 -132 619 -162 587 -132 b 469 -205 501 -132 469 -162 b 544 -282 469 -250 501 -282 "},"₤":{"x_min":73.515625,"x_max":629.15625,"ha":690,"o":"m 238 98 l 238 104 b 324 318 294 161 324 220 b 324 326 324 320 324 323 l 520 326 l 520 394 l 318 394 b 298 476 313 422 306 450 l 520 476 l 520 544 l 280 544 b 266 644 272 577 266 609 b 420 806 266 740 320 806 b 561 733 483 806 526 776 l 627 798 b 412 902 579 858 511 902 b 154 647 258 902 154 804 b 170 544 154 612 161 579 l 158 544 l 73 537 l 73 476 l 190 476 b 213 394 200 448 207 422 l 169 394 l 73 387 l 73 326 l 222 326 b 222 319 222 323 222 322 b 74 69 222 215 169 120 l 74 0 l 629 0 l 629 98 l 238 98 "},"‒":{"x_min":56.9375,"x_max":634.71875,"ha":690,"o":"m 56 309 l 634 309 l 634 388 l 56 388 l 56 309 "},"ḇ":{"x_min":113.890625,"x_max":704.171875,"ha":771,"o":"m 113 0 l 205 0 l 215 66 l 219 66 b 412 -16 279 14 350 -16 b 704 348 566 -16 704 118 b 436 691 704 557 611 691 b 225 597 361 691 286 651 l 227 719 l 227 988 l 113 988 l 113 0 m 227 150 l 227 504 b 408 596 291 564 351 596 b 586 347 536 596 586 496 b 393 79 586 180 504 79 b 227 150 348 79 287 98 m 563 -156 l 222 -156 l 222 -237 l 563 -237 l 563 -156 "},"Č":{"x_min":72.21875,"x_max":748.609375,"ha":793,"o":"m 72 455 b 470 -16 72 158 241 -16 b 748 115 587 -16 676 31 l 683 186 b 473 84 625 120 561 84 b 191 458 301 84 191 229 b 479 826 191 684 305 826 b 661 741 555 826 613 793 l 726 815 b 477 927 673 875 587 927 b 72 455 244 927 72 748 m 554 1136 l 461 1041 l 455 1041 l 362 1136 l 270 1136 l 404 980 l 513 980 l 647 1136 l 554 1136 "},"x":{"x_min":19,"x_max":600,"ha":619,"o":"m 19 0 l 138 0 l 230 156 b 298 277 252 198 274 238 l 303 277 b 377 156 328 238 353 197 l 476 0 l 600 0 l 380 340 l 584 675 l 465 675 l 383 526 b 322 413 362 490 341 451 l 316 413 b 249 526 292 451 270 490 l 159 675 l 35 675 l 240 352 l 19 0 "},"è":{"x_min":63.890625,"x_max":636,"ha":689,"o":"m 63 336 b 387 -16 63 115 206 -16 b 609 52 479 -16 551 15 l 569 127 b 401 75 519 95 465 75 b 176 312 272 75 184 166 l 631 312 b 636 375 634 329 636 351 b 366 691 636 568 538 691 b 63 336 212 691 63 556 m 175 387 b 369 601 188 523 274 601 b 536 387 474 601 536 525 l 175 387 m 369 795 l 458 795 l 331 991 l 213 991 l 369 795 "},"Ń":{"x_min":125,"x_max":773.609375,"ha":899,"o":"m 125 0 l 234 0 l 234 476 b 219 761 234 572 226 669 l 225 761 l 323 573 l 654 0 l 773 0 l 773 911 l 663 911 l 663 440 b 677 150 663 344 672 241 l 672 150 l 573 338 l 244 911 l 125 911 l 125 0 m 636 1136 l 504 1136 l 381 980 l 477 980 l 636 1136 "},"Ṇ":{"x_min":125,"x_max":773.609375,"ha":899,"o":"m 125 0 l 234 0 l 234 476 b 219 761 234 572 226 669 l 225 761 l 323 573 l 654 0 l 773 0 l 773 911 l 663 911 l 663 440 b 677 150 663 344 672 241 l 672 150 l 573 338 l 244 911 l 125 911 l 125 0 m 455 -286 b 530 -211 498 -286 530 -255 b 455 -137 530 -168 498 -137 b 380 -211 412 -137 380 -168 b 455 -286 380 -255 412 -286 "},".":{"x_min":90.28125,"x_max":255.5625,"ha":346,"o":"m 90 69 b 173 -16 90 19 127 -16 b 255 69 218 -16 255 19 b 173 158 255 122 218 158 b 90 69 127 158 90 122 "},"ṣ":{"x_min":39.328125,"x_max":537.9375,"ha":582,"o":"m 39 76 b 290 -16 103 23 194 -16 b 537 184 450 -16 537 75 b 332 388 537 312 429 352 b 182 505 256 418 182 441 b 306 602 182 556 221 602 b 460 543 365 602 414 577 l 514 615 b 304 691 462 656 389 691 b 72 500 158 691 72 608 b 274 305 72 386 178 340 b 428 177 347 277 428 247 b 294 72 428 119 383 72 b 96 152 214 72 154 105 l 39 76 m 310 -286 b 385 -211 354 -286 385 -255 b 310 -137 385 -168 354 -137 b 235 -211 267 -137 235 -168 b 310 -286 235 -255 267 -286 "},"Ǎ":{"x_min":4,"x_max":751,"ha":756,"o":"m 430 980 l 563 1136 l 470 1136 l 377 1041 l 371 1041 l 278 1136 l 187 1136 l 320 980 l 430 980 m 238 370 l 281 509 b 371 816 315 611 344 711 l 377 816 b 469 509 406 711 435 611 l 512 370 l 238 370 m 627 0 l 751 0 l 442 911 l 312 911 l 4 0 l 122 0 l 209 277 l 541 277 l 627 0 "},"‘":{"x_min":79.171875,"x_max":259.71875,"ha":346,"o":"m 226 966 b 79 718 130 910 79 829 b 166 593 79 638 111 593 b 240 670 209 593 240 622 b 166 741 240 716 204 741 b 154 739 162 741 158 741 b 259 911 154 818 188 866 l 226 966 "},"π":{"x_min":33.328125,"x_max":736.109375,"ha":779,"o":"m 152 0 l 265 0 l 265 580 l 518 580 l 518 156 b 652 -16 518 50 554 -16 b 729 -2 683 -16 706 -12 l 713 84 b 680 77 700 80 690 77 b 633 148 650 77 633 104 l 633 580 l 736 580 l 736 675 l 129 675 l 33 668 l 33 580 l 152 580 l 152 0 "},"Ỏ":{"x_min":72.21875,"x_max":851.390625,"ha":922,"o":"m 461 -16 b 851 459 690 -16 851 166 b 461 927 851 750 690 927 b 72 459 231 927 72 751 b 461 -16 72 166 231 -16 m 461 84 b 191 459 298 84 191 231 b 461 826 191 686 298 826 b 730 459 623 826 730 686 b 461 84 730 231 623 84 m 422 969 b 576 1098 502 983 576 1018 b 384 1211 576 1169 505 1206 l 372 1144 b 487 1086 450 1141 487 1122 b 409 1022 487 1051 454 1034 l 422 969 "},"Ớ":{"x_min":75.265625,"x_max":854.4375,"ha":922,"o":"m 643 1135 l 512 1135 l 390 979 l 486 979 l 643 1135 m 465 84 b 194 459 301 84 194 231 b 465 825 194 685 301 825 b 734 459 628 825 734 685 b 465 84 734 231 628 84 m 739 1032 b 758 975 750 1014 758 996 b 646 882 758 924 722 896 b 465 927 593 911 532 927 b 75 459 236 927 75 750 b 465 -17 75 166 236 -17 b 854 459 693 -17 854 166 b 711 836 854 625 800 756 b 853 982 797 857 853 903 b 821 1073 853 1017 839 1048 l 739 1032 "},"9":{"x_min":56,"x_max":622.671875,"ha":690,"o":"m 326 430 b 162 618 217 430 162 502 b 317 812 162 734 231 812 b 512 548 429 812 497 720 b 326 430 453 463 383 430 m 71 76 b 285 -16 119 23 190 -16 b 622 476 461 -16 622 120 b 317 902 622 761 492 902 b 56 618 175 902 56 787 b 307 344 56 436 154 344 b 515 458 381 344 460 387 b 281 77 511 175 406 77 b 135 148 225 77 171 105 l 71 76 "},"Ṟ":{"x_min":124.921875,"x_max":755.484375,"ha":807,"o":"m 258 -237 l 599 -237 l 599 -156 l 258 -156 l 258 -237 m 240 818 l 392 818 b 613 655 534 818 613 774 b 392 479 613 537 534 479 l 240 479 l 240 818 m 524 397 b 729 655 648 427 729 513 b 409 911 729 844 595 911 l 124 911 l 124 0 l 240 0 l 240 384 l 405 384 l 624 0 l 755 0 l 524 397 "},"l":{"x_min":113.890625,"x_max":300,"ha":354,"o":"m 113 136 b 234 -16 113 37 148 -16 b 300 -5 265 -16 284 -12 l 284 80 b 259 77 272 77 266 77 b 227 127 243 77 227 91 l 227 988 l 113 988 l 113 136 "},"⅔":{"x_min":55.5625,"x_max":1072.21875,"ha":1140,"o":"m 73 368 l 445 368 l 445 445 l 216 445 b 418 752 331 563 418 647 b 237 927 418 867 345 927 b 55 822 163 927 98 884 l 109 774 b 226 852 140 818 180 852 b 330 739 288 852 330 809 b 73 420 330 656 241 571 l 73 368 m 361 -17 l 863 927 l 786 927 l 283 -17 l 361 -17 m 679 88 b 880 -17 720 27 791 -17 b 1072 145 986 -17 1072 45 b 955 278 1072 217 1018 263 b 1051 411 1012 304 1051 347 b 877 557 1051 503 972 557 b 701 468 802 557 747 522 l 754 421 b 865 486 786 459 825 486 b 962 400 925 486 962 452 b 815 303 962 345 908 303 l 815 246 b 983 150 922 246 983 213 b 875 53 983 88 934 53 b 737 134 819 53 770 84 l 679 88 "},"Ẫ":{"x_min":4.5,"x_max":751.078125,"ha":756,"o":"m 499 1304 b 444 1241 492 1265 472 1241 b 301 1304 400 1241 368 1304 b 192 1175 237 1304 198 1248 l 251 1175 b 305 1237 257 1215 278 1237 b 448 1175 350 1237 382 1175 b 558 1304 512 1175 551 1231 l 499 1304 m 325 1127 l 197 980 l 285 980 l 372 1066 l 377 1066 l 465 980 l 553 980 l 425 1127 l 325 1127 m 239 370 l 282 509 b 372 816 315 611 344 711 l 377 816 b 469 509 407 711 436 611 l 512 370 l 239 370 m 627 0 l 751 0 l 443 911 l 312 911 l 4 0 l 122 0 l 210 277 l 541 277 l 627 0 "},"‽":{"x_min":38.296875,"x_max":534.46875,"ha":600,"o":"m 311 623 l 313 738 l 217 738 l 224 623 l 238 275 l 267 275 l 307 275 l 317 275 b 534 729 295 452 534 522 b 286 947 534 855 436 947 b 38 831 186 947 99 900 l 103 772 b 278 856 152 826 211 856 b 427 711 375 856 427 791 b 309 469 427 609 356 550 l 311 623 m 275 158 b 193 69 229 158 193 122 b 275 -16 193 19 229 -16 b 358 69 321 -16 358 19 b 275 158 358 122 321 158 "},"Ś":{"x_min":57.890625,"x_max":687.015625,"ha":742,"o":"m 57 118 b 377 -16 137 36 249 -16 b 687 243 568 -16 687 98 b 499 486 687 377 605 440 l 370 541 b 219 693 298 572 219 605 b 388 826 219 775 287 826 b 595 740 473 826 539 793 l 657 815 b 388 927 592 881 496 927 b 102 686 223 927 102 825 b 287 451 102 552 200 487 l 417 394 b 569 233 503 355 569 326 b 378 84 569 144 498 84 b 127 198 284 84 192 130 l 57 118 m 569 1136 l 438 1136 l 316 980 l 412 980 l 569 1136 "},"Ü":{"x_min":120.828125,"x_max":775,"ha":896,"o":"m 120 376 b 448 -16 120 83 262 -16 b 775 376 634 -16 775 83 l 775 911 l 663 911 l 663 373 b 448 84 663 154 569 84 b 236 373 329 84 236 154 l 236 911 l 120 911 l 120 376 m 327 993 b 395 1061 368 993 395 1022 b 327 1129 395 1101 368 1129 b 259 1061 288 1129 259 1101 b 327 993 259 1022 288 993 m 568 993 b 636 1061 606 993 636 1022 b 568 1129 636 1101 606 1129 b 500 1061 529 1129 500 1101 b 568 993 500 1022 529 993 "},"à":{"x_min":81.125,"x_max":610.296875,"ha":711,"o":"m 81 175 b 279 -16 81 54 165 -16 b 503 80 363 -16 438 27 l 506 80 l 515 0 l 610 0 l 610 413 b 375 691 610 581 540 691 b 110 604 267 691 172 644 l 156 525 b 357 597 208 561 278 597 b 496 427 467 597 496 513 b 81 175 208 395 81 322 m 193 183 b 496 352 193 269 270 325 l 496 165 b 311 75 431 106 376 75 b 193 183 245 75 193 106 m 376 795 l 464 795 l 339 991 l 220 991 l 376 795 "},"ó":{"x_min":63.890625,"x_max":688.890625,"ha":753,"o":"m 63 336 b 376 -16 63 112 211 -16 b 688 336 541 -16 688 112 b 376 691 688 562 541 691 b 63 336 211 691 63 562 m 181 336 b 376 597 181 491 261 597 b 570 336 493 597 570 491 b 376 77 570 181 493 77 b 181 336 261 77 181 181 m 530 991 l 411 991 l 286 795 l 373 795 l 530 991 "},"₀":{"x_min":48.609375,"x_max":462.5,"ha":510,"o":"m 255 -305 b 462 -16 379 -305 462 -200 b 255 269 462 166 379 269 b 48 -16 130 269 48 166 b 255 -305 48 -200 130 -305 m 255 -234 b 134 -16 183 -234 134 -161 b 255 198 134 129 183 198 b 375 -16 326 198 375 129 b 255 -234 375 -161 326 -234 "},"⟧":{"x_min":43.0625,"x_max":394.4375,"ha":525,"o":"m 394 983 l 43 983 l 43 918 l 195 918 l 195 -145 l 43 -145 l 43 -211 l 394 -211 l 394 983 m 322 918 l 322 -145 l 261 -145 l 261 918 l 322 918 "},"¦":{"x_min":127.78125,"x_max":208.328125,"ha":335,"o":"m 127 404 l 208 404 l 208 1041 l 127 1041 l 127 404 m 127 297 l 127 -347 l 208 -347 l 208 297 l 127 297 "},"̛":{"x_min":-12.5,"x_max":198.609375,"ha":0,"o":"m -1 603 b 198 759 112 614 198 658 b 166 848 198 793 184 823 l 84 809 b 104 751 95 791 104 772 b -12 659 104 694 65 669 l -1 603 "},"ᵃ":{"x_min":51.046875,"x_max":413.546875,"ha":479,"o":"m 188 358 b 328 420 245 358 291 387 l 334 420 l 344 369 l 413 369 l 413 641 b 253 827 413 759 364 827 b 69 768 181 827 114 797 l 101 709 b 241 756 138 733 192 756 b 327 654 306 756 326 713 b 51 490 135 636 51 587 b 188 358 51 411 106 358 m 213 427 b 135 497 166 427 135 448 b 327 601 135 548 184 584 l 327 483 b 213 427 287 445 251 427 "},"Ỷ":{"x_min":-1.390625,"x_max":662.5,"ha":661,"o":"m 272 0 l 388 0 l 388 352 l 662 911 l 541 911 l 425 654 b 333 455 397 587 365 523 l 327 455 b 240 654 297 523 269 587 l 122 911 l -1 911 l 272 352 l 272 0 m 291 969 b 445 1098 372 983 445 1018 b 254 1211 445 1169 375 1206 l 241 1144 b 356 1086 318 1141 356 1122 b 279 1022 356 1051 323 1034 l 291 969 "},"Ő":{"x_min":72.21875,"x_max":851.390625,"ha":922,"o":"m 461 -16 b 851 459 690 -16 851 166 b 461 927 851 750 690 927 b 72 459 231 927 72 751 b 461 -16 72 166 231 -16 m 461 84 b 191 459 298 84 191 231 b 461 826 191 686 298 826 b 730 459 623 826 730 686 b 461 84 730 231 623 84 m 393 980 l 508 1136 l 401 1136 l 309 980 l 393 980 m 529 980 l 612 980 l 727 1136 l 620 1136 l 529 980 "},"ṭ":{"x_min":33.328125,"x_max":451.390625,"ha":469,"o":"m 133 208 b 326 -16 133 75 181 -16 b 451 8 368 -16 413 -4 l 429 94 b 352 76 406 86 376 76 b 248 206 275 76 248 123 l 248 581 l 430 581 l 430 675 l 248 675 l 248 863 l 152 863 l 138 675 l 33 668 l 33 581 l 133 581 l 133 208 m 297 -286 b 372 -211 340 -286 372 -255 b 297 -137 372 -168 340 -137 b 222 -211 252 -137 222 -168 b 297 -286 222 -255 252 -286 "},"Ž":{"x_min":63.046875,"x_max":690.828125,"ha":749,"o":"m 63 0 l 690 0 l 690 98 l 206 98 l 686 843 l 686 911 l 106 911 l 106 813 l 542 813 l 63 69 l 63 0 m 486 1136 l 393 1041 l 388 1041 l 295 1136 l 201 1136 l 335 980 l 446 980 l 579 1136 l 486 1136 "},"Î":{"x_min":-5.5625,"x_max":370.828125,"ha":365,"o":"m 125 0 l 240 0 l 240 911 l 125 911 l 125 0 m 86 980 l 179 1075 l 184 1075 l 277 980 l 370 980 l 237 1136 l 127 1136 l -5 980 l 86 980 "},"e":{"x_min":63.890625,"x_max":636,"ha":689,"o":"m 63 336 b 387 -16 63 115 206 -16 b 609 52 479 -16 551 15 l 569 127 b 401 75 519 95 465 75 b 176 312 272 75 184 166 l 631 312 b 636 375 634 329 636 351 b 366 691 636 568 538 691 b 63 336 212 691 63 556 m 175 387 b 369 601 188 523 274 601 b 536 387 474 601 536 525 l 175 387 "},"Ề":{"x_min":124.78125,"x_max":663.671875,"ha":732,"o":"m 124 0 l 663 0 l 663 98 l 240 98 l 240 429 l 585 429 l 585 527 l 240 527 l 240 813 l 649 813 l 649 911 l 124 911 l 124 0 m 552 1223 l 452 1223 l 577 1069 l 649 1069 l 552 1223 m 216 980 l 303 980 l 391 1066 l 397 1066 l 484 980 l 573 980 l 444 1127 l 344 1127 l 216 980 "},"Ĕ":{"x_min":124.765625,"x_max":663.65625,"ha":732,"o":"m 124 0 l 663 0 l 663 98 l 240 98 l 240 429 l 585 429 l 585 527 l 240 527 l 240 813 l 649 813 l 649 911 l 124 911 l 124 0 m 394 983 b 565 1136 505 983 556 1058 l 495 1136 b 394 1048 487 1091 456 1048 b 294 1136 331 1048 302 1091 l 223 1136 b 394 983 233 1058 283 983 "},"ļ":{"x_min":114,"x_max":330.96875,"ha":354,"o":"m 114 136 b 235 -16 114 37 148 -16 b 300 -5 265 -16 285 -12 l 285 80 b 260 77 272 77 267 77 b 228 127 243 77 228 91 l 228 988 l 114 988 l 114 136 m 196 -66 l 171 -119 b 241 -180 211 -129 241 -144 b 118 -244 241 -216 191 -234 l 130 -300 b 330 -173 235 -291 330 -254 b 196 -66 330 -111 290 -80 "},"ị":{"x_min":93.0625,"x_max":251.390625,"ha":342,"o":"m 172 813 b 251 887 216 813 251 844 b 172 961 251 931 216 961 b 93 887 127 961 93 931 b 172 813 93 844 127 813 m 113 0 l 227 0 l 227 675 l 113 675 l 113 0 m 172 -286 b 247 -211 215 -286 247 -255 b 172 -137 247 -168 215 -137 b 97 -211 129 -137 97 -168 b 172 -286 97 -255 129 -286 "},"Ṃ":{"x_min":125.03125,"x_max":884.75,"ha":1010,"o":"m 125 0 l 231 0 l 231 501 b 216 770 231 581 222 690 l 222 770 l 294 568 l 470 91 l 536 91 l 711 568 l 784 770 l 790 770 b 775 501 783 690 775 581 l 775 0 l 884 0 l 884 911 l 748 911 l 573 422 l 509 236 l 504 236 l 437 422 l 261 911 l 125 911 l 125 0 m 506 -286 b 581 -211 550 -286 581 -255 b 506 -137 581 -168 550 -137 b 431 -211 462 -137 431 -168 b 506 -286 431 -255 462 -286 "},"ò":{"x_min":63.890625,"x_max":688.890625,"ha":753,"o":"m 63 336 b 376 -16 63 112 211 -16 b 688 336 541 -16 688 112 b 376 691 688 562 541 691 b 63 336 211 691 63 562 m 181 336 b 376 597 181 491 261 597 b 570 336 493 597 570 491 b 376 77 570 181 493 77 b 181 336 261 77 181 181 m 379 795 l 466 795 l 341 991 l 222 991 l 379 795 "},"^":{"x_min":83,"x_max":607,"ha":690,"o":"m 83 394 l 183 394 l 273 638 l 342 823 l 348 823 l 416 638 l 506 394 l 607 394 l 395 930 l 294 930 l 83 394 "},"∙":{"x_min":261.109375,"x_max":426.390625,"ha":697,"o":"m 261 451 b 343 365 261 400 298 365 b 426 451 388 365 426 400 b 343 538 426 504 388 538 b 261 451 298 538 261 504 "},"ⁿ":{"x_min":72.21875,"x_max":445.828125,"ha":513,"o":"m 72 369 l 158 369 l 158 688 b 276 754 202 733 238 754 b 359 640 344 754 359 711 l 359 369 l 445 369 l 445 652 b 304 827 445 756 408 827 b 154 752 244 827 193 794 l 148 752 l 140 816 l 72 816 l 72 369 "},"ǘ":{"x_min":104.328125,"x_max":642.890625,"ha":756,"o":"m 104 247 b 311 -16 104 75 168 -16 b 534 105 404 -16 471 31 l 538 105 l 548 0 l 642 0 l 642 675 l 529 675 l 529 195 b 346 81 464 116 415 81 b 219 262 257 81 219 136 l 219 675 l 104 675 l 104 247 m 305 1000 l 385 1000 l 530 1143 l 418 1143 l 305 1000 m 258 816 b 321 879 294 816 321 844 b 258 943 321 915 294 943 b 196 879 222 943 196 915 b 258 816 196 844 222 816 m 499 816 b 562 879 535 816 562 844 b 499 943 562 915 535 943 b 435 879 463 943 435 915 b 499 816 435 844 463 816 "},"ᵒ":{"x_min":41.671875,"x_max":463.890625,"ha":507,"o":"m 252 358 b 463 593 366 358 463 445 b 252 827 463 741 366 827 b 41 593 137 827 41 741 b 252 358 41 445 137 358 m 252 429 b 129 593 176 429 129 495 b 252 756 129 691 176 756 b 375 593 329 756 375 691 b 252 429 375 495 329 429 "},"ṉ":{"x_min":113.890625,"x_max":654.171875,"ha":760,"o":"m 113 0 l 227 0 l 227 488 b 412 593 295 556 343 593 b 540 412 501 593 540 538 l 540 0 l 654 0 l 654 427 b 448 691 654 600 590 691 b 222 577 355 691 286 641 l 218 577 l 208 675 l 113 675 l 113 0 m 556 -156 l 215 -156 l 215 -237 l 556 -237 l 556 -156 "},"ū":{"x_min":104.171875,"x_max":641.671875,"ha":756,"o":"m 104 247 b 311 -16 104 75 168 -16 b 533 105 404 -16 470 31 l 537 105 l 547 0 l 641 0 l 641 675 l 527 675 l 527 195 b 345 81 463 116 415 81 b 219 262 256 81 219 136 l 219 675 l 104 675 l 104 247 m 204 834 l 544 834 l 544 913 l 204 913 l 204 834 "},"ˆ":{"x_min":199,"x_max":556,"ha":753,"o":"m 199 795 l 280 795 l 374 922 l 379 922 l 472 795 l 556 795 l 424 991 l 329 991 l 199 795 "},"ȷ":{"x_min":-55.5625,"x_max":229.171875,"ha":343,"o":"m 115 -76 b 31 -208 115 -158 98 -208 b -31 -197 8 -208 -15 -202 l -55 -283 b 44 -301 -31 -293 2 -301 b 229 -76 179 -301 229 -213 l 229 675 l 115 675 l 115 -76 "},"Ẅ":{"x_min":31.9375,"x_max":1058.328125,"ha":1092,"o":"m 225 0 l 362 0 l 497 548 b 543 755 512 619 529 684 l 548 755 b 593 548 562 684 576 619 l 730 0 l 869 0 l 1058 911 l 947 911 l 851 415 b 800 120 833 318 816 219 l 794 120 b 727 415 772 219 750 319 l 601 911 l 495 911 l 369 415 b 305 120 348 318 326 219 l 300 120 b 247 415 283 219 263 316 l 151 911 l 31 911 l 225 0 m 426 993 b 494 1061 465 993 494 1022 b 426 1129 494 1101 465 1129 b 358 1061 386 1129 358 1101 b 426 993 358 1022 386 993 m 665 993 b 733 1061 705 993 733 1022 b 665 1129 733 1101 705 1129 b 597 1061 626 1129 597 1101 b 665 993 597 1022 626 993 "},"č":{"x_min":63.890625,"x_max":600,"ha":633,"o":"m 63 336 b 380 -16 63 112 201 -16 b 600 70 461 -16 538 16 l 548 145 b 390 77 508 109 454 77 b 181 336 266 77 181 181 b 393 597 181 491 270 597 b 529 537 447 597 488 572 l 586 611 b 388 691 540 654 477 691 b 63 336 215 691 63 562 m 340 795 l 433 795 l 565 991 l 483 991 l 390 863 l 384 863 l 291 991 l 208 991 l 340 795 "},"’":{"x_min":87.5,"x_max":268.0625,"ha":346,"o":"m 119 599 b 268 844 215 654 268 733 b 180 971 268 925 234 971 b 106 893 137 971 106 942 b 180 824 106 849 141 824 b 191 825 184 824 187 824 b 87 651 191 744 156 697 l 119 599 "},"-":{"x_min":56.9375,"x_max":376.390625,"ha":432,"o":"m 56 304 l 376 304 l 376 391 l 56 391 l 56 304 "},"Q":{"x_min":72.21875,"x_max":870.828125,"ha":922,"o":"m 191 459 b 461 826 191 686 298 826 b 730 459 623 826 730 686 b 461 79 730 226 623 79 b 191 459 298 79 191 226 m 848 -116 b 752 -130 823 -123 793 -130 b 529 -11 654 -130 570 -91 b 851 459 722 22 851 197 b 461 927 851 750 690 927 b 72 459 231 927 72 751 b 404 -12 72 191 205 15 b 740 -227 456 -137 572 -227 b 870 -206 794 -227 843 -216 l 848 -116 "},"▼":{"x_min":31.9375,"x_max":761.109375,"ha":793,"o":"m 394 41 l 400 41 l 761 726 l 761 729 l 31 729 l 31 726 l 394 41 "},"ě":{"x_min":63.890625,"x_max":636,"ha":689,"o":"m 63 336 b 387 -16 63 115 206 -16 b 609 52 479 -16 551 15 l 569 127 b 401 75 519 95 465 75 b 176 312 272 75 184 166 l 631 312 b 636 375 634 329 636 351 b 366 691 636 568 538 691 b 63 336 212 691 63 556 m 175 387 b 369 601 188 523 274 601 b 536 387 474 601 536 525 l 175 387 m 320 795 l 413 795 l 545 991 l 462 991 l 369 863 l 363 863 l 270 991 l 188 991 l 320 795 "},"œ":{"x_min":63.609375,"x_max":1113,"ha":1165,"o":"m 180 336 b 369 597 180 491 258 597 b 558 336 480 597 558 491 b 369 77 558 181 480 77 b 180 336 258 77 180 181 m 63 336 b 366 -16 63 112 203 -16 b 615 151 477 -16 562 40 b 863 -16 666 47 758 -16 b 1086 52 955 -16 1028 15 l 1044 131 b 877 76 994 100 941 76 b 665 309 762 76 670 169 l 1108 309 b 1113 373 1111 326 1113 348 b 851 691 1113 566 1018 691 b 613 522 752 691 665 627 b 369 691 565 631 471 691 b 63 336 205 691 63 562 m 665 386 b 848 601 677 518 755 601 b 1012 386 951 601 1012 525 l 665 386 "},"̦":{"x_min":-118.0625,"x_max":94.4375,"ha":0,"o":"m -40 -67 l -65 -119 b 5 -180 -26 -129 5 -144 b -118 -244 5 -217 -44 -235 l -106 -300 b 94 -173 -1 -292 94 -254 b -40 -67 94 -111 54 -80 "},"Ộ":{"x_min":72.21875,"x_max":851.390625,"ha":922,"o":"m 461 -16 b 851 459 690 -16 851 166 b 461 927 851 750 690 927 b 72 459 231 927 72 751 b 461 -16 72 166 231 -16 m 461 84 b 191 459 298 84 191 231 b 461 826 191 686 298 826 b 730 459 623 826 730 686 b 461 84 730 231 623 84 m 365 980 l 458 1075 l 463 1075 l 556 980 l 650 980 l 516 1136 l 405 1136 l 272 980 l 365 980 m 461 -286 b 536 -211 504 -286 536 -255 b 461 -137 536 -168 504 -137 b 386 -211 418 -137 386 -168 b 461 -286 386 -255 418 -286 "},"Ậ":{"x_min":4.171875,"x_max":751.390625,"ha":756,"o":"m 372 1075 l 377 1075 l 470 980 l 563 980 l 430 1136 l 320 1136 l 187 980 l 279 980 l 372 1075 m 375 -137 b 300 -211 331 -137 300 -168 b 375 -286 300 -255 331 -286 b 450 -211 419 -286 450 -255 b 375 -137 450 -168 419 -137 m 238 370 l 281 509 b 372 816 315 611 344 711 l 377 816 b 469 509 406 711 436 611 l 512 370 l 238 370 m 751 0 l 443 911 l 312 911 l 4 0 l 122 0 l 209 277 l 541 277 l 627 0 l 751 0 "},"#":{"x_min":49,"x_max":649,"ha":690,"o":"m 125 0 l 200 0 l 235 283 l 418 283 l 385 0 l 458 0 l 493 283 l 621 283 l 621 362 l 503 362 l 528 568 l 649 568 l 649 648 l 536 648 l 569 902 l 496 902 l 462 648 l 278 648 l 310 902 l 236 902 l 204 648 l 76 648 l 76 568 l 194 568 l 169 362 l 49 362 l 49 283 l 160 283 l 125 0 m 244 362 l 269 568 l 453 568 l 428 362 l 244 362 "},"Ǧ":{"x_min":72.28125,"x_max":763.953125,"ha":857,"o":"m 72 455 b 482 -16 72 158 243 -16 b 763 88 604 -16 704 27 l 763 472 l 465 472 l 465 376 l 658 376 l 658 138 b 494 84 622 105 559 84 b 191 458 300 84 191 229 b 493 826 191 684 309 826 b 687 741 584 826 641 790 l 752 815 b 491 927 700 870 616 927 b 72 455 248 927 72 748 m 587 1136 l 494 1041 l 488 1041 l 395 1136 l 302 1136 l 436 980 l 545 980 l 679 1136 l 587 1136 "},"ᵛ":{"x_min":11.390625,"x_max":435,"ha":446,"o":"m 172 369 l 273 369 l 435 816 l 350 816 l 269 572 l 226 438 l 221 438 l 178 572 l 97 816 l 11 816 l 172 369 "},"Å":{"x_min":4.171875,"x_max":751.390625,"ha":756,"o":"m 375 1163 b 440 1093 411 1163 440 1136 b 375 1020 440 1047 411 1020 b 308 1093 338 1020 308 1047 b 375 1163 308 1136 338 1163 m 375 970 b 505 1093 448 970 505 1018 b 375 1215 505 1166 448 1215 b 245 1093 300 1215 245 1166 b 375 970 245 1018 300 970 m 238 370 l 281 509 b 372 816 315 611 344 711 l 377 816 b 469 509 406 711 436 611 l 512 370 l 238 370 m 627 0 l 751 0 l 443 911 l 312 911 l 4 0 l 122 0 l 209 277 l 541 277 l 627 0 "},"ș":{"x_min":39.328125,"x_max":537.9375,"ha":582,"o":"m 39 76 b 290 -16 103 23 194 -16 b 537 184 450 -16 537 75 b 332 388 537 312 429 352 b 182 505 256 418 182 441 b 306 602 182 556 221 602 b 460 543 365 602 414 577 l 514 615 b 304 691 462 656 389 691 b 72 500 158 691 72 608 b 274 305 72 386 178 340 b 428 177 347 277 428 247 b 294 72 428 119 383 72 b 96 152 214 72 154 105 l 39 76 m 269 -66 l 243 -119 b 315 -180 283 -129 315 -144 b 192 -244 315 -216 264 -234 l 203 -300 b 404 -173 308 -291 404 -254 b 269 -66 404 -111 362 -80 "},"ǎ":{"x_min":81.125,"x_max":609.9375,"ha":711,"o":"m 81 175 b 279 -16 81 54 165 -16 b 503 80 362 -16 437 27 l 505 80 l 515 0 l 609 0 l 609 413 b 375 691 609 581 540 691 b 110 604 267 691 172 644 l 156 525 b 357 597 208 561 278 597 b 496 427 466 597 496 513 b 81 175 208 395 81 322 m 193 183 b 496 352 193 269 269 325 l 496 165 b 311 75 430 106 376 75 b 193 183 244 75 193 106 m 326 795 l 421 795 l 553 991 l 469 991 l 376 863 l 371 863 l 278 991 l 196 991 l 326 795 "},"ˈ":{"x_min":30.5625,"x_max":127.78125,"ha":158,"o":"m 38 740 l 119 740 l 127 994 l 30 994 l 38 740 "},"₈":{"x_min":62.5,"x_max":444.4375,"ha":510,"o":"m 145 -144 b 220 -33 145 -100 172 -61 b 361 -145 294 -62 361 -79 b 252 -240 361 -197 312 -240 b 145 -144 188 -240 145 -194 m 284 20 b 166 125 219 43 166 70 b 252 202 166 169 205 202 b 343 123 302 202 343 172 b 284 20 343 87 325 52 m 62 -152 b 252 -305 62 -236 138 -305 b 444 -150 362 -305 444 -237 b 343 -9 444 -83 405 -40 l 343 -4 b 426 127 380 20 426 63 b 252 269 426 213 350 269 b 84 127 159 269 84 212 b 165 2 84 69 118 34 l 165 -2 b 62 -152 112 -31 62 -84 "},"¸":{"x_min":268.421875,"x_max":479.734375,"ha":753,"o":"m 303 -104 b 392 -172 360 -118 392 -136 b 268 -239 392 -209 340 -229 l 279 -296 b 479 -168 383 -286 479 -248 b 397 -69 479 -111 443 -84 l 433 4 l 358 4 l 303 -104 "},"=":{"x_min":47.21875,"x_max":643.0625,"ha":690,"o":"m 47 563 l 643 563 l 643 650 l 47 650 l 47 563 m 47 266 l 643 266 l 643 352 l 47 352 l 47 266 "},"Ǖ":{"x_min":120.828125,"x_max":775,"ha":896,"o":"m 120 376 b 448 -16 120 83 262 -16 b 775 376 634 -16 775 83 l 775 911 l 663 911 l 663 373 b 448 84 663 154 569 84 b 236 373 329 84 236 154 l 236 911 l 120 911 l 120 376 m 276 1195 l 620 1195 l 620 1259 l 276 1259 l 276 1195 m 327 993 b 391 1056 365 993 391 1019 b 327 1119 391 1093 365 1119 b 265 1056 291 1119 265 1093 b 327 993 265 1019 291 993 m 568 993 b 630 1056 604 993 630 1019 b 568 1119 630 1093 604 1119 b 505 1056 531 1119 505 1093 b 568 993 505 1019 531 993 "},"ạ":{"x_min":81.125,"x_max":610.296875,"ha":711,"o":"m 81 175 b 279 -16 81 54 165 -16 b 503 80 363 -16 438 27 l 506 80 l 515 0 l 610 0 l 610 413 b 375 691 610 581 540 691 b 110 604 267 691 172 644 l 156 525 b 357 597 208 561 278 597 b 496 427 467 597 496 513 b 81 175 208 395 81 322 m 193 183 b 496 352 193 269 270 325 l 496 165 b 311 75 431 106 376 75 b 193 183 245 75 193 106 m 351 -286 b 426 -211 395 -286 426 -255 b 351 -137 426 -168 395 -137 b 276 -211 308 -137 276 -168 b 351 -286 276 -255 308 -286 "},"ú":{"x_min":104.390625,"x_max":641.890625,"ha":756,"o":"m 104 247 b 311 -16 104 75 168 -16 b 533 105 404 -16 471 31 l 537 105 l 547 0 l 641 0 l 641 675 l 528 675 l 528 195 b 346 81 464 116 415 81 b 219 262 257 81 219 136 l 219 675 l 104 675 l 104 247 m 532 991 l 414 991 l 287 795 l 375 795 l 532 991 "},"˚":{"x_min":247.21875,"x_max":506.9375,"ha":753,"o":"m 376 752 b 506 881 451 752 506 804 b 376 1009 506 958 451 1009 b 247 881 301 1009 247 958 b 376 752 247 804 301 752 m 376 804 b 309 881 338 804 309 834 b 376 958 309 927 338 958 b 443 881 413 958 443 927 b 376 804 443 834 413 804 "},"¯":{"x_min":206.9375,"x_max":547.21875,"ha":753,"o":"m 206 834 l 547 834 l 547 913 l 206 913 l 206 834 "},"u":{"x_min":104.171875,"x_max":641.671875,"ha":756,"o":"m 104 247 b 311 -16 104 75 168 -16 b 533 105 404 -16 470 31 l 537 105 l 547 0 l 641 0 l 641 675 l 527 675 l 527 195 b 345 81 463 116 415 81 b 219 262 256 81 219 136 l 219 675 l 104 675 l 104 247 "},"ṛ":{"x_min":94.4375,"x_max":486.109375,"ha":482,"o":"m 113 0 l 227 0 l 227 433 b 398 588 273 547 341 588 b 463 577 426 588 441 584 l 486 677 b 413 691 463 687 443 691 b 222 552 337 691 268 637 l 218 552 l 208 675 l 113 675 l 113 0 m 169 -286 b 244 -211 212 -286 244 -255 b 169 -137 244 -168 212 -137 b 94 -211 126 -137 94 -168 b 169 -286 94 -255 126 -286 "},"⅝":{"x_min":48.609375,"x_max":1073.609375,"ha":1140,"o":"m 48 460 b 254 353 91 399 158 353 b 448 540 363 353 448 429 b 270 722 448 657 368 722 b 183 702 238 722 209 714 l 198 833 l 420 833 l 420 911 l 125 911 l 100 650 l 143 620 b 245 663 172 643 202 663 b 359 543 312 663 359 618 b 248 424 359 475 312 424 b 108 504 186 424 143 454 l 48 460 m 355 -16 l 858 927 l 780 927 l 277 -16 l 355 -16 m 775 143 b 850 256 775 188 801 227 b 990 142 923 225 990 209 b 883 49 990 90 943 49 b 775 143 818 49 775 95 m 915 310 b 797 414 848 331 797 359 b 883 490 797 459 834 490 b 973 413 933 490 973 460 b 915 310 973 377 954 340 m 691 135 b 883 -16 691 53 768 -16 b 1073 139 991 -16 1073 52 b 973 279 1073 204 1034 247 l 973 285 b 1055 415 1009 310 1055 353 b 883 559 1055 503 980 559 b 713 415 788 559 713 502 b 794 292 713 359 747 322 l 794 286 b 691 135 741 256 691 203 "},"ẻ":{"x_min":63.890625,"x_max":636,"ha":689,"o":"m 63 336 b 387 -16 63 115 206 -16 b 609 52 479 -16 551 15 l 569 127 b 401 75 519 95 465 75 b 176 312 272 75 184 166 l 631 312 b 636 375 634 329 636 351 b 366 691 636 568 538 691 b 63 336 212 691 63 556 m 175 387 b 369 601 188 523 274 601 b 536 387 474 601 536 525 l 175 387 m 329 768 b 481 897 409 781 481 816 b 290 1009 481 968 411 1005 l 277 943 b 393 884 355 940 393 920 b 315 820 393 850 359 833 l 329 768 "},"ẗ":{"x_min":12.5,"x_max":451.390625,"ha":469,"o":"m 133 208 b 326 -16 133 75 181 -16 b 451 8 368 -16 413 -4 l 429 94 b 352 76 406 86 376 76 b 248 206 275 76 248 123 l 248 581 l 430 581 l 430 675 l 248 675 l 248 863 l 152 863 l 138 675 l 33 668 l 33 581 l 133 581 l 133 208 m 79 1005 b 147 1073 119 1005 147 1034 b 79 1141 147 1111 119 1141 b 12 1073 40 1141 12 1111 b 79 1005 12 1034 40 1005 m 319 1005 b 387 1073 358 1005 387 1034 b 319 1141 387 1111 358 1141 b 251 1073 280 1141 251 1111 b 319 1005 251 1034 280 1005 "},"ʿ":{"x_min":27.78125,"x_max":181.9375,"ha":225,"o":"m 181 1009 b 27 881 83 1012 27 961 b 181 752 27 801 83 750 l 181 802 b 93 881 118 802 93 834 b 181 959 93 927 118 959 l 181 1009 "},"ẵ":{"x_min":81.125,"x_max":609.171875,"ha":711,"o":"m 81 175 b 279 -16 81 54 165 -16 b 502 80 362 -16 437 27 l 505 80 l 514 0 l 609 0 l 609 413 b 375 691 609 581 539 691 b 110 604 267 691 172 644 l 156 525 b 357 597 208 561 278 597 b 495 427 466 597 495 513 b 81 175 208 395 81 322 m 194 183 b 495 352 194 269 270 325 l 495 165 b 311 75 430 106 376 75 b 194 183 245 75 194 106 m 373 798 b 546 947 492 798 541 873 l 484 947 b 373 861 476 902 442 861 b 263 947 304 861 271 902 l 200 947 b 373 798 207 873 254 798 m 194 987 l 250 987 b 304 1047 257 1027 278 1047 b 445 987 350 1047 376 987 b 555 1113 509 987 548 1040 l 496 1113 b 442 1054 490 1073 470 1054 b 301 1113 398 1054 371 1113 b 194 987 238 1113 200 1061 "},"ữ":{"x_min":104.171875,"x_max":768.0625,"ha":756,"o":"m 497 951 b 447 880 490 904 473 880 b 288 951 401 880 358 951 b 175 804 219 951 183 887 l 240 804 b 291 875 248 851 263 875 b 448 804 337 875 379 804 b 562 951 518 804 554 868 l 497 951 m 654 825 b 673 766 665 806 673 787 b 556 675 673 704 622 681 l 527 675 l 527 195 b 345 81 463 116 415 81 b 219 262 256 81 219 136 l 219 675 l 104 675 l 104 247 b 311 -16 104 75 168 -16 b 533 105 404 -16 470 31 l 537 105 l 547 0 l 641 0 l 641 631 b 768 775 704 650 768 690 b 736 865 768 809 754 840 l 654 825 "},"é":{"x_min":63.890625,"x_max":636,"ha":689,"o":"m 63 336 b 387 -16 63 115 206 -16 b 609 52 479 -16 551 15 l 569 127 b 401 75 519 95 465 75 b 176 312 272 75 184 166 l 631 312 b 636 375 634 329 636 351 b 366 691 636 568 538 691 b 63 336 212 691 63 556 m 175 387 b 369 601 188 523 274 601 b 536 387 474 601 536 525 l 175 387 m 520 991 l 402 991 l 276 795 l 363 795 l 520 991 "},"Ş":{"x_min":58.625,"x_max":687.015625,"ha":742,"o":"m 370 541 b 219 692 298 572 219 605 b 389 826 219 774 287 826 b 595 740 473 826 540 792 l 657 815 b 389 927 592 881 497 927 b 103 685 223 927 103 824 b 287 451 103 552 201 487 l 418 394 b 569 233 504 355 569 326 b 379 84 569 144 498 84 b 128 198 285 84 193 130 l 58 117 b 341 -15 130 44 229 -7 l 296 -104 b 385 -172 353 -118 385 -136 b 261 -239 385 -209 333 -229 l 272 -296 b 473 -168 376 -286 473 -248 b 390 -69 473 -111 436 -84 l 416 -15 b 687 242 585 0 687 108 b 499 485 687 377 605 440 l 370 541 "},"↓":{"x_min":58.328125,"x_max":801.390625,"ha":860,"o":"m 431 -34 l 801 344 l 736 402 l 476 123 l 476 731 l 381 731 l 381 123 l 122 402 l 58 344 l 426 -34 l 431 -34 "},"B":{"x_min":125,"x_max":761.109375,"ha":817,"o":"m 125 0 l 415 0 b 761 266 619 0 761 87 b 550 484 761 391 683 463 l 550 490 b 708 688 656 518 708 598 b 395 911 708 848 580 911 l 125 911 l 125 0 m 240 522 l 240 819 l 380 819 b 594 679 522 819 594 777 b 375 522 594 577 530 522 l 240 522 m 240 91 l 240 436 l 398 436 b 647 272 558 436 647 384 b 398 91 647 148 555 91 l 240 91 "},"…":{"x_min":130.5625,"x_max":1226.390625,"ha":1317,"o":"m 130 69 b 213 -16 130 19 168 -16 b 295 69 258 -16 295 19 b 213 158 295 122 258 158 b 130 69 168 158 130 122 m 595 69 b 679 -16 595 19 633 -16 b 761 69 723 -16 761 19 b 679 158 761 122 723 158 b 595 69 633 158 595 122 m 1061 69 b 1144 -16 1061 19 1098 -16 b 1226 69 1188 -16 1226 19 b 1144 158 1226 122 1188 158 b 1061 69 1098 158 1061 122 "},"Ủ":{"x_min":120.828125,"x_max":775,"ha":896,"o":"m 120 376 b 448 -16 120 83 262 -16 b 775 376 634 -16 775 83 l 775 911 l 663 911 l 663 373 b 448 84 663 154 569 84 b 236 373 329 84 236 154 l 236 911 l 120 911 l 120 376 m 409 969 b 563 1098 490 983 563 1018 b 370 1211 563 1169 493 1206 l 359 1144 b 475 1086 436 1141 475 1122 b 395 1022 475 1051 440 1034 l 409 969 "},"H":{"x_min":125,"x_max":780.5625,"ha":906,"o":"m 125 0 l 240 0 l 240 429 l 663 429 l 663 0 l 780 0 l 780 911 l 663 911 l 663 529 l 240 529 l 240 911 l 125 911 l 125 0 "},"î":{"x_min":-6.9375,"x_max":350,"ha":342,"o":"m 113 0 l 227 0 l 227 675 l 113 675 l 113 0 m -6 795 l 75 795 l 168 922 l 173 922 l 266 795 l 350 795 l 218 991 l 123 991 l -6 795 "},"ư":{"x_min":104.171875,"x_max":768.0625,"ha":756,"o":"m 654 825 b 673 766 665 806 673 787 b 556 675 673 704 622 681 l 527 675 l 527 195 b 345 81 463 116 415 81 b 219 262 256 81 219 136 l 219 675 l 104 675 l 104 247 b 311 -16 104 75 168 -16 b 533 105 404 -16 470 31 l 537 105 l 547 0 l 641 0 l 641 631 b 768 775 704 650 768 690 b 736 865 768 809 754 840 l 654 825 "},"−":{"x_min":47.21875,"x_max":643.0625,"ha":690,"o":"m 47 415 l 643 415 l 643 501 l 47 501 l 47 415 "},"⅜":{"x_min":48.609375,"x_max":1073.609375,"ha":1140,"o":"m 48 459 b 250 352 90 398 162 352 b 443 515 355 352 443 415 b 326 650 443 587 387 633 b 420 781 381 675 420 718 b 248 927 420 873 341 927 b 70 838 173 927 118 893 l 125 791 b 234 856 155 830 194 856 b 333 770 294 856 333 823 b 186 673 333 715 279 673 l 186 616 b 354 520 291 616 354 583 b 245 423 354 459 304 423 b 108 504 188 423 141 454 l 48 459 m 355 -16 l 858 927 l 780 927 l 277 -16 l 355 -16 m 775 143 b 850 255 775 187 801 226 b 990 141 923 225 990 208 b 883 48 990 90 943 48 b 775 143 818 48 775 94 m 915 309 b 797 413 848 330 797 358 b 883 490 797 458 834 490 b 973 412 933 490 973 459 b 915 309 973 376 954 340 m 691 134 b 883 -16 691 52 768 -16 b 1073 138 991 -16 1073 51 b 973 279 1073 204 1034 247 l 973 284 b 1055 415 1009 309 1055 352 b 883 558 1055 502 980 558 b 713 415 788 558 713 501 b 794 291 713 358 747 322 l 794 286 b 691 134 741 255 691 202 "},"ǫ":{"x_min":64.421875,"x_max":689.421875,"ha":753,"o":"m 285 -168 b 410 -286 285 -245 340 -286 b 519 -248 446 -286 493 -269 l 490 -191 b 433 -209 472 -202 456 -209 b 369 -145 400 -209 369 -188 b 468 -5 369 -93 406 -34 b 689 336 600 54 689 148 b 376 691 689 562 542 691 b 64 336 211 691 64 562 b 363 -15 64 122 200 -6 b 285 -168 331 -41 285 -98 m 182 336 b 376 597 182 491 261 597 b 571 336 493 597 571 491 b 376 77 571 181 493 77 b 182 336 261 77 182 181 "},"̒":{"x_min":-73.609375,"x_max":63.890625,"ha":0,"o":"m 38 1017 b -73 853 -40 980 -73 918 b -2 757 -73 790 -48 757 b 52 819 27 757 52 778 b -4 874 52 855 23 874 b -15 872 -8 874 -11 874 b 63 972 -12 914 11 947 l 38 1017 "},"⌝":{"x_min":43.0625,"x_max":290.28125,"ha":421,"o":"m 290 956 l 43 956 l 43 891 l 204 891 l 204 0 l 290 0 l 290 956 "},"ā":{"x_min":81.125,"x_max":610.296875,"ha":711,"o":"m 81 175 b 279 -16 81 54 165 -16 b 503 80 363 -16 438 27 l 506 80 l 515 0 l 610 0 l 610 413 b 375 691 610 581 540 691 b 110 604 267 691 172 644 l 156 525 b 357 597 208 561 278 597 b 496 427 467 597 496 513 b 81 175 208 395 81 322 m 193 183 b 496 352 193 269 270 325 l 496 165 b 311 75 431 106 376 75 b 193 183 245 75 193 106 m 204 834 l 545 834 l 545 913 l 204 913 l 204 834 "},"ĵ":{"x_min":-55.5625,"x_max":350,"ha":343,"o":"m 115 -76 b 31 -208 115 -158 98 -208 b -31 -197 8 -208 -15 -202 l -55 -283 b 44 -301 -31 -293 2 -301 b 229 -76 179 -301 229 -213 l 229 675 l 115 675 l 115 -76 m -6 795 l 76 795 l 169 922 l 175 922 l 268 795 l 350 795 l 219 991 l 125 991 l -6 795 "},"Ĩ":{"x_min":-18,"x_max":384,"ha":365,"o":"m 125 0 l 240 0 l 240 911 l 125 911 l 125 0 m 267 987 b 384 1137 332 987 375 1052 l 321 1137 b 264 1065 313 1091 292 1065 b 98 1137 212 1065 172 1137 b -18 987 33 1137 -9 1073 l 44 987 b 101 1059 52 1034 73 1059 b 267 987 153 1059 193 987 "},"←":{"x_min":36,"x_max":804.03125,"ha":860,"o":"m 36 347 l 415 -20 l 473 43 l 194 302 l 804 302 l 804 397 l 194 397 l 473 656 l 415 720 l 36 352 l 36 347 "},"*":{"x_min":80.5625,"x_max":500,"ha":581,"o":"m 191 583 l 290 702 l 388 583 l 443 623 l 365 754 l 500 809 l 479 873 l 336 840 l 323 988 l 255 988 l 243 839 l 101 873 l 80 809 l 215 754 l 136 623 l 191 583 "},"ă":{"x_min":81.125,"x_max":609.71875,"ha":711,"o":"m 81 175 b 279 -16 81 54 165 -16 b 502 80 362 -16 437 27 l 505 80 l 515 0 l 609 0 l 609 413 b 375 691 609 581 540 691 b 110 604 267 691 172 644 l 156 525 b 357 597 208 561 278 597 b 495 427 466 597 495 513 b 81 175 208 395 81 322 m 193 183 b 495 352 193 269 269 325 l 495 165 b 311 75 430 106 376 75 b 193 183 244 75 193 106 m 373 798 b 550 975 493 798 543 893 l 477 975 b 373 869 470 920 439 869 b 269 975 308 869 276 920 l 199 975 b 373 798 204 893 254 798 "},"†":{"x_min":75,"x_max":555.5625,"ha":631,"o":"m 266 -111 l 363 -111 l 356 681 l 555 675 l 555 773 l 356 766 l 363 988 l 266 988 l 273 766 l 75 773 l 75 675 l 273 681 l 266 -111 "},"°":{"x_min":56.9375,"x_max":404.171875,"ha":460,"o":"m 230 595 b 404 772 323 595 404 665 b 230 951 404 881 323 951 b 56 772 137 951 56 881 b 230 595 56 665 137 595 m 230 659 b 126 772 169 659 126 706 b 230 887 126 840 169 887 b 334 772 291 887 334 840 b 230 659 334 706 291 659 "},"ồ":{"x_min":63.890625,"x_max":688.890625,"ha":753,"o":"m 63 336 b 376 -16 63 112 211 -16 b 688 336 541 -16 688 112 b 376 691 688 562 541 691 b 63 336 211 691 63 562 m 181 336 b 376 597 181 491 261 597 b 570 336 493 597 570 491 b 376 77 570 181 493 77 b 181 336 261 77 181 181 m 215 795 l 293 795 l 373 897 l 379 897 l 461 795 l 538 795 l 423 961 l 329 961 l 215 795 m 554 1047 l 456 1047 l 584 888 l 655 888 l 554 1047 "},"Ķ":{"x_min":124.6875,"x_max":798.296875,"ha":804,"o":"m 124 0 l 239 0 l 239 288 l 396 473 l 669 0 l 798 0 l 469 563 l 753 911 l 623 911 l 244 454 l 239 454 l 239 911 l 124 911 l 124 0 m 412 -66 l 387 -119 b 458 -180 426 -129 458 -144 b 334 -244 458 -216 406 -234 l 345 -300 b 546 -173 451 -291 546 -254 b 412 -66 546 -111 505 -80 "},"ŵ":{"x_min":33.140625,"x_max":964,"ha":997,"o":"m 220 0 l 353 0 l 448 361 b 495 556 466 425 480 488 l 501 556 b 547 362 517 488 530 426 l 644 0 l 783 0 l 964 675 l 855 675 l 756 284 b 715 97 743 220 730 159 l 709 97 b 662 284 694 159 679 220 l 556 675 l 445 675 l 341 284 b 295 97 324 222 310 159 l 290 97 b 249 284 277 159 265 220 l 149 675 l 33 675 l 220 0 m 322 795 l 404 795 l 497 922 l 502 922 l 595 795 l 679 795 l 547 991 l 452 991 l 322 795 "},"Ļ":{"x_min":125,"x_max":638.890625,"ha":675,"o":"m 125 0 l 638 0 l 638 98 l 240 98 l 240 911 l 125 911 l 125 0 m 359 -66 l 334 -119 b 405 -180 373 -129 405 -144 b 281 -244 405 -216 354 -234 l 293 -300 b 494 -173 398 -291 494 -254 b 359 -66 494 -111 452 -80 "},"Õ":{"x_min":72.5,"x_max":851.890625,"ha":922,"o":"m 461 -16 b 851 459 690 -16 851 166 b 461 927 851 750 690 927 b 72 459 232 927 72 751 b 461 -16 72 166 232 -16 m 461 84 b 191 459 298 84 191 231 b 461 826 191 686 298 826 b 731 459 624 826 731 686 b 461 84 731 231 624 84 m 544 987 b 663 1137 611 987 654 1052 l 599 1137 b 543 1065 592 1091 569 1065 b 378 1137 492 1065 451 1137 b 260 987 311 1137 268 1073 l 323 987 b 380 1059 332 1034 353 1059 b 544 987 430 1059 472 987 "},"ẏ":{"x_min":17.171875,"x_max":632.4375,"ha":649,"o":"m 68 -186 l 46 -276 b 125 -290 68 -284 94 -290 b 378 -55 261 -290 331 -188 l 632 675 l 521 675 l 400 301 b 343 111 382 241 363 172 l 338 111 b 272 301 317 173 293 243 l 135 675 l 17 675 l 288 -1 l 272 -51 b 119 -195 244 -134 196 -195 b 68 -186 103 -195 82 -190 m 338 813 b 413 888 381 813 413 844 b 338 963 413 931 381 963 b 263 888 294 963 263 931 b 338 813 263 844 294 813 "},"⌞":{"x_min":130.5625,"x_max":379.171875,"ha":421,"o":"m 130 -72 l 379 -72 l 379 -6 l 216 -6 l 216 886 l 130 886 l 130 -72 "},"Ľ":{"x_min":125,"x_max":638.890625,"ha":675,"o":"m 125 0 l 638 0 l 638 98 l 240 98 l 240 911 l 125 911 l 125 0 m 519 713 l 538 929 l 540 1008 l 458 1008 l 462 713 l 519 713 "},"ť":{"x_min":33.328125,"x_max":451.390625,"ha":469,"o":"m 133 208 b 326 -16 133 75 181 -16 b 451 8 368 -16 413 -4 l 429 94 b 352 76 406 86 376 76 b 248 206 275 76 248 123 l 248 581 l 430 581 l 430 675 l 248 675 l 248 863 l 152 863 l 138 675 l 33 668 l 33 581 l 133 581 l 133 208 m 412 761 l 431 976 l 433 1055 l 351 1055 l 355 761 l 412 761 "},"ḵ":{"x_min":114.6875,"x_max":675.796875,"ha":688,"o":"m 114 0 l 227 0 l 227 177 l 353 325 l 550 0 l 675 0 l 418 404 l 645 675 l 518 675 l 231 319 l 227 319 l 227 988 l 114 988 l 114 0 m 548 -156 l 204 -156 l 204 -237 l 548 -237 l 548 -156 "},"5":{"x_min":34.71875,"x_max":623.609375,"ha":690,"o":"m 34 104 b 325 -16 95 43 183 -16 b 623 283 479 -16 623 91 b 348 561 623 474 500 561 b 212 524 294 561 254 547 l 236 787 l 579 787 l 579 886 l 136 886 l 106 459 l 168 420 b 319 474 220 455 258 474 b 508 280 433 474 508 402 b 313 77 508 156 422 77 b 90 179 209 77 143 126 l 34 104 "},"o":{"x_min":63.890625,"x_max":688.890625,"ha":753,"o":"m 63 336 b 376 -16 63 112 211 -16 b 688 336 541 -16 688 112 b 376 691 688 562 541 691 b 63 336 211 691 63 562 m 181 336 b 376 597 181 491 261 597 b 570 336 493 597 570 491 b 376 77 570 181 493 77 b 181 336 261 77 181 181 "},"̆":{"x_min":-175,"x_max":175,"ha":0,"o":"m 0 798 b 175 975 119 798 169 893 l 104 975 b 0 869 97 920 65 869 b -104 975 -65 869 -97 920 l -175 975 b 0 798 -169 893 -119 798 "},"Ǐ":{"x_min":-5.5625,"x_max":370.828125,"ha":365,"o":"m 125 0 l 240 0 l 240 911 l 125 911 l 125 0 m 277 1136 l 184 1041 l 179 1041 l 86 1136 l -5 1136 l 127 980 l 237 980 l 370 1136 l 277 1136 "},"̧":{"x_min":-117.609375,"x_max":94.9375,"ha":0,"o":"m -81 -104 b 6 -172 -25 -118 6 -136 b -117 -239 6 -209 -43 -229 l -106 -296 b 94 -168 0 -286 94 -248 b 12 -69 94 -111 57 -84 l 47 4 l -25 4 l -81 -104 "},"₲":{"x_min":65.40625,"x_max":639.015625,"ha":690,"o":"m 394 459 l 394 363 l 534 363 l 534 129 b 407 77 509 101 459 77 b 182 445 265 77 182 218 b 416 811 182 669 265 811 b 566 727 479 811 525 777 l 634 791 b 443 901 587 848 520 894 l 443 1038 l 359 1038 l 359 898 b 65 441 179 868 65 700 b 359 -13 65 175 184 8 l 359 -152 l 443 -152 l 443 -13 b 639 84 518 -5 586 29 l 639 459 l 394 459 "},"d":{"x_min":65.28125,"x_max":656.953125,"ha":771,"o":"m 65 336 b 344 -16 65 111 175 -16 b 548 79 423 -16 495 27 l 552 79 l 562 0 l 656 0 l 656 988 l 541 988 l 541 729 l 547 614 b 358 691 487 662 436 691 b 65 336 204 691 65 555 m 183 337 b 377 596 183 491 269 596 b 541 525 433 596 484 576 l 541 172 b 369 79 486 109 431 79 b 183 337 251 79 183 176 "},",":{"x_min":65.28125,"x_max":275,"ha":346,"o":"m 93 -235 b 275 24 205 -188 275 -95 b 179 158 275 107 238 158 b 94 78 133 158 94 128 b 176 -1 94 26 131 -1 b 190 0 180 -1 186 -1 b 65 -169 190 -74 143 -134 l 93 -235 "},"▽":{"x_min":31.859375,"x_max":761.03125,"ha":793,"o":"m 619 648 l 397 212 l 176 648 l 619 648 m 31 726 l 394 40 l 399 40 l 761 726 l 761 729 l 31 729 l 31 726 "},"\"":{"x_min":111.109375,"x_max":477.78125,"ha":592,"o":"m 137 598 l 206 598 l 229 830 l 233 958 l 111 958 l 115 830 l 137 598 m 381 598 l 452 598 l 475 830 l 477 958 l 356 958 l 359 830 l 381 598 "},"ľ":{"x_min":113.890625,"x_max":383.328125,"ha":368,"o":"m 113 136 b 234 -16 113 37 148 -16 b 300 -5 265 -16 284 -12 l 284 80 b 259 77 272 77 266 77 b 227 127 243 77 227 91 l 227 988 l 113 988 l 113 136 m 363 761 l 383 976 l 383 1055 l 302 1055 l 306 761 l 363 761 "},"ė":{"x_min":63.890625,"x_max":636,"ha":689,"o":"m 63 336 b 387 -16 63 115 206 -16 b 609 52 479 -16 551 15 l 569 127 b 401 75 519 95 465 75 b 176 312 272 75 184 166 l 631 312 b 636 375 634 329 636 351 b 366 691 636 568 538 691 b 63 336 212 691 63 556 m 175 387 b 369 601 188 523 274 601 b 536 387 474 601 536 525 l 175 387 m 366 813 b 441 888 411 813 441 844 b 366 963 441 931 411 963 b 291 888 323 963 291 931 b 366 813 291 844 323 813 "},"ề":{"x_min":63.890625,"x_max":645.71875,"ha":689,"o":"m 63 336 b 387 -16 63 115 206 -16 b 609 52 479 -16 551 15 l 569 127 b 401 75 519 95 465 75 b 176 312 272 75 184 166 l 631 312 b 636 375 634 329 636 351 b 366 691 636 568 538 691 b 63 336 212 691 63 556 m 175 387 b 369 601 188 523 274 601 b 536 387 474 601 536 525 l 175 387 m 205 795 l 283 795 l 363 897 l 369 897 l 451 795 l 529 795 l 413 961 l 320 961 l 205 795 m 544 1047 l 447 1047 l 574 888 l 645 888 l 544 1047 "},"₺":{"x_min":31.9375,"x_max":645.828125,"ha":690,"o":"m 276 91 l 276 419 l 504 540 l 504 612 l 276 493 l 276 593 l 504 712 l 504 786 l 276 666 l 276 886 l 159 886 l 159 609 l 31 541 l 31 469 l 159 536 l 159 436 l 31 369 l 31 295 l 159 362 l 159 -16 b 645 325 437 -22 645 90 b 636 404 645 348 643 372 l 538 379 b 545 319 545 352 545 334 b 276 91 545 173 398 95 "},"Í":{"x_min":111.109375,"x_max":363.890625,"ha":365,"o":"m 125 0 l 240 0 l 240 911 l 125 911 l 125 0 m 363 1136 l 233 1136 l 111 980 l 206 980 l 363 1136 "},"⁾":{"x_min":54.171875,"x_max":238.890625,"ha":329,"o":"m 54 531 l 119 501 b 238 881 195 613 238 724 b 119 1259 238 1036 195 1146 l 54 1228 b 152 881 125 1120 152 1003 b 54 531 152 757 125 642 "},"Ú":{"x_min":120.828125,"x_max":775,"ha":896,"o":"m 120 376 b 448 -16 120 83 262 -16 b 775 376 634 -16 775 83 l 775 911 l 663 911 l 663 373 b 448 84 663 154 569 84 b 236 373 329 84 236 154 l 236 911 l 120 911 l 120 376 m 630 1136 l 500 1136 l 377 980 l 473 980 l 630 1136 "},"Ơ":{"x_min":75.265625,"x_max":854.4375,"ha":922,"o":"m 465 84 b 194 459 301 84 194 231 b 465 825 194 685 301 825 b 734 459 628 825 734 685 b 465 84 734 231 628 84 m 739 1032 b 758 975 750 1014 758 996 b 646 882 758 924 722 896 b 465 927 593 911 532 927 b 75 459 236 927 75 750 b 465 -17 75 166 236 -17 b 854 459 693 -17 854 166 b 711 836 854 625 800 756 b 853 982 797 857 853 903 b 821 1073 853 1017 839 1048 l 739 1032 "},"Ŷ":{"x_min":-1.390625,"x_max":662.5,"ha":661,"o":"m 272 0 l 388 0 l 388 352 l 662 911 l 541 911 l 425 654 b 333 455 397 587 365 523 l 327 455 b 240 654 297 523 269 587 l 122 911 l -1 911 l 272 352 l 272 0 m 234 980 l 327 1075 l 333 1075 l 426 980 l 519 980 l 386 1136 l 275 1136 l 141 980 l 234 980 "},"Ự":{"x_min":120.828125,"x_max":927.78125,"ha":915,"o":"m 447 -137 b 372 -211 404 -137 372 -168 b 447 -286 372 -255 404 -286 b 522 -211 490 -286 522 -255 b 447 -137 522 -168 490 -137 m 813 1061 b 834 1004 826 1043 834 1025 b 709 911 834 940 786 918 l 663 911 l 663 373 b 448 84 663 154 569 84 b 236 373 329 84 236 154 l 236 911 l 120 911 l 120 376 b 448 -16 120 83 262 -16 b 775 376 634 -16 775 83 l 775 861 b 927 1011 856 879 927 919 b 895 1101 927 1045 915 1076 l 813 1061 "},"Ý":{"x_min":-1.390625,"x_max":662.5,"ha":661,"o":"m 272 0 l 388 0 l 388 352 l 662 911 l 541 911 l 425 654 b 333 455 397 587 365 523 l 327 455 b 240 654 297 523 269 587 l 122 911 l -1 911 l 272 352 l 272 0 m 512 1136 l 381 1136 l 259 980 l 355 980 l 512 1136 "},"ŝ":{"x_min":38.796875,"x_max":537.9375,"ha":582,"o":"m 38 76 b 290 -16 102 23 194 -16 b 537 184 450 -16 537 75 b 332 388 537 312 429 352 b 181 505 255 418 181 441 b 305 602 181 556 220 602 b 460 543 365 602 414 577 l 514 615 b 304 691 462 656 389 691 b 72 500 158 691 72 608 b 273 305 72 386 177 340 b 428 177 347 277 428 247 b 294 72 428 119 383 72 b 95 152 213 72 154 105 l 38 76 m 126 795 l 209 795 l 302 922 l 308 922 l 401 795 l 483 795 l 352 991 l 258 991 l 126 795 "},"ǧ":{"x_min":62.734375,"x_max":683.53125,"ha":700,"o":"m 162 -113 b 232 0 162 -75 183 -34 b 319 -11 261 -8 293 -11 l 436 -11 b 572 -94 523 -11 572 -31 b 358 -231 572 -165 487 -231 b 162 -113 236 -231 162 -186 m 62 -129 b 341 -311 62 -245 176 -311 b 683 -77 551 -311 683 -202 b 447 83 683 34 604 83 l 316 83 b 197 156 225 83 197 113 b 240 237 197 194 216 216 b 341 213 271 222 308 213 b 589 448 479 213 589 304 b 533 587 589 505 565 556 l 672 587 l 672 675 l 437 675 b 341 691 412 684 379 691 b 87 451 204 691 87 598 b 175 269 87 370 130 305 l 175 263 b 101 138 140 240 101 195 b 161 29 101 86 128 50 l 161 23 b 62 -129 100 -18 62 -72 m 341 290 b 198 451 264 290 198 352 b 341 608 198 549 262 608 b 484 451 421 608 484 549 b 341 290 484 352 419 290 m 286 795 l 379 795 l 511 991 l 429 991 l 336 863 l 330 863 l 237 991 l 154 991 l 286 795 "},"Ƀ":{"x_min":41.671875,"x_max":784.71875,"ha":838,"o":"m 263 87 l 263 245 l 475 245 l 475 311 l 263 311 l 263 451 l 423 451 b 672 277 581 451 672 397 b 423 87 672 148 579 87 l 263 87 m 263 825 l 404 825 b 620 683 545 825 620 783 b 400 527 620 581 554 527 l 263 527 l 263 825 m 573 500 b 731 691 680 527 731 602 b 419 911 731 847 604 911 l 148 911 l 148 311 l 41 305 l 41 245 l 148 245 l 148 0 l 440 0 b 784 272 643 0 784 88 b 573 494 784 400 706 473 l 573 500 "},"₁":{"x_min":120.828125,"x_max":327.78125,"ha":510,"o":"m 238 -288 l 327 -288 l 327 252 l 255 252 b 120 197 218 225 181 208 l 120 138 l 238 138 l 238 -288 "},"ą":{"x_min":81.125,"x_max":639.078125,"ha":711,"o":"m 193 183 b 496 352 193 269 269 325 l 496 165 b 311 75 430 106 376 75 b 193 183 244 75 193 106 m 81 175 b 279 -16 81 54 165 -16 b 502 80 362 -16 437 27 l 505 80 l 516 5 b 405 -168 462 -29 405 -93 b 530 -286 405 -245 459 -286 b 639 -248 565 -286 612 -269 l 609 -191 b 554 -209 593 -202 576 -209 b 489 -145 521 -209 489 -188 b 609 0 489 -91 533 -30 l 609 413 b 375 691 609 581 540 691 b 110 604 267 691 172 644 l 156 525 b 357 597 208 561 278 597 b 496 427 466 597 496 513 b 81 175 208 395 81 322 "},"ã":{"x_min":81.125,"x_max":608.671875,"ha":711,"o":"m 81 175 b 279 -16 81 54 165 -16 b 502 80 362 -16 437 27 l 504 80 l 514 0 l 608 0 l 608 413 b 374 691 608 581 539 691 b 110 604 266 691 172 644 l 156 525 b 356 597 208 561 278 597 b 495 427 466 597 495 513 b 81 175 208 395 81 322 m 193 183 b 495 352 193 269 269 325 l 495 165 b 311 75 430 106 376 75 b 193 183 245 75 193 106 m 181 804 l 246 804 b 296 875 253 851 268 875 b 453 804 343 875 384 804 b 567 951 521 804 558 868 l 502 951 b 450 880 493 904 478 880 b 294 951 406 880 363 951 b 181 804 225 951 189 887 "},"Ắ":{"x_min":4,"x_max":751,"ha":756,"o":"m 523 1259 l 423 1259 l 321 1113 l 388 1113 l 523 1259 m 483 1131 b 374 1043 471 1084 442 1043 b 267 1131 308 1043 278 1084 l 206 1131 b 374 983 215 1055 267 983 b 544 1131 483 983 534 1055 l 483 1131 m 238 370 l 281 509 b 371 816 315 611 344 711 l 377 816 b 469 509 406 711 435 611 l 512 370 l 238 370 m 627 0 l 751 0 l 442 911 l 312 911 l 4 0 l 122 0 l 209 277 l 541 277 l 627 0 "},"æ":{"x_min":80.6875,"x_max":1038,"ha":1090,"o":"m 193 183 b 489 352 193 269 275 325 l 489 318 b 515 179 490 266 500 213 b 311 75 454 112 373 75 b 193 183 244 75 193 107 m 155 525 b 351 597 208 561 277 597 b 489 427 462 597 489 513 b 80 175 208 395 80 322 b 279 -16 80 54 165 -16 b 554 109 365 -16 462 27 b 791 -16 605 43 679 -16 b 1011 52 883 -16 953 15 l 969 132 b 805 76 919 100 871 76 b 596 309 690 76 601 169 l 1033 309 b 1038 373 1036 326 1038 348 b 780 691 1038 566 946 691 b 558 548 689 691 611 636 b 365 691 530 636 465 691 b 109 604 265 691 172 644 l 155 525 m 596 386 b 778 601 608 518 684 601 b 937 386 880 601 937 525 l 596 386 "},"ĩ":{"x_min":-22,"x_max":364,"ha":342,"o":"m 114 0 l 227 0 l 227 675 l 114 675 l 114 0 m -22 804 l 43 804 b 93 875 50 851 65 875 b 251 804 140 875 182 804 b 364 951 319 804 357 868 l 300 951 b 248 880 291 904 276 880 b 90 951 204 880 161 951 b -22 804 22 951 -15 887 "},"~":{"x_min":49.71875,"x_max":640,"ha":690,"o":"m 113 388 b 220 473 145 448 180 473 b 466 356 298 473 356 356 b 640 480 526 356 590 393 l 576 528 b 469 443 544 468 509 443 b 223 560 391 443 333 560 b 49 434 163 560 99 523 l 113 388 "},"ŀ":{"x_min":113.890625,"x_max":504.171875,"ha":503,"o":"m 113 136 b 234 -16 113 37 148 -16 b 300 -5 265 -16 284 -12 l 284 80 b 259 77 272 77 266 77 b 227 127 243 77 227 91 l 227 988 l 113 988 l 113 136 m 338 451 b 420 365 338 400 376 365 b 504 451 466 365 504 400 b 420 538 504 504 466 538 b 338 451 376 538 338 504 "},"Ċ":{"x_min":72.21875,"x_max":748.609375,"ha":793,"o":"m 72 455 b 470 -16 72 158 241 -16 b 748 115 587 -16 676 31 l 683 186 b 473 84 625 120 561 84 b 191 458 301 84 191 229 b 479 826 191 684 305 826 b 661 741 555 826 613 793 l 726 815 b 477 927 673 875 587 927 b 72 455 244 927 72 748 m 458 991 b 537 1066 502 991 537 1022 b 458 1140 537 1109 502 1140 b 379 1066 413 1140 379 1109 b 458 991 379 1022 413 991 "},"¡":{"x_min":118.0625,"x_max":283.328125,"ha":401,"o":"m 240 400 l 161 400 l 145 -125 l 143 -255 l 258 -255 l 255 -125 l 240 400 m 283 605 b 201 691 283 655 245 691 b 118 605 155 691 118 655 b 201 516 118 552 155 516 b 283 605 245 516 283 552 "},"ẅ":{"x_min":33.328125,"x_max":963.890625,"ha":997,"o":"m 220 0 l 354 0 l 448 361 b 495 556 466 425 480 488 l 501 556 b 547 362 518 488 530 426 l 644 0 l 783 0 l 963 675 l 855 675 l 756 284 b 715 97 743 220 730 159 l 709 97 b 662 284 694 159 679 220 l 556 675 l 445 675 l 341 284 b 295 97 325 222 311 159 l 290 97 b 250 284 277 159 265 220 l 150 675 l 33 675 l 220 0 m 380 816 b 448 884 419 816 448 845 b 380 952 448 923 419 952 b 312 884 341 952 312 923 b 380 816 312 845 341 816 m 619 816 b 687 884 659 816 687 845 b 619 952 687 923 659 952 b 552 884 580 952 552 923 b 619 816 552 845 580 816 "},"ậ":{"x_min":81.125,"x_max":609.9375,"ha":711,"o":"m 81 175 b 279 -16 81 54 165 -16 b 503 80 362 -16 437 27 l 505 80 l 515 0 l 609 0 l 609 413 b 375 691 609 581 540 691 b 110 604 267 691 172 644 l 156 525 b 357 597 208 561 278 597 b 496 427 466 597 496 513 b 81 175 208 395 81 322 m 193 183 b 496 352 193 269 269 325 l 496 165 b 311 75 430 106 376 75 b 193 183 244 75 193 106 m 196 795 l 278 795 l 371 922 l 376 922 l 469 795 l 553 795 l 421 991 l 326 991 l 196 795 m 351 -286 b 426 -211 394 -286 426 -255 b 351 -137 426 -168 394 -137 b 276 -211 308 -137 276 -168 b 351 -286 276 -255 308 -286 "},"ᵘ":{"x_min":69.4375,"x_max":443.0625,"ha":514,"o":"m 212 358 b 361 431 272 358 323 393 l 365 431 l 375 369 l 443 369 l 443 816 l 356 816 l 356 497 b 240 433 313 452 276 433 b 155 545 170 433 155 475 l 155 816 l 69 816 l 69 533 b 212 358 69 429 108 358 "},"Ử":{"x_min":120.828125,"x_max":927.78125,"ha":915,"o":"m 408 969 b 562 1098 488 983 562 1018 b 370 1211 562 1169 491 1206 l 358 1144 b 473 1086 436 1141 473 1122 b 395 1022 473 1051 440 1034 l 408 969 m 813 1061 b 834 1004 826 1043 834 1025 b 709 911 834 940 786 918 l 663 911 l 663 373 b 448 84 663 154 569 84 b 236 373 329 84 236 154 l 236 911 l 120 911 l 120 376 b 448 -16 120 83 262 -16 b 775 376 634 -16 775 83 l 775 861 b 927 1011 856 879 927 919 b 895 1101 927 1045 915 1076 l 813 1061 "},"P":{"x_min":125,"x_max":740.28125,"ha":800,"o":"m 125 0 l 240 0 l 240 361 l 404 361 b 740 643 604 361 740 451 b 404 911 740 843 605 911 l 125 911 l 125 0 m 240 455 l 240 818 l 390 818 b 625 643 547 818 625 774 b 390 455 625 513 548 455 l 240 455 "},"%":{"x_min":48.609375,"x_max":1097.21875,"ha":1144,"o":"m 255 352 b 462 641 379 352 462 458 b 255 927 462 825 379 927 b 48 641 130 927 48 825 b 255 352 48 458 130 352 m 255 423 b 134 641 183 423 134 497 b 255 856 134 787 183 856 b 375 641 326 856 375 787 b 255 423 375 497 326 423 m 358 -16 l 861 927 l 784 927 l 281 -16 l 358 -16 m 890 -16 b 1097 272 1013 -16 1097 87 b 890 558 1097 454 1013 558 b 683 272 765 558 683 454 b 890 -16 683 87 765 -16 m 890 54 b 769 272 819 54 769 127 b 890 487 769 416 819 487 b 1009 272 961 487 1009 416 b 890 54 1009 127 961 54 "},"_":{"x_min":16.671875,"x_max":677.78125,"ha":694,"o":"m 16 -98 l 16 -175 l 677 -175 l 677 -98 l 16 -98 "},"ñ":{"x_min":114.390625,"x_max":653.5625,"ha":760,"o":"m 114 0 l 228 0 l 228 488 b 412 593 296 556 343 593 b 539 412 501 593 539 538 l 539 0 l 653 0 l 653 427 b 448 691 653 600 589 691 b 222 577 355 691 286 641 l 218 577 l 208 675 l 114 675 l 114 0 m 213 804 l 276 804 b 327 875 285 851 300 875 b 485 804 375 875 415 804 b 598 951 553 804 591 868 l 532 951 b 483 880 525 904 510 880 b 325 951 437 880 394 951 b 213 804 257 951 219 887 "},"Ŕ":{"x_min":125,"x_max":755.5625,"ha":807,"o":"m 590 1136 l 459 1136 l 337 980 l 433 980 l 590 1136 m 240 818 l 393 818 b 613 655 534 818 613 774 b 393 479 613 537 534 479 l 240 479 l 240 818 m 755 0 l 525 397 b 729 655 648 427 729 513 b 409 911 729 844 595 911 l 125 911 l 125 0 l 240 0 l 240 384 l 405 384 l 625 0 l 755 0 "},"‚":{"x_min":87.5,"x_max":268.0625,"ha":346,"o":"m 119 -201 b 268 44 215 -145 268 -64 b 180 171 268 125 234 171 b 106 93 137 171 106 142 b 180 24 106 49 141 24 b 191 25 184 24 187 24 b 87 -148 191 -55 156 -101 l 119 -201 "},"⅞":{"x_min":41.671875,"x_max":1045.828125,"ha":1113,"o":"m 154 369 l 247 369 b 420 862 258 559 288 693 l 420 911 l 41 911 l 41 836 l 320 836 b 154 369 209 684 165 556 m 286 -16 l 788 927 l 711 927 l 208 -16 l 286 -16 m 747 143 b 822 255 747 187 773 226 b 962 141 895 224 962 208 b 855 48 962 90 915 48 b 747 143 790 48 747 94 m 887 309 b 769 413 820 330 769 358 b 855 490 769 458 806 490 b 945 412 905 490 945 459 b 887 309 945 376 926 340 m 663 134 b 855 -16 663 52 740 -16 b 1045 138 963 -16 1045 51 b 945 279 1045 204 1006 247 l 945 284 b 1027 415 981 309 1027 352 b 855 558 1027 502 952 558 b 686 415 761 558 686 501 b 766 291 686 358 719 322 l 766 286 b 663 134 713 255 663 202 "},"Æ":{"x_min":11.109375,"x_max":1073.609375,"ha":1142,"o":"m 318 358 l 402 522 b 551 819 452 620 502 720 l 556 819 l 556 358 l 318 358 m 673 98 l 673 429 l 995 429 l 995 527 l 673 527 l 673 813 l 1059 813 l 1059 911 l 488 911 l 11 0 l 133 0 l 270 265 l 556 265 l 556 0 l 1073 0 l 1073 98 l 673 98 "},"Ū":{"x_min":120.828125,"x_max":775,"ha":896,"o":"m 120 376 b 448 -16 120 83 262 -16 b 775 376 634 -16 775 83 l 775 911 l 663 911 l 663 373 b 448 84 663 154 569 84 b 236 373 329 84 236 154 l 236 911 l 120 911 l 120 376 m 276 1012 l 620 1012 l 620 1091 l 276 1091 l 276 1012 "},"Ṯ":{"x_min":38.890625,"x_max":705.5625,"ha":744,"o":"m 313 0 l 430 0 l 430 813 l 705 813 l 705 911 l 38 911 l 38 813 l 313 813 l 313 0 m 543 -156 l 201 -156 l 201 -237 l 543 -237 l 543 -156 "},"Œ":{"x_min":72.21875,"x_max":1108.328125,"ha":1176,"o":"m 72 459 b 512 0 72 169 236 0 l 1108 0 l 1108 98 l 708 98 l 708 429 l 1030 429 l 1030 527 l 708 527 l 708 813 l 1094 813 l 1094 911 l 518 911 b 72 459 236 911 72 748 m 191 459 b 526 816 191 690 306 816 l 593 816 l 593 94 l 526 94 b 191 459 306 94 191 227 "},"Ą":{"x_min":4.171875,"x_max":794.453125,"ha":756,"o":"m 238 370 l 281 509 b 372 816 315 611 344 711 l 377 816 b 469 509 406 711 436 611 l 512 370 l 238 370 m 762 -193 b 704 -212 745 -205 727 -212 b 640 -148 670 -212 640 -191 b 751 0 640 -90 686 -26 l 443 911 l 312 911 l 4 0 l 122 0 l 209 277 l 541 277 l 627 0 l 654 0 b 550 -173 606 -31 550 -98 b 683 -294 550 -252 609 -294 b 794 -255 719 -294 766 -276 l 762 -193 "},"Ạ":{"x_min":4.171875,"x_max":751.390625,"ha":756,"o":"m 375 -137 b 300 -211 331 -137 300 -168 b 375 -286 300 -255 331 -286 b 450 -211 419 -286 450 -255 b 375 -137 450 -168 419 -137 m 238 370 l 281 509 b 372 816 315 611 344 711 l 377 816 b 469 509 406 711 436 611 l 512 370 l 238 370 m 751 0 l 443 911 l 312 911 l 4 0 l 122 0 l 209 277 l 541 277 l 627 0 l 751 0 "},"ṡ":{"x_min":39.328125,"x_max":537.9375,"ha":582,"o":"m 39 76 b 290 -16 103 23 194 -16 b 537 184 450 -16 537 75 b 332 388 537 312 429 352 b 182 505 256 418 182 441 b 306 602 182 556 221 602 b 460 543 365 602 414 577 l 514 615 b 304 691 462 656 389 691 b 72 500 158 691 72 608 b 274 305 72 386 178 340 b 428 177 347 277 428 247 b 294 72 428 119 383 72 b 96 152 214 72 154 105 l 39 76 m 306 813 b 381 888 349 813 381 844 b 306 963 381 931 349 963 b 231 888 262 963 231 931 b 306 813 231 844 262 813 "},"ỷ":{"x_min":16.671875,"x_max":631.9375,"ha":649,"o":"m 68 -186 l 45 -276 b 125 -290 68 -284 94 -290 b 377 -55 261 -290 330 -188 l 631 675 l 520 675 l 400 301 b 343 111 381 241 362 172 l 337 111 b 272 301 316 173 293 243 l 134 675 l 16 675 l 287 -1 l 272 -51 b 119 -195 244 -134 195 -195 b 68 -186 102 -195 81 -190 m 298 768 b 452 897 379 781 452 816 b 261 1009 452 968 381 1005 l 248 943 b 363 884 326 940 363 920 b 286 820 363 850 330 833 l 298 768 "},"⌟":{"x_min":43.0625,"x_max":290.28125,"ha":421,"o":"m 290 886 l 204 886 l 204 -6 l 43 -6 l 43 -72 l 290 -72 l 290 886 "},"›":{"x_min":75,"x_max":313.890625,"ha":376,"o":"m 75 130 l 123 92 l 313 307 l 313 393 l 123 609 l 75 567 l 238 350 l 75 130 "},"→":{"x_min":54.140625,"x_max":820.921875,"ha":860,"o":"m 820 352 l 443 720 l 383 656 l 662 397 l 54 397 l 54 302 l 662 302 l 383 43 l 443 -20 l 820 347 l 820 352 "},"<":{"x_min":47.21875,"x_max":643.0625,"ha":690,"o":"m 47 415 l 643 182 l 643 280 l 350 388 l 163 458 l 163 463 l 350 533 l 643 641 l 643 740 l 47 506 l 47 415 "},"⸤":{"x_min":130.5625,"x_max":379.171875,"ha":421,"o":"m 130 -211 l 379 -211 l 379 -145 l 216 -145 l 216 386 l 130 386 l 130 -211 "},"¬":{"x_min":47.21875,"x_max":643.0625,"ha":690,"o":"m 47 415 l 551 415 l 551 144 l 643 144 l 643 501 l 47 501 l 47 415 "},"t":{"x_min":33.328125,"x_max":451.390625,"ha":469,"o":"m 133 208 b 326 -16 133 75 181 -16 b 451 8 368 -16 413 -4 l 429 94 b 352 76 406 86 376 76 b 248 206 275 76 248 123 l 248 581 l 430 581 l 430 675 l 248 675 l 248 863 l 152 863 l 138 675 l 33 668 l 33 581 l 133 581 l 133 208 "},"ù":{"x_min":104.171875,"x_max":641.671875,"ha":756,"o":"m 104 247 b 311 -16 104 75 168 -16 b 533 105 404 -16 470 31 l 537 105 l 547 0 l 641 0 l 641 675 l 527 675 l 527 195 b 345 81 463 116 415 81 b 219 262 256 81 219 136 l 219 675 l 104 675 l 104 247 m 380 795 l 469 795 l 343 991 l 223 991 l 380 795 "},"̮":{"x_min":-175,"x_max":175,"ha":0,"o":"m 0 -286 b 175 -109 119 -286 169 -191 l 104 -109 b 0 -215 97 -163 65 -215 b -104 -109 -65 -215 -97 -163 l -175 -109 b 0 -286 -169 -191 -119 -286 "},"ï":{"x_min":-16.671875,"x_max":358.328125,"ha":342,"o":"m 113 0 l 227 0 l 227 675 l 113 675 l 113 0 m 51 816 b 119 884 90 816 119 845 b 51 952 119 923 90 952 b -16 884 12 952 -16 923 b 51 816 -16 845 12 816 m 290 816 b 358 884 330 816 358 845 b 290 952 358 923 330 952 b 223 884 251 952 223 923 b 290 816 223 845 251 816 "},"Ò":{"x_min":72.21875,"x_max":851.390625,"ha":922,"o":"m 461 -16 b 851 459 690 -16 851 166 b 461 927 851 750 690 927 b 72 459 231 927 72 751 b 461 -16 72 166 231 -16 m 461 84 b 191 459 298 84 191 231 b 461 826 191 686 298 826 b 730 459 623 826 730 686 b 461 84 730 231 623 84 m 436 980 l 531 980 l 409 1136 l 279 1136 l 436 980 "},"ầ":{"x_min":81.125,"x_max":652.984375,"ha":711,"o":"m 81 175 b 279 -16 81 54 165 -16 b 503 80 362 -16 437 27 l 505 80 l 515 0 l 609 0 l 609 413 b 375 691 609 581 540 691 b 110 604 267 691 172 644 l 156 525 b 357 597 208 561 278 597 b 496 427 466 597 496 513 b 81 175 208 395 81 322 m 193 183 b 496 352 193 269 269 325 l 496 165 b 311 75 430 106 376 75 b 193 183 244 75 193 106 m 212 795 l 290 795 l 371 897 l 376 897 l 458 795 l 536 795 l 421 961 l 326 961 l 212 795 m 551 1047 l 454 1047 l 582 888 l 652 888 l 551 1047 "},"Ồ":{"x_min":72.21875,"x_max":851.390625,"ha":922,"o":"m 461 -16 b 851 459 690 -16 851 166 b 461 927 851 750 690 927 b 72 459 231 927 72 751 b 461 -16 72 166 231 -16 m 461 84 b 191 459 298 84 191 231 b 461 826 191 686 298 826 b 730 459 623 826 730 686 b 461 84 730 231 623 84 m 618 1223 l 519 1223 l 644 1069 l 716 1069 l 618 1223 m 283 980 l 370 980 l 458 1066 l 463 1066 l 551 980 l 638 980 l 511 1127 l 411 1127 l 283 980 "},"I":{"x_min":125,"x_max":240.28125,"ha":365,"o":"m 125 0 l 240 0 l 240 911 l 125 911 l 125 0 "},"˝":{"x_min":240,"x_max":643,"ha":753,"o":"m 240 793 l 316 793 l 438 991 l 338 991 l 240 793 m 444 793 l 520 793 l 643 991 l 542 991 l 444 793 "},"ə":{"x_min":50.828125,"x_max":624.890625,"ha":689,"o":"m 50 308 b 330 -16 50 106 159 -16 b 624 338 494 -16 624 118 b 327 691 624 561 497 691 b 93 618 232 691 156 661 l 134 543 b 309 601 187 577 241 601 b 511 372 431 601 504 509 l 56 372 b 50 308 53 355 50 333 m 152 295 l 512 295 b 327 75 499 154 431 75 b 152 295 220 75 152 147 "},"₉":{"x_min":54.015625,"x_max":444.28125,"ha":510,"o":"m 240 -22 b 135 89 173 -22 135 23 b 234 198 135 154 177 198 b 359 37 302 198 351 144 b 240 -22 317 -5 281 -22 m 74 -262 b 208 -305 106 -285 145 -305 b 444 -2 341 -305 444 -206 b 233 269 444 168 362 269 b 54 86 131 269 54 190 b 223 -85 54 -15 115 -85 b 359 -30 274 -85 320 -66 b 205 -234 349 -169 285 -234 b 112 -201 167 -234 138 -219 l 74 -262 "},"·":{"x_min":90.28125,"x_max":255.5625,"ha":346,"o":"m 90 445 b 173 359 90 395 127 359 b 255 445 218 359 255 395 b 173 534 255 498 218 534 b 90 445 127 534 90 498 "},"Ṝ":{"x_min":125.515625,"x_max":756.078125,"ha":807,"o":"m 581 1091 l 236 1091 l 236 1012 l 581 1012 l 581 1091 m 429 -137 b 354 -211 386 -137 354 -168 b 429 -286 354 -255 386 -286 b 504 -211 474 -286 504 -255 b 429 -137 504 -168 474 -137 m 240 818 l 393 818 b 614 655 535 818 614 774 b 393 479 614 537 535 479 l 240 479 l 240 818 m 525 397 b 729 655 649 427 729 513 b 410 911 729 844 596 911 l 125 911 l 125 0 l 240 0 l 240 384 l 406 384 l 625 0 l 756 0 l 525 397 "},"¿":{"x_min":66.65625,"x_max":537.453125,"ha":590,"o":"m 368 400 l 266 400 b 66 -50 290 205 66 131 b 304 -272 66 -187 161 -272 b 537 -156 402 -272 479 -222 l 470 -97 b 312 -176 427 -147 373 -176 b 177 -43 222 -176 177 -116 b 368 400 177 104 398 183 m 397 605 b 315 691 397 655 359 691 b 231 605 269 691 231 655 b 315 516 231 552 269 516 b 397 605 359 516 397 552 "},"Ứ":{"x_min":120.828125,"x_max":927.78125,"ha":915,"o":"m 629 1136 l 498 1136 l 376 980 l 472 980 l 629 1136 m 813 1061 b 834 1004 826 1043 834 1025 b 709 911 834 940 786 918 l 663 911 l 663 373 b 448 84 663 154 569 84 b 236 373 329 84 236 154 l 236 911 l 120 911 l 120 376 b 448 -16 120 83 262 -16 b 775 376 634 -16 775 83 l 775 861 b 927 1011 856 879 927 919 b 895 1101 927 1045 915 1076 l 813 1061 "},"ű":{"x_min":104.171875,"x_max":644.4375,"ha":756,"o":"m 104 247 b 311 -16 104 75 168 -16 b 533 105 404 -16 470 31 l 537 105 l 547 0 l 641 0 l 641 675 l 527 675 l 527 195 b 345 81 463 116 415 81 b 219 262 256 81 219 136 l 219 675 l 104 675 l 104 247 m 241 793 l 318 793 l 440 991 l 340 991 l 241 793 m 445 793 l 522 793 l 644 991 l 544 991 l 445 793 "},"Ḍ":{"x_min":125,"x_max":783.328125,"ha":854,"o":"m 125 0 l 358 0 b 783 459 633 0 783 169 b 352 911 783 748 633 911 l 125 911 l 125 0 m 240 94 l 240 816 l 344 816 b 663 459 556 816 663 688 b 344 94 663 229 556 94 l 240 94 m 423 -286 b 498 -211 466 -286 498 -255 b 423 -137 498 -168 466 -137 b 348 -211 379 -137 348 -168 b 423 -286 348 -255 379 -286 "},"₃":{"x_min":48.609375,"x_max":443.0625,"ha":510,"o":"m 48 -198 b 250 -305 90 -259 162 -305 b 443 -143 355 -305 443 -243 b 326 -8 443 -70 387 -25 b 420 125 381 16 420 59 b 248 269 420 215 341 269 b 70 180 173 269 118 234 l 125 133 b 234 198 155 172 194 198 b 333 113 294 198 333 165 b 186 15 333 58 279 15 l 186 -41 b 354 -137 291 -41 354 -75 b 245 -234 354 -198 304 -234 b 108 -154 188 -234 141 -202 l 48 -198 "},"₱":{"x_min":13.390625,"x_max":671.71875,"ha":690,"o":"m 224 580 l 224 662 l 475 662 b 478 616 477 648 478 633 b 475 580 478 604 477 591 l 224 580 m 224 418 l 224 523 l 462 523 b 268 418 432 454 366 418 l 224 418 m 268 806 b 459 719 363 806 428 781 l 224 719 l 224 806 l 268 806 m 671 719 l 573 719 b 282 886 534 840 423 886 l 114 886 l 114 719 l 13 713 l 13 662 l 114 662 l 114 580 l 13 573 l 13 523 l 114 523 l 114 0 l 224 0 l 224 338 l 282 338 b 574 523 424 338 538 398 l 671 523 l 671 580 l 585 580 b 587 616 587 591 587 604 b 584 662 587 633 585 648 l 671 662 l 671 719 "},";":{"x_min":65.28125,"x_max":275,"ha":346,"o":"m 173 485 b 255 571 218 485 255 519 b 173 658 255 624 218 658 b 90 571 127 658 90 624 b 173 485 90 519 127 485 m 93 -235 b 275 24 205 -188 275 -95 b 179 158 275 107 238 158 b 94 78 133 158 94 128 b 176 -1 94 26 131 -1 b 190 0 180 -1 186 -1 b 65 -169 190 -74 143 -134 l 93 -235 "},"Ș":{"x_min":57.84375,"x_max":687.015625,"ha":742,"o":"m 57 118 b 377 -16 137 36 249 -16 b 687 243 568 -16 687 98 b 499 486 687 377 605 440 l 370 541 b 218 693 298 572 218 605 b 388 826 218 775 287 826 b 595 740 473 826 539 793 l 657 815 b 388 927 592 881 496 927 b 102 686 223 927 102 825 b 287 451 102 552 200 487 l 417 394 b 568 233 503 355 568 326 b 378 84 568 144 498 84 b 127 198 284 84 192 130 l 57 118 m 337 -66 l 312 -119 b 384 -180 352 -129 384 -144 b 260 -244 384 -216 332 -234 l 271 -300 b 473 -173 375 -291 473 -254 b 337 -66 473 -111 431 -80 "},"Ġ":{"x_min":72.28125,"x_max":763.953125,"ha":857,"o":"m 72 455 b 482 -16 72 158 243 -16 b 763 88 604 -16 704 27 l 763 472 l 465 472 l 465 376 l 658 376 l 658 138 b 494 84 622 105 559 84 b 191 458 300 84 191 229 b 493 826 191 684 309 826 b 687 741 584 826 641 790 l 752 815 b 491 927 700 870 616 927 b 72 455 248 927 72 748 m 491 991 b 569 1066 536 991 569 1022 b 491 1140 569 1109 536 1140 b 412 1066 447 1140 412 1109 b 491 991 412 1022 447 991 "},"6":{"x_min":66,"x_max":634.0625,"ha":690,"o":"m 371 73 b 177 338 259 73 191 166 b 361 455 236 422 306 455 b 525 268 471 455 525 383 b 371 73 525 151 459 73 m 617 808 b 403 902 567 862 499 902 b 66 409 227 902 66 765 b 371 -16 66 125 197 -16 b 634 268 514 -16 634 98 b 381 541 634 450 534 541 b 174 430 309 541 229 498 b 407 806 179 711 284 806 b 553 737 463 806 517 780 l 617 808 "},"n":{"x_min":113.890625,"x_max":654.171875,"ha":760,"o":"m 113 0 l 227 0 l 227 488 b 412 593 295 556 343 593 b 540 412 501 593 540 538 l 540 0 l 654 0 l 654 427 b 448 691 654 600 590 691 b 222 577 355 691 286 641 l 218 577 l 208 675 l 113 675 l 113 0 "},"Ṉ":{"x_min":125,"x_max":773.609375,"ha":899,"o":"m 125 0 l 234 0 l 234 476 b 219 761 234 572 226 669 l 225 761 l 323 573 l 654 0 l 773 0 l 773 911 l 663 911 l 663 440 b 677 150 663 344 672 241 l 672 150 l 573 338 l 244 911 l 125 911 l 125 0 m 625 -156 l 283 -156 l 283 -237 l 625 -237 l 625 -156 "},"﻿":{"x_min":0,"x_max":0,"ha":0},"ụ":{"x_min":104.171875,"x_max":641.671875,"ha":756,"o":"m 104 247 b 311 -16 104 75 168 -16 b 533 105 404 -16 470 31 l 537 105 l 547 0 l 641 0 l 641 675 l 527 675 l 527 195 b 345 81 463 116 415 81 b 219 262 256 81 219 136 l 219 675 l 104 675 l 104 247 m 402 -286 b 477 -211 447 -286 477 -255 b 402 -137 477 -168 447 -137 b 327 -211 359 -137 327 -168 b 402 -286 327 -255 359 -286 "},"ģ":{"x_min":62.703125,"x_max":683.53125,"ha":700,"o":"m 162 -113 b 232 0 162 -75 183 -34 b 319 -11 261 -8 293 -11 l 436 -11 b 572 -94 523 -11 572 -31 b 358 -231 572 -165 487 -231 b 162 -113 236 -231 162 -186 m 62 -129 b 341 -311 62 -245 176 -311 b 683 -77 551 -311 683 -202 b 447 83 683 34 604 83 l 316 83 b 197 156 225 83 197 113 b 240 237 197 194 216 216 b 341 213 271 222 308 213 b 589 448 479 213 589 304 b 533 587 589 505 565 556 l 672 587 l 672 675 l 437 675 b 341 691 412 684 379 691 b 87 451 204 691 87 598 b 175 269 87 370 130 305 l 175 263 b 101 138 140 240 101 195 b 161 29 101 86 127 50 l 161 23 b 62 -129 100 -18 62 -72 m 341 290 b 198 451 264 290 198 352 b 341 608 198 549 262 608 b 484 451 421 608 484 549 b 341 290 484 352 419 290 m 371 751 l 397 804 b 325 866 357 813 325 829 b 448 929 325 901 376 919 l 437 986 b 236 858 332 976 236 938 b 371 751 236 797 277 765 "},"ʹ":{"x_min":113,"x_max":257,"ha":346,"o":"m 113 602 l 187 602 l 234 819 l 257 958 l 144 958 l 113 602 "},"◆":{"x_min":16.71875,"x_max":407,"ha":425,"o":"m 212 171 l 407 365 l 212 560 l 16 365 l 212 171 "},"Ẵ":{"x_min":4.5,"x_max":751.125,"ha":756,"o":"m 499 1304 b 444 1241 492 1265 472 1241 b 301 1304 400 1241 368 1304 b 192 1175 237 1304 198 1248 l 251 1175 b 305 1237 257 1215 278 1237 b 448 1175 350 1237 382 1175 b 558 1304 512 1175 551 1231 l 499 1304 m 207 1131 b 375 983 215 1055 268 983 b 544 1131 483 983 534 1055 l 483 1131 b 375 1043 472 1084 443 1043 b 268 1131 308 1043 279 1084 l 207 1131 m 239 370 l 282 509 b 372 816 315 611 344 711 l 377 816 b 469 509 407 711 436 611 l 512 370 l 239 370 m 627 0 l 751 0 l 443 911 l 312 911 l 4 0 l 122 0 l 210 277 l 541 277 l 627 0 "},"℗":{"x_min":68.0625,"x_max":965.28125,"ha":1032,"o":"m 351 190 l 441 190 l 441 350 l 543 350 b 748 531 656 350 748 409 b 543 694 748 644 658 694 l 351 694 l 351 190 m 441 419 l 441 623 l 527 623 b 658 529 609 623 658 595 b 527 419 658 452 611 419 l 441 419 m 68 448 b 516 -15 68 165 275 -15 b 965 448 758 -15 965 165 b 516 906 965 730 758 906 b 68 448 275 906 68 730 m 133 448 b 516 850 133 690 306 850 b 900 448 726 850 900 690 b 516 43 900 205 726 43 b 133 448 306 43 133 205 "},"ḡ":{"x_min":61.703125,"x_max":682.53125,"ha":700,"o":"m 161 -113 b 231 0 161 -75 182 -34 b 318 -11 260 -8 292 -11 l 435 -11 b 571 -94 522 -11 571 -31 b 357 -231 571 -165 486 -231 b 161 -113 235 -231 161 -186 m 61 -129 b 340 -311 61 -245 175 -311 b 682 -77 550 -311 682 -202 b 446 83 682 34 603 83 l 315 83 b 196 156 224 83 196 113 b 239 237 196 194 215 216 b 340 213 270 222 307 213 b 588 448 478 213 588 304 b 532 587 588 505 564 556 l 671 587 l 671 675 l 436 675 b 340 691 411 684 378 691 b 86 451 203 691 86 598 b 174 269 86 370 129 305 l 174 263 b 100 138 139 240 100 195 b 160 29 100 86 126 50 l 160 23 b 61 -129 99 -18 61 -72 m 340 290 b 197 451 263 290 197 352 b 340 608 197 549 261 608 b 483 451 420 608 483 549 b 340 290 483 352 418 290 m 161 834 l 501 834 l 501 913 l 161 913 l 161 834 "},"∂":{"x_min":55.5625,"x_max":676.390625,"ha":733,"o":"m 319 77 b 163 256 236 77 163 147 b 366 472 163 379 229 472 b 555 366 427 472 493 444 b 319 77 526 183 438 77 m 215 768 b 370 838 258 812 312 838 b 565 509 490 838 565 741 b 563 463 565 494 565 479 b 356 563 509 526 431 563 b 55 250 169 563 55 433 b 308 -16 55 84 175 -16 b 676 506 527 -16 676 194 b 381 933 676 793 561 933 b 162 840 295 933 220 898 l 215 768 "},"‡":{"x_min":75,"x_max":555.5625,"ha":631,"o":"m 75 104 l 273 111 l 266 -111 l 363 -111 l 356 111 l 555 104 l 555 202 l 356 193 l 363 438 l 356 684 l 555 675 l 555 773 l 356 766 l 363 988 l 266 988 l 273 766 l 75 773 l 75 675 l 273 684 l 266 438 l 273 193 l 75 202 l 75 104 "},"ň":{"x_min":113.65625,"x_max":653.921875,"ha":760,"o":"m 113 0 l 227 0 l 227 488 b 412 593 295 556 342 593 b 540 412 501 593 540 538 l 540 0 l 653 0 l 653 427 b 448 691 653 600 590 691 b 221 577 355 691 285 641 l 217 577 l 208 675 l 113 675 l 113 0 m 358 795 l 452 795 l 583 991 l 501 991 l 408 863 l 402 863 l 309 991 l 226 991 l 358 795 "},"√":{"x_min":57,"x_max":779,"ha":774,"o":"m 241 562 l 57 480 l 83 418 l 181 462 l 390 -131 l 477 -131 l 779 1138 l 695 1138 l 448 81 b 431 -6 443 52 437 22 l 426 -6 b 402 81 419 22 412 52 l 241 562 "},"⁴":{"x_min":58.328125,"x_max":466.671875,"ha":510,"o":"m 151 819 l 236 955 l 305 1068 l 311 1068 l 305 916 l 305 819 l 151 819 m 466 819 l 386 819 l 386 1152 l 286 1152 l 58 801 l 58 755 l 305 755 l 305 611 l 386 611 l 386 755 l 466 755 l 466 819 "},"ę":{"x_min":63.890625,"x_max":636,"ha":689,"o":"m 63 335 b 387 -16 63 114 206 -16 b 455 -7 409 -16 431 -15 b 371 -168 418 -39 371 -98 b 496 -286 371 -246 425 -286 b 605 -248 531 -286 578 -269 l 576 -191 b 520 -210 559 -203 542 -210 b 455 -146 485 -210 455 -189 b 609 52 455 -87 488 -33 l 569 127 b 400 74 519 95 464 74 b 176 312 272 74 184 166 l 631 312 b 636 374 634 328 636 348 b 366 691 636 567 538 691 b 63 335 212 691 63 556 m 175 387 b 369 601 188 523 274 601 b 535 387 476 601 535 524 l 175 387 "},"ố":{"x_min":63.890625,"x_max":698.609375,"ha":753,"o":"m 63 336 b 376 -16 63 112 211 -16 b 688 336 541 -16 688 112 b 376 691 688 562 541 691 b 63 336 211 691 63 562 m 181 336 b 376 597 181 491 261 597 b 570 336 493 597 570 491 b 376 77 570 181 493 77 b 181 336 261 77 181 181 m 215 795 l 293 795 l 373 897 l 379 897 l 461 795 l 538 795 l 423 961 l 329 961 l 215 795 m 500 888 l 570 888 l 698 1047 l 601 1047 l 500 888 "},"Ặ":{"x_min":4.171875,"x_max":751.390625,"ha":756,"o":"m 476 1136 b 375 1048 468 1091 437 1048 b 275 1136 312 1048 283 1091 l 204 1136 b 375 983 213 1058 263 983 b 545 1136 486 983 537 1058 l 476 1136 m 375 -137 b 300 -211 331 -137 300 -168 b 375 -286 300 -255 331 -286 b 450 -211 419 -286 450 -255 b 375 -137 450 -168 419 -137 m 238 370 l 281 509 b 372 816 315 611 344 711 l 377 816 b 469 509 406 711 436 611 l 512 370 l 238 370 m 751 0 l 443 911 l 312 911 l 4 0 l 122 0 l 209 277 l 541 277 l 627 0 l 751 0 "},"į":{"x_min":53.125,"x_max":287.84375,"ha":342,"o":"m 114 0 l 142 0 b 53 -168 103 -38 53 -93 b 179 -286 53 -245 108 -286 b 287 -248 214 -286 261 -269 l 258 -191 b 203 -209 240 -202 223 -209 b 137 -145 168 -209 137 -188 b 228 0 137 -91 172 -40 l 228 675 l 114 675 l 114 0 m 171 813 b 248 887 214 813 248 844 b 171 961 248 931 214 961 b 92 887 126 961 92 931 b 171 813 92 844 126 813 "},"Ế":{"x_min":124.78125,"x_max":719.234375,"ha":732,"o":"m 124 0 l 663 0 l 663 98 l 240 98 l 240 429 l 585 429 l 585 527 l 240 527 l 240 813 l 649 813 l 649 911 l 124 911 l 124 0 m 522 1069 l 592 1069 l 719 1223 l 619 1223 l 522 1069 m 216 980 l 303 980 l 391 1066 l 397 1066 l 484 980 l 573 980 l 444 1127 l 344 1127 l 216 980 "},"ắ":{"x_min":81.125,"x_max":609.9375,"ha":711,"o":"m 81 175 b 279 -16 81 54 165 -16 b 502 80 362 -16 437 27 l 505 80 l 515 0 l 609 0 l 609 413 b 375 691 609 581 540 691 b 110 604 267 691 172 644 l 156 525 b 357 597 208 561 278 597 b 496 427 466 597 496 513 b 81 175 208 395 81 322 m 193 183 b 496 352 193 269 269 325 l 496 165 b 311 75 430 106 376 75 b 193 183 244 75 193 106 m 322 940 l 389 940 l 511 1095 l 416 1095 l 322 940 m 373 798 b 550 975 493 798 543 893 l 489 975 b 373 863 480 918 444 863 b 260 975 303 863 268 918 l 199 975 b 373 798 204 893 254 798 "},"Ṅ":{"x_min":125,"x_max":773.609375,"ha":899,"o":"m 125 0 l 234 0 l 234 476 b 219 761 234 572 226 669 l 225 761 l 323 573 l 654 0 l 773 0 l 773 911 l 663 911 l 663 440 b 677 150 663 344 672 241 l 672 150 l 573 338 l 244 911 l 125 911 l 125 0 m 454 991 b 531 1066 498 991 531 1022 b 454 1140 531 1109 498 1140 b 375 1066 409 1140 375 1109 b 454 991 375 1022 409 991 "},"≈":{"x_min":49.71875,"x_max":640,"ha":690,"o":"m 113 539 b 220 623 145 598 180 623 b 466 505 298 623 356 505 b 640 629 526 505 590 543 l 576 676 b 469 592 544 617 509 592 b 223 710 391 592 333 710 b 49 583 163 710 99 672 l 113 539 m 113 240 b 220 324 145 299 180 324 b 466 206 298 324 356 206 b 640 330 526 206 590 244 l 576 377 b 469 293 544 318 509 293 b 223 411 391 293 333 411 b 49 286 163 411 99 373 l 113 240 "},"ĸ":{"x_min":113.890625,"x_max":675,"ha":688,"o":"m 113 0 l 227 0 l 227 173 l 352 320 l 550 0 l 675 0 l 420 404 l 644 675 l 518 675 l 231 316 l 227 316 l 227 675 l 113 675 l 113 0 "},"g":{"x_min":62.703125,"x_max":683.53125,"ha":700,"o":"m 162 -113 b 232 0 162 -75 183 -34 b 319 -11 261 -8 293 -11 l 436 -11 b 572 -94 523 -11 572 -31 b 358 -231 572 -165 487 -231 b 162 -113 236 -231 162 -186 m 62 -129 b 341 -311 62 -245 176 -311 b 683 -77 551 -311 683 -202 b 447 83 683 34 604 83 l 316 83 b 197 156 225 83 197 113 b 240 237 197 194 216 216 b 341 213 271 222 308 213 b 589 448 479 213 589 304 b 533 587 589 505 565 556 l 672 587 l 672 675 l 437 675 b 341 691 412 684 379 691 b 87 451 204 691 87 598 b 175 269 87 370 130 305 l 175 263 b 101 138 140 240 101 195 b 161 29 101 86 127 50 l 161 23 b 62 -129 100 -18 62 -72 m 341 290 b 198 451 264 290 198 352 b 341 608 198 549 262 608 b 484 451 421 608 484 549 b 341 290 484 352 419 290 "},"²":{"x_min":55.5625,"x_max":444.4375,"ha":510,"o":"m 72 611 l 444 611 l 444 687 l 215 687 b 416 994 330 805 416 890 b 236 1169 416 1108 344 1169 b 55 1063 162 1169 97 1126 l 108 1015 b 225 1094 138 1059 179 1094 b 329 980 288 1094 329 1051 b 72 662 329 898 240 813 l 72 611 "},"ʳ":{"x_min":72.21875,"x_max":334.71875,"ha":333,"o":"m 72 369 l 159 369 l 159 652 b 273 748 190 723 234 748 b 318 741 288 748 306 744 l 334 818 b 281 827 323 823 304 827 b 155 737 233 827 190 797 l 151 737 l 141 816 l 72 816 l 72 369 "},"́":{"x_min":-90,"x_max":154,"ha":0,"o":"m 154 991 l 34 991 l -90 795 l -2 795 l 154 991 "},"Ã":{"x_min":4.171875,"x_max":751.390625,"ha":756,"o":"m 512 1137 b 456 1065 505 1091 484 1065 b 291 1137 405 1065 365 1137 b 175 987 225 1137 181 1073 l 237 987 b 294 1059 245 1034 266 1059 b 459 987 345 1059 386 987 b 576 1137 525 987 568 1052 l 512 1137 m 238 370 l 281 509 b 372 816 315 611 344 711 l 377 816 b 469 509 406 711 436 611 l 512 370 l 238 370 m 627 0 l 751 0 l 443 911 l 312 911 l 4 0 l 122 0 l 209 277 l 541 277 l 627 0 "},"▲":{"x_min":31.9375,"x_max":761.109375,"ha":793,"o":"m 31 52 l 761 52 l 761 55 l 400 741 l 394 741 l 31 55 l 31 52 "},"̄":{"x_min":-170.828125,"x_max":170.828125,"ha":0,"o":"m -170 834 l 170 834 l 170 913 l -170 913 l -170 834 "},"©":{"x_min":68.0625,"x_max":965.28125,"ha":1033,"o":"m 68 448 b 516 -15 68 165 275 -15 b 965 448 758 -15 965 165 b 516 906 965 730 758 906 b 68 448 275 906 68 730 m 133 448 b 516 850 133 690 306 850 b 900 448 726 850 900 690 b 516 43 900 205 726 43 b 133 448 306 43 133 205 m 275 448 b 527 173 275 276 387 173 b 715 252 611 173 663 208 l 673 311 b 531 250 633 276 590 250 b 366 448 431 250 366 326 b 536 634 366 556 434 634 b 656 577 584 634 619 613 l 705 631 b 531 711 661 676 609 711 b 275 448 397 711 275 609 "},"≥":{"x_min":47.21875,"x_max":643.0625,"ha":690,"o":"m 47 0 l 643 0 l 643 86 l 47 86 l 47 0 m 643 527 l 47 740 l 47 641 l 338 540 l 526 479 l 526 473 l 338 412 l 47 311 l 47 212 l 643 425 l 643 527 "},"Ă":{"x_min":4,"x_max":751,"ha":756,"o":"m 476 1136 b 374 1048 467 1091 437 1048 b 274 1136 312 1048 283 1091 l 203 1136 b 374 983 213 1058 263 983 b 545 1136 485 983 537 1058 l 476 1136 m 238 370 l 281 509 b 371 816 315 611 344 711 l 377 816 b 469 509 406 711 435 611 l 512 370 l 238 370 m 627 0 l 751 0 l 442 911 l 312 911 l 4 0 l 122 0 l 209 277 l 541 277 l 627 0 "},"ẞ":{"x_min":126.03125,"x_max":866.3125,"ha":926,"o":"m 126 0 l 242 0 l 242 558 b 477 831 242 745 330 831 b 662 718 571 831 631 780 l 471 505 l 478 430 b 746 237 691 394 746 323 b 592 80 746 145 689 80 b 417 163 524 80 470 105 l 351 88 b 602 -16 407 26 495 -16 b 866 237 762 -16 866 93 b 591 502 866 369 784 463 l 782 713 b 481 927 732 843 635 927 b 126 579 256 927 126 795 l 126 0 "},"ǖ":{"x_min":104.171875,"x_max":641.671875,"ha":756,"o":"m 104 247 b 311 -16 104 75 168 -16 b 533 105 404 -16 470 31 l 537 105 l 547 0 l 641 0 l 641 675 l 527 675 l 527 195 b 345 81 463 116 415 81 b 219 262 256 81 219 136 l 219 675 l 104 675 l 104 247 m 258 816 b 320 879 294 816 320 844 b 258 943 320 915 294 943 b 195 879 222 943 195 915 b 258 816 195 844 222 816 m 498 816 b 561 879 534 816 561 844 b 498 943 561 915 534 943 b 434 879 462 943 434 915 b 498 816 434 844 462 816 m 206 1041 l 548 1041 l 548 1106 l 206 1106 l 206 1041 "},"ÿ":{"x_min":16.671875,"x_max":631.9375,"ha":649,"o":"m 68 -186 l 45 -276 b 125 -290 68 -284 94 -290 b 377 -55 261 -290 330 -188 l 631 675 l 520 675 l 400 301 b 343 111 381 241 362 172 l 337 111 b 272 301 316 173 293 243 l 134 675 l 16 675 l 287 -1 l 272 -51 b 119 -195 244 -134 195 -195 b 68 -186 102 -195 81 -190 m 218 816 b 286 884 256 816 286 845 b 218 952 286 923 256 952 b 150 884 179 952 150 923 b 218 816 150 845 179 816 m 456 816 b 525 884 497 816 525 845 b 456 952 525 923 497 952 b 390 884 418 952 390 923 b 456 816 390 845 418 816 "},"Ḹ":{"x_min":13.890625,"x_max":638.890625,"ha":675,"o":"m 125 0 l 638 0 l 638 98 l 240 98 l 240 911 l 125 911 l 125 0 m 13 1012 l 358 1012 l 358 1091 l 13 1091 l 13 1012 m 400 -286 b 475 -211 443 -286 475 -255 b 400 -137 475 -168 443 -137 b 325 -211 356 -137 325 -168 b 400 -286 325 -255 356 -286 "},"Ł":{"x_min":18.0625,"x_max":645.828125,"ha":679,"o":"m 248 98 l 248 386 l 505 523 l 505 618 l 248 479 l 248 911 l 131 911 l 131 427 l 18 362 l 18 269 l 131 333 l 131 0 l 645 0 l 645 98 l 248 98 "},"∫":{"x_min":72.21875,"x_max":426.390625,"ha":461,"o":"m 86 -123 l 72 -209 b 138 -219 84 -215 109 -219 b 330 98 297 -219 330 -83 b 273 781 330 304 273 580 b 363 1006 273 925 287 1006 b 412 1001 383 1006 400 1004 l 426 1087 b 361 1095 415 1091 388 1095 b 168 779 201 1095 168 958 b 226 93 168 573 226 295 b 133 -129 226 -51 212 -129 b 86 -123 113 -129 97 -127 "},"\\":{"x_min":19.21875,"x_max":472,"ha":486,"o":"m 390 -222 l 472 -222 l 101 986 l 19 986 l 390 -222 "},"Ì":{"x_min":0,"x_max":254.171875,"ha":365,"o":"m 125 0 l 240 0 l 240 911 l 125 911 l 125 0 m 158 980 l 254 980 l 130 1136 l 0 1136 l 158 980 "},"ḗ":{"x_min":63.890625,"x_max":636,"ha":689,"o":"m 63 336 b 387 -16 63 115 206 -16 b 609 52 478 -16 551 15 l 569 127 b 401 75 519 95 464 75 b 176 312 272 75 184 166 l 631 312 b 636 375 634 329 636 351 b 366 691 636 568 538 691 b 63 336 212 691 63 556 m 175 387 b 369 601 188 523 274 601 b 535 387 474 601 535 525 l 175 387 m 294 1000 l 373 1000 l 517 1143 l 406 1143 l 294 1000 m 197 834 l 537 834 l 537 913 l 197 913 l 197 834 "},"Ē":{"x_min":125,"x_max":663.890625,"ha":732,"o":"m 125 0 l 663 0 l 663 98 l 240 98 l 240 429 l 586 429 l 586 527 l 240 527 l 240 813 l 650 813 l 650 911 l 125 911 l 125 0 m 222 1012 l 566 1012 l 566 1091 l 222 1091 l 222 1012 "},"!":{"x_min":118.0625,"x_max":283.328125,"ha":401,"o":"m 161 275 l 240 275 l 255 800 l 258 930 l 143 930 l 145 800 l 161 275 m 118 69 b 201 -16 118 19 155 -16 b 283 69 245 -16 283 19 b 201 158 283 122 245 158 b 118 69 155 158 118 122 "},"▶":{"x_min":79.171875,"x_max":768.0625,"ha":793,"o":"m 79 26 l 81 26 l 768 388 l 768 394 l 81 755 l 79 755 l 79 26 "},"ç":{"x_min":63.890625,"x_max":600,"ha":633,"o":"m 416 -14 b 600 70 483 -7 548 24 l 548 145 b 390 77 508 109 454 77 b 181 335 266 77 181 181 b 393 597 181 491 270 597 b 529 537 447 597 488 572 l 586 610 b 388 691 540 654 477 691 b 63 335 215 691 63 562 b 340 -14 63 129 181 4 l 294 -104 b 383 -172 351 -118 383 -136 b 259 -239 383 -209 331 -229 l 270 -296 b 472 -168 376 -286 472 -248 b 390 -69 472 -111 434 -84 l 416 -14 "},"̣":{"x_min":-75,"x_max":75,"ha":0,"o":"m 0 -286 b 75 -211 43 -286 75 -255 b 0 -137 75 -168 43 -137 b -75 -211 -43 -137 -75 -168 b 0 -286 -75 -255 -43 -286 "},"đ":{"x_min":65.28125,"x_max":756.953125,"ha":771,"o":"m 541 172 b 369 79 486 109 431 79 b 183 323 251 79 183 169 b 377 568 183 469 269 568 b 541 497 433 568 484 548 l 541 172 m 756 859 l 656 859 l 656 988 l 541 988 l 541 859 l 318 859 l 318 793 l 541 793 l 541 701 l 547 586 b 358 663 487 634 436 663 b 65 322 204 663 65 531 b 344 -16 65 105 175 -16 b 547 76 425 -16 495 24 l 551 76 l 559 0 l 656 0 l 656 793 l 756 800 l 756 859 "},"ċ":{"x_min":63.890625,"x_max":600,"ha":633,"o":"m 63 336 b 380 -16 63 112 201 -16 b 600 70 461 -16 538 16 l 548 145 b 390 77 508 109 454 77 b 181 336 266 77 181 181 b 393 597 181 491 270 597 b 529 537 447 597 488 572 l 586 611 b 388 691 540 654 477 691 b 63 336 215 691 63 562 m 387 813 b 462 888 430 813 462 844 b 387 963 462 931 430 963 b 311 888 343 963 311 931 b 387 813 311 844 343 813 "},"Ā":{"x_min":4.34375,"x_max":751.5625,"ha":756,"o":"m 547 1091 l 202 1091 l 202 1012 l 547 1012 l 547 1091 m 239 370 l 282 509 b 372 816 315 611 344 711 l 377 816 b 469 509 407 711 436 611 l 512 370 l 239 370 m 627 0 l 751 0 l 443 911 l 312 911 l 4 0 l 122 0 l 209 277 l 541 277 l 627 0 "},"Ẃ":{"x_min":31.828125,"x_max":1058,"ha":1092,"o":"m 224 0 l 362 0 l 497 548 b 542 755 512 619 529 684 l 548 755 b 592 548 562 684 576 619 l 730 0 l 869 0 l 1058 911 l 946 911 l 851 415 b 799 120 833 318 816 219 l 794 120 b 727 415 771 219 749 319 l 601 911 l 495 911 l 369 415 b 305 120 348 318 326 219 l 299 120 b 247 415 283 219 263 316 l 151 911 l 31 911 l 224 0 m 727 1136 l 597 1136 l 474 980 l 570 980 l 727 1136 "},"ˡ":{"x_min":72.21875,"x_max":212.5,"ha":242,"o":"m 72 472 b 162 358 72 401 95 358 b 212 368 186 358 200 362 l 200 431 b 180 429 191 429 186 429 b 158 463 166 429 158 438 l 158 1020 l 72 1020 l 72 472 "},"ø":{"x_min":64,"x_max":689,"ha":753,"o":"m 543 490 b 576 331 565 447 576 394 b 376 74 576 179 493 74 b 247 129 326 74 282 94 l 543 490 m 208 184 b 176 341 187 226 176 279 b 376 600 176 494 261 600 b 505 544 428 600 472 580 l 208 184 m 689 666 l 639 707 l 569 622 b 376 691 515 668 447 691 b 64 336 211 691 64 562 b 139 98 64 237 93 158 l 64 8 l 115 -32 l 183 51 b 376 -16 237 6 305 -16 b 689 336 541 -16 689 112 b 614 576 689 436 659 516 l 689 666 "},"â":{"x_min":81.125,"x_max":609.9375,"ha":711,"o":"m 81 175 b 279 -16 81 54 165 -16 b 503 80 362 -16 437 27 l 505 80 l 515 0 l 609 0 l 609 413 b 375 691 609 581 540 691 b 110 604 267 691 172 644 l 156 525 b 357 597 208 561 278 597 b 496 427 466 597 496 513 b 81 175 208 395 81 322 m 193 183 b 496 352 193 269 269 325 l 496 165 b 311 75 430 106 376 75 b 193 183 244 75 193 106 m 196 795 l 278 795 l 371 922 l 376 922 l 469 795 l 553 795 l 421 991 l 326 991 l 196 795 "},"}":{"x_min":43.0625,"x_max":373.609375,"ha":421,"o":"m 43 -145 l 43 -211 l 104 -211 b 266 -26 215 -211 266 -169 b 254 241 266 75 254 148 b 373 350 254 295 280 348 l 373 422 b 254 529 280 423 254 476 b 266 798 254 623 266 697 b 104 983 266 941 215 983 l 43 983 l 43 918 l 79 918 b 173 791 154 918 173 881 b 166 540 173 706 166 634 b 248 388 166 450 188 405 l 248 383 b 166 231 188 366 166 320 b 173 -19 166 137 173 65 b 79 -145 173 -109 154 -145 l 43 -145 "},"ț":{"x_min":32.90625,"x_max":450.8125,"ha":469,"o":"m 132 208 b 325 -16 132 75 181 -16 b 450 8 367 -16 413 -4 l 428 94 b 352 76 406 86 375 76 b 248 206 274 76 248 123 l 248 581 l 429 581 l 429 675 l 248 675 l 248 863 l 152 863 l 138 675 l 32 668 l 32 581 l 132 581 l 132 208 m 254 -66 l 229 -119 b 300 -180 270 -129 300 -144 b 177 -244 300 -216 250 -234 l 189 -300 b 389 -173 293 -291 389 -254 b 254 -66 389 -111 349 -80 "},"‰":{"x_min":48.609375,"x_max":1611.109375,"ha":1658,"o":"m 355 -16 l 858 927 l 780 927 l 277 -16 l 355 -16 m 255 352 b 462 641 379 352 462 458 b 255 927 462 825 379 927 b 48 641 130 927 48 825 b 255 352 48 458 130 352 m 255 423 b 134 641 183 423 134 497 b 255 856 134 787 183 856 b 375 641 326 856 375 787 b 255 423 375 497 326 423 m 886 -16 b 1093 272 1011 -16 1093 87 b 886 558 1093 454 1011 558 b 679 272 762 558 679 454 b 886 -16 679 87 762 -16 m 886 54 b 766 272 815 54 766 127 b 886 487 766 416 815 487 b 1006 272 958 487 1006 416 b 886 54 1006 127 958 54 m 1402 -16 b 1611 272 1527 -16 1611 87 b 1402 558 1611 454 1527 558 b 1195 272 1279 558 1195 454 b 1402 -16 1195 87 1279 -16 m 1402 54 b 1283 272 1331 54 1283 127 b 1402 487 1283 416 1331 487 b 1523 272 1475 487 1523 416 b 1402 54 1523 127 1475 54 "},"Ä":{"x_min":4.625,"x_max":751.84375,"ha":756,"o":"m 496 993 b 564 1061 535 993 564 1022 b 496 1129 564 1101 535 1129 b 428 1061 456 1129 428 1101 b 496 993 428 1022 456 993 m 256 993 b 324 1061 294 993 324 1022 b 256 1129 324 1101 294 1129 b 187 1061 217 1129 187 1101 b 256 993 187 1022 217 993 m 239 370 l 282 509 b 372 816 315 611 344 711 l 378 816 b 469 509 407 711 436 611 l 512 370 l 239 370 m 628 0 l 751 0 l 443 911 l 312 911 l 4 0 l 122 0 l 210 277 l 542 277 l 628 0 "},"ř":{"x_min":113.890625,"x_max":486.109375,"ha":482,"o":"m 113 0 l 227 0 l 227 433 b 398 588 273 547 341 588 b 463 577 426 588 441 584 l 486 677 b 413 691 463 687 443 691 b 222 552 337 691 268 637 l 218 552 l 208 675 l 113 675 l 113 0 m 255 795 l 348 795 l 480 991 l 398 991 l 305 863 l 300 863 l 206 991 l 123 991 l 255 795 "},"Ṣ":{"x_min":57.84375,"x_max":687.015625,"ha":742,"o":"m 57 118 b 377 -16 137 36 249 -16 b 687 243 568 -16 687 98 b 499 486 687 377 605 440 l 370 541 b 218 693 298 572 218 605 b 388 826 218 775 287 826 b 595 740 473 826 539 793 l 657 815 b 388 927 592 881 496 927 b 102 686 223 927 102 825 b 287 451 102 552 200 487 l 417 394 b 568 233 503 355 568 326 b 378 84 568 144 498 84 b 127 198 284 84 192 130 l 57 118 m 378 -286 b 453 -211 421 -286 453 -255 b 378 -137 453 -168 421 -137 b 302 -211 334 -137 302 -168 b 378 -286 302 -255 334 -286 "},"—":{"x_min":56.9375,"x_max":1054.171875,"ha":1111,"o":"m 56 309 l 1054 309 l 1054 388 l 56 388 l 56 309 "},"N":{"x_min":125,"x_max":773.609375,"ha":899,"o":"m 125 0 l 234 0 l 234 476 b 219 761 234 572 226 669 l 225 761 l 323 573 l 654 0 l 773 0 l 773 911 l 663 911 l 663 440 b 677 150 663 344 672 241 l 672 150 l 573 338 l 244 911 l 125 911 l 125 0 "},"⁄":{"x_min":-231.5625,"x_max":349,"ha":119,"o":"m -153 -16 l 349 927 l 271 927 l -231 -16 l -153 -16 "},"2":{"x_min":50,"x_max":627.78125,"ha":690,"o":"m 55 0 l 627 0 l 627 98 l 370 98 b 222 90 325 98 270 94 b 583 642 431 310 583 475 b 318 903 583 798 481 903 b 50 768 202 903 123 848 l 115 703 b 304 810 166 762 230 810 b 472 636 416 810 472 737 b 55 68 472 493 322 333 l 55 0 "},"Ó":{"x_min":72.21875,"x_max":851.390625,"ha":922,"o":"m 461 -16 b 851 459 690 -16 851 166 b 461 927 851 750 690 927 b 72 459 231 927 72 751 b 461 -16 72 166 231 -16 m 461 84 b 191 459 298 84 191 231 b 461 826 191 686 298 826 b 730 459 623 826 730 686 b 461 84 730 231 623 84 m 643 1136 l 512 1136 l 390 980 l 486 980 l 643 1136 "},"˜":{"x_min":183,"x_max":570,"ha":753,"o":"m 183 804 l 248 804 b 298 875 255 851 270 875 b 457 804 345 875 387 804 b 570 951 525 804 563 868 l 505 951 b 454 880 497 904 482 880 b 295 951 409 880 366 951 b 183 804 227 951 189 887 "},"ˇ":{"x_min":199.0625,"x_max":556,"ha":753,"o":"m 329 795 l 424 795 l 556 991 l 472 991 l 379 863 l 374 863 l 281 991 l 199 991 l 329 795 "},"ų":{"x_min":104.421875,"x_max":671.078125,"ha":756,"o":"m 104 247 b 311 -16 104 75 168 -16 b 533 105 404 -16 471 31 l 537 105 l 548 5 b 436 -168 489 -37 436 -93 b 562 -286 436 -245 491 -286 b 671 -248 597 -286 644 -269 l 641 -191 b 584 -209 625 -202 607 -209 b 521 -145 553 -209 521 -188 b 641 0 521 -91 559 -40 l 641 675 l 528 675 l 528 195 b 346 81 464 116 415 81 b 219 262 255 81 219 136 l 219 675 l 104 675 l 104 247 "},"Ŭ":{"x_min":120.828125,"x_max":775,"ha":896,"o":"m 120 376 b 448 -16 120 83 262 -16 b 775 376 634 -16 775 83 l 775 911 l 663 911 l 663 373 b 448 84 663 154 569 84 b 236 373 329 84 236 154 l 236 911 l 120 911 l 120 376 m 448 983 b 619 1136 559 983 609 1058 l 548 1136 b 448 1048 540 1091 511 1048 b 347 1136 386 1048 355 1091 l 277 1136 b 448 983 286 1058 337 983 "},"₦":{"x_min":15.28125,"x_max":670.828125,"ha":690,"o":"m 483 393 l 408 393 l 402 412 l 380 476 l 480 476 l 480 440 l 483 393 m 502 102 l 497 102 l 426 333 l 487 333 l 502 102 m 209 393 l 209 445 l 208 476 l 287 476 l 287 475 l 316 393 l 209 393 m 187 781 l 193 781 l 269 534 l 204 534 l 187 781 m 670 476 l 670 534 l 570 534 l 570 886 l 480 886 l 480 534 l 359 534 l 236 886 l 119 886 l 119 534 l 15 527 l 15 476 l 119 476 l 119 393 l 15 386 l 15 333 l 119 333 l 119 0 l 209 0 l 209 333 l 337 333 l 454 0 l 570 0 l 570 333 l 670 333 l 670 393 l 570 393 l 570 476 l 670 476 "},"̌":{"x_min":-179.328125,"x_max":179,"ha":0,"o":"m -47 795 l 47 795 l 179 991 l 95 991 l 2 863 l -2 863 l -96 991 l -179 991 l -47 795 "},"ĝ":{"x_min":62.921875,"x_max":683.53125,"ha":700,"o":"m 162 -113 b 232 0 162 -75 183 -34 b 319 -11 261 -8 293 -11 l 436 -11 b 572 -94 523 -11 572 -31 b 358 -231 572 -165 487 -231 b 162 -113 236 -231 162 -186 m 62 -129 b 341 -311 62 -245 176 -311 b 683 -77 551 -311 683 -202 b 447 83 683 34 604 83 l 317 83 b 197 156 225 83 197 113 b 240 237 197 194 217 216 b 341 213 271 222 308 213 b 589 448 479 213 589 304 b 533 587 589 505 565 556 l 672 587 l 672 675 l 437 675 b 341 691 412 684 379 691 b 87 451 204 691 87 598 b 175 269 87 370 130 305 l 175 263 b 101 138 140 240 101 195 b 161 29 101 86 128 50 l 161 23 b 62 -129 100 -18 62 -72 m 341 290 b 199 451 264 290 199 352 b 341 608 199 549 262 608 b 484 451 421 608 484 549 b 341 290 484 352 419 290 m 154 795 l 237 795 l 330 922 l 336 922 l 429 795 l 511 795 l 379 991 l 286 991 l 154 795 "},"Ω":{"x_min":59.71875,"x_max":893.0625,"ha":953,"o":"m 59 0 l 390 0 l 390 77 b 198 484 281 159 198 288 b 476 831 198 693 302 831 b 754 484 648 831 754 693 b 562 77 754 288 670 159 l 562 0 l 893 0 l 893 94 l 708 94 l 708 100 b 873 488 787 177 873 305 b 476 933 873 761 715 933 b 79 488 237 933 79 761 b 244 100 79 305 165 177 l 244 94 l 59 94 l 59 0 "},"s":{"x_min":39.328125,"x_max":537.9375,"ha":582,"o":"m 39 76 b 290 -16 103 23 194 -16 b 537 184 450 -16 537 75 b 332 388 537 312 429 352 b 182 505 256 418 182 441 b 306 602 182 556 221 602 b 460 543 365 602 414 577 l 514 615 b 304 691 462 656 389 691 b 72 500 158 691 72 608 b 274 305 72 386 178 340 b 428 177 347 277 428 247 b 294 72 428 119 383 72 b 96 152 214 72 154 105 l 39 76 "},"ǚ":{"x_min":105.421875,"x_max":642.921875,"ha":756,"o":"m 105 247 b 312 -16 105 75 169 -16 b 534 105 405 -16 472 31 l 538 105 l 548 0 l 642 0 l 642 675 l 529 675 l 529 195 b 347 81 465 116 416 81 b 220 262 258 81 220 136 l 220 675 l 105 675 l 105 247 m 330 1000 l 429 1000 l 554 1143 l 469 1143 l 381 1054 l 376 1054 l 290 1143 l 205 1143 l 330 1000 m 259 816 b 322 879 295 816 322 844 b 259 943 322 915 295 943 b 197 879 223 943 197 915 b 259 816 197 844 223 816 m 499 816 b 562 879 535 816 562 844 b 499 943 562 915 535 943 b 435 879 463 943 435 915 b 499 816 435 844 463 816 "},"̀":{"x_min":-154.4375,"x_max":90,"ha":0,"o":"m 2 795 l 90 795 l -35 991 l -154 991 l 2 795 "},"?":{"x_min":52.546875,"x_max":523.34375,"ha":590,"o":"m 221 275 l 321 275 b 523 725 299 469 523 543 b 285 947 523 862 428 947 b 52 831 187 947 110 898 l 117 772 b 277 852 160 822 216 852 b 412 718 366 852 412 791 b 221 275 412 570 191 491 m 192 69 b 274 -16 192 19 228 -16 b 358 69 320 -16 358 19 b 274 158 358 122 320 158 b 192 69 228 158 192 122 "},"₆":{"x_min":61.796875,"x_max":452.078125,"ha":510,"o":"m 270 -234 b 146 -71 203 -234 154 -178 b 264 -11 188 -28 224 -11 b 368 -123 332 -11 368 -57 b 270 -234 368 -188 328 -234 m 429 228 b 297 269 399 251 360 269 b 61 -31 164 269 61 172 b 271 -305 61 -202 143 -305 b 452 -120 374 -305 452 -224 b 282 51 452 -18 390 51 b 146 -3 231 51 185 33 b 300 199 156 135 220 199 b 393 167 338 199 367 185 l 429 228 "},"ỡ":{"x_min":63.5625,"x_max":704.328125,"ha":753,"o":"m 505 950 b 454 880 497 903 482 880 b 295 950 409 880 366 950 b 183 803 227 950 189 886 l 248 803 b 298 874 255 850 270 874 b 456 803 345 874 387 803 b 569 950 525 803 562 867 l 505 950 m 376 77 b 181 335 260 77 181 181 b 376 596 181 491 260 596 b 571 335 493 596 571 491 b 376 77 571 181 493 77 m 589 810 b 609 752 601 792 609 773 b 507 661 609 700 572 673 b 376 691 466 681 422 691 b 63 335 210 691 63 561 b 376 -17 63 111 210 -17 b 689 335 541 -17 689 111 b 575 617 689 460 643 556 b 704 760 643 636 704 677 b 672 850 704 795 690 825 l 589 810 "},"Ņ":{"x_min":125,"x_max":773.609375,"ha":899,"o":"m 125 0 l 234 0 l 234 476 b 219 761 234 572 226 669 l 225 761 l 323 573 l 654 0 l 773 0 l 773 911 l 663 911 l 663 440 b 677 150 663 344 672 241 l 672 150 l 573 338 l 244 911 l 125 911 l 125 0 m 415 -66 l 390 -119 b 461 -180 429 -129 461 -144 b 337 -244 461 -216 409 -234 l 348 -300 b 550 -173 454 -291 550 -254 b 415 -66 550 -111 508 -80 "},"Ī":{"x_min":9.71875,"x_max":354.171875,"ha":365,"o":"m 125 0 l 240 0 l 240 911 l 125 911 l 125 0 m 9 1012 l 354 1012 l 354 1091 l 9 1091 l 9 1012 "},"•":{"x_min":55.5625,"x_max":366.671875,"ha":422,"o":"m 211 198 b 366 365 294 198 366 265 b 211 533 366 465 294 533 b 55 365 127 533 55 465 b 211 198 55 265 127 198 "},"(":{"x_min":113.890625,"x_max":368.0625,"ha":421,"o":"m 297 -244 l 368 -210 b 208 386 261 -34 208 175 b 368 983 208 597 261 807 l 297 1017 b 113 386 181 830 113 630 b 297 -244 113 142 181 -57 "},"◊":{"x_min":78.09375,"x_max":641,"ha":718,"o":"m 307 -13 l 411 -13 l 641 458 l 411 930 l 307 930 l 78 458 l 307 -13 m 357 81 l 269 266 l 179 458 l 269 648 l 357 834 l 362 834 l 449 648 l 539 458 l 449 266 l 362 81 l 357 81 "},"■":{"x_min":75,"x_max":350,"ha":425,"o":"m 75 225 l 350 225 l 350 506 l 75 506 l 75 225 "},"Ỗ":{"x_min":72.46875,"x_max":850.9375,"ha":922,"o":"m 461 -16 b 850 459 689 -16 850 166 b 461 927 850 750 689 927 b 72 459 232 927 72 751 b 461 -16 72 166 232 -16 m 461 84 b 191 459 298 84 191 231 b 461 826 191 686 298 826 b 730 459 623 826 730 686 b 461 84 730 231 623 84 m 283 980 l 370 980 l 458 1066 l 463 1066 l 551 980 l 638 980 l 510 1127 l 411 1127 l 283 980 m 337 1175 b 391 1237 343 1215 363 1237 b 534 1175 436 1237 467 1175 b 644 1304 598 1175 637 1231 l 585 1304 b 530 1241 578 1265 558 1241 b 387 1304 485 1241 454 1304 b 278 1175 323 1304 284 1248 l 337 1175 "},"Ħ":{"x_min":44.4375,"x_max":908.328125,"ha":954,"o":"m 691 529 l 268 529 l 268 683 l 691 683 l 691 529 m 908 748 l 808 748 l 808 911 l 691 911 l 691 748 l 268 748 l 268 911 l 152 911 l 152 748 l 44 741 l 44 683 l 152 683 l 152 0 l 268 0 l 268 429 l 691 429 l 691 0 l 808 0 l 808 683 l 908 683 l 908 748 "},"⁹":{"x_min":54.015625,"x_max":444.28125,"ha":510,"o":"m 240 878 b 135 987 173 878 135 923 b 234 1098 135 1053 177 1098 b 359 937 302 1098 351 1044 b 240 878 317 893 281 878 m 74 636 b 208 594 106 614 145 594 b 444 896 341 594 444 691 b 233 1169 444 1066 362 1169 b 54 986 131 1169 54 1090 b 223 812 54 883 115 812 b 359 869 274 812 320 832 b 205 665 351 730 285 665 b 112 698 167 665 138 680 l 74 636 "},"Û":{"x_min":120.828125,"x_max":775,"ha":896,"o":"m 120 376 b 448 -16 120 83 262 -16 b 775 376 634 -16 775 83 l 775 911 l 663 911 l 663 373 b 448 84 663 154 569 84 b 236 373 329 84 236 154 l 236 911 l 120 911 l 120 376 m 352 980 l 445 1075 l 451 1075 l 544 980 l 636 980 l 502 1136 l 393 1136 l 259 980 l 352 980 "},"V":{"x_min":-0.28125,"x_max":715,"ha":715,"o":"m 291 0 l 426 0 l 715 911 l 596 911 l 451 419 b 363 118 419 311 396 225 l 358 118 b 269 419 323 225 302 311 l 123 911 l 0 911 l 291 0 "},"Ầ":{"x_min":4,"x_max":751,"ha":756,"o":"m 630 1069 l 533 1223 l 433 1223 l 558 1069 l 630 1069 m 371 1066 l 377 1066 l 464 980 l 553 980 l 424 1127 l 324 1127 l 197 980 l 284 980 l 371 1066 m 238 370 l 281 509 b 371 816 315 611 344 711 l 377 816 b 469 509 406 711 435 611 l 512 370 l 238 370 m 627 0 l 751 0 l 442 911 l 312 911 l 4 0 l 122 0 l 209 277 l 541 277 l 627 0 "},"⸢":{"x_min":130.5625,"x_max":379.171875,"ha":421,"o":"m 130 386 l 216 386 l 216 918 l 379 918 l 379 983 l 130 983 l 130 386 "},"Ŗ":{"x_min":125,"x_max":755.5625,"ha":807,"o":"m 363 -119 b 434 -180 404 -129 434 -144 b 312 -244 434 -216 384 -234 l 323 -300 b 523 -173 427 -291 523 -254 b 388 -66 523 -111 483 -80 l 363 -119 m 240 818 l 393 818 b 613 655 534 818 613 774 b 393 479 613 537 534 479 l 240 479 l 240 818 m 525 397 b 729 655 648 427 729 513 b 409 911 729 844 595 911 l 125 911 l 125 0 l 240 0 l 240 384 l 405 384 l 625 0 l 755 0 l 525 397 "},"Ỹ":{"x_min":-1.5625,"x_max":662.328125,"ha":661,"o":"m 272 0 l 388 0 l 388 352 l 662 911 l 541 911 l 424 654 b 333 455 397 587 365 523 l 327 455 b 240 654 297 523 269 587 l 122 911 l -1 911 l 272 352 l 272 0 m 413 987 b 530 1137 480 987 523 1052 l 467 1137 b 410 1065 459 1091 438 1065 b 247 1137 360 1065 319 1137 b 129 987 180 1137 137 1073 l 192 987 b 248 1059 199 1034 222 1059 b 413 987 299 1059 340 987 "},"̱":{"x_min":-172.21875,"x_max":170.828125,"ha":0,"o":"m 170 -156 l -172 -156 l -172 -237 l 170 -237 l 170 -156 "},"@":{"x_min":71.109375,"x_max":1105.78125,"ha":1176,"o":"m 71 281 b 559 -215 71 -41 287 -215 b 823 -144 655 -215 743 -193 l 793 -76 b 568 -138 730 -112 653 -138 b 154 286 332 -138 154 15 b 640 820 154 611 393 820 b 1025 433 893 820 1025 656 b 839 145 1025 252 926 145 b 764 308 762 145 736 198 l 818 586 l 741 586 l 726 530 l 723 530 b 612 597 698 576 659 597 b 346 275 450 597 346 423 b 512 79 346 148 418 79 b 682 173 573 79 636 119 l 684 173 b 828 68 694 104 753 68 b 1105 437 954 68 1105 194 b 650 897 1105 711 930 897 b 71 281 339 897 71 654 m 437 281 b 614 518 437 386 504 518 b 703 459 651 518 676 502 l 662 238 b 534 156 615 181 573 156 b 437 281 479 156 437 193 "},"ʼ":{"x_min":87.5,"x_max":268.0625,"ha":346,"o":"m 119 599 b 268 844 215 654 268 733 b 180 971 268 925 234 971 b 106 893 137 971 106 942 b 180 824 106 849 141 824 b 191 825 184 824 187 824 b 87 651 191 744 156 697 l 119 599 "}}}
